G04 Layer: BottomSilkLayer*
G04 EasyEDA v6.4.19.5, 2021-06-09T13:24:33+02:00*
G04 4d0a35ba0e1948c19c820806b4e2a2d6,fb9c11b3819f4bbabdc06984e21ef5f2,10*
G04 Gerber Generator version 0.2*
G04 Scale: 100 percent, Rotated: No, Reflected: No *
G04 Dimensions in millimeters *
G04 leading zeros omitted , absolute positions ,4 integer and 5 decimal *
%FSLAX45Y45*%
%MOMM*%

%ADD10C,0.2540*%
%ADD32C,0.2032*%
%ADD33C,0.1524*%
%ADD34C,0.1500*%

%LPD*%
G36*
X195884Y-6625945D02*
G01*
X187858Y-6626047D01*
X172923Y-6627063D01*
X165963Y-6628028D01*
X159308Y-6629247D01*
X152908Y-6630822D01*
X146761Y-6632651D01*
X140817Y-6634886D01*
X135077Y-6637426D01*
X129438Y-6640372D01*
X123901Y-6643674D01*
X118465Y-6647332D01*
X113030Y-6651447D01*
X107645Y-6655917D01*
X102209Y-6660845D01*
X96723Y-6666230D01*
X91490Y-6671767D01*
X86614Y-6677304D01*
X82194Y-6682841D01*
X78130Y-6688429D01*
X74422Y-6694068D01*
X71069Y-6699808D01*
X68122Y-6705650D01*
X65481Y-6711594D01*
X63195Y-6717690D01*
X61264Y-6723989D01*
X59639Y-6730441D01*
X58318Y-6737096D01*
X57353Y-6744004D01*
X56641Y-6751167D01*
X56175Y-6761632D01*
X82702Y-6761632D01*
X83007Y-6755993D01*
X83566Y-6750405D01*
X84429Y-6744817D01*
X85547Y-6739331D01*
X86969Y-6733844D01*
X88696Y-6728459D01*
X90728Y-6723125D01*
X93014Y-6717893D01*
X95605Y-6712712D01*
X98450Y-6707631D01*
X101600Y-6702704D01*
X105003Y-6697878D01*
X108661Y-6693153D01*
X112623Y-6688581D01*
X116890Y-6684111D01*
X121107Y-6680098D01*
X125476Y-6676339D01*
X134670Y-6669633D01*
X139496Y-6666636D01*
X144424Y-6663944D01*
X149453Y-6661505D01*
X159816Y-6657441D01*
X165100Y-6655816D01*
X170484Y-6654444D01*
X175920Y-6653377D01*
X181457Y-6652564D01*
X192532Y-6651802D01*
X198170Y-6651802D01*
X203758Y-6652107D01*
X209397Y-6652717D01*
X215036Y-6653631D01*
X226212Y-6656222D01*
X237286Y-6660032D01*
X242722Y-6662369D01*
X248259Y-6665163D01*
X253695Y-6668414D01*
X258978Y-6672021D01*
X264109Y-6676085D01*
X269138Y-6680453D01*
X273913Y-6685178D01*
X278485Y-6690207D01*
X282752Y-6695440D01*
X286816Y-6700926D01*
X290525Y-6706565D01*
X293928Y-6712356D01*
X296976Y-6718300D01*
X299669Y-6724294D01*
X301904Y-6730339D01*
X303733Y-6736435D01*
X305104Y-6742480D01*
X306171Y-6749186D01*
X306882Y-6755892D01*
X307187Y-6762496D01*
X307136Y-6768998D01*
X306730Y-6775399D01*
X305968Y-6781749D01*
X304800Y-6787997D01*
X303326Y-6794093D01*
X301447Y-6800138D01*
X299212Y-6806031D01*
X296621Y-6811822D01*
X293674Y-6817512D01*
X290322Y-6823049D01*
X286664Y-6828485D01*
X282651Y-6833768D01*
X278231Y-6838899D01*
X274066Y-6843318D01*
X269748Y-6847484D01*
X265328Y-6851345D01*
X260756Y-6854901D01*
X256082Y-6858203D01*
X246379Y-6864045D01*
X236372Y-6868769D01*
X231241Y-6870750D01*
X226110Y-6872427D01*
X215646Y-6875018D01*
X210362Y-6875932D01*
X199745Y-6876999D01*
X189128Y-6876999D01*
X178562Y-6875983D01*
X168148Y-6873951D01*
X157988Y-6870953D01*
X153009Y-6869074D01*
X143306Y-6864553D01*
X134010Y-6859117D01*
X125222Y-6852666D01*
X121056Y-6849109D01*
X116992Y-6845300D01*
X109423Y-6836968D01*
X105867Y-6832498D01*
X102514Y-6827774D01*
X99364Y-6822795D01*
X96418Y-6817614D01*
X91287Y-6806692D01*
X89154Y-6801154D01*
X87325Y-6795516D01*
X85801Y-6789928D01*
X84582Y-6784289D01*
X83667Y-6778599D01*
X83058Y-6772960D01*
X82702Y-6761632D01*
X56175Y-6761632D01*
X56235Y-6772351D01*
X56641Y-6778345D01*
X57302Y-6784289D01*
X58216Y-6790131D01*
X59385Y-6795922D01*
X60807Y-6801662D01*
X64363Y-6812788D01*
X68834Y-6823608D01*
X74218Y-6833920D01*
X80416Y-6843775D01*
X87376Y-6853072D01*
X95148Y-6861759D01*
X103581Y-6869836D01*
X112674Y-6877151D01*
X122377Y-6883755D01*
X132689Y-6889546D01*
X143510Y-6894423D01*
X149148Y-6896557D01*
X154838Y-6898436D01*
X160680Y-6900062D01*
X174498Y-6903008D01*
X181610Y-6904126D01*
X188214Y-6904786D01*
X194564Y-6904990D01*
X200914Y-6904786D01*
X207467Y-6904126D01*
X214629Y-6903008D01*
X228650Y-6900011D01*
X240639Y-6896353D01*
X252171Y-6891578D01*
X257759Y-6888835D01*
X268528Y-6882536D01*
X273710Y-6878980D01*
X283718Y-6871157D01*
X293217Y-6862318D01*
X297637Y-6857796D01*
X305511Y-6848703D01*
X312318Y-6839407D01*
X315366Y-6834631D01*
X318160Y-6829755D01*
X323088Y-6819646D01*
X327253Y-6808825D01*
X329996Y-6799681D01*
X331724Y-6790385D01*
X332689Y-6779818D01*
X332994Y-6766763D01*
X332892Y-6758787D01*
X331978Y-6744004D01*
X331114Y-6737146D01*
X329946Y-6730593D01*
X328523Y-6724294D01*
X326745Y-6718198D01*
X324662Y-6712356D01*
X322224Y-6706616D01*
X319430Y-6701028D01*
X316280Y-6695490D01*
X312724Y-6690004D01*
X308762Y-6684467D01*
X304393Y-6678930D01*
X294335Y-6667601D01*
X289052Y-6662267D01*
X283768Y-6657340D01*
X278434Y-6652768D01*
X272999Y-6648602D01*
X267512Y-6644843D01*
X261924Y-6641388D01*
X256184Y-6638340D01*
X250291Y-6635648D01*
X244297Y-6633311D01*
X238048Y-6631279D01*
X231648Y-6629603D01*
X224993Y-6628282D01*
X218135Y-6627215D01*
X211023Y-6626504D01*
X203606Y-6626047D01*
G37*
G36*
X192227Y-6693408D02*
G01*
X186029Y-6693662D01*
X174193Y-6695084D01*
X168859Y-6696202D01*
X164033Y-6697624D01*
X159918Y-6699300D01*
X154228Y-6702348D01*
X148793Y-6705955D01*
X143560Y-6710019D01*
X138633Y-6714540D01*
X134112Y-6719366D01*
X130098Y-6724446D01*
X126593Y-6729730D01*
X123748Y-6735114D01*
X121310Y-6741718D01*
X119532Y-6749237D01*
X118516Y-6757365D01*
X118160Y-6765696D01*
X118567Y-6773976D01*
X119633Y-6781800D01*
X121412Y-6788861D01*
X123850Y-6794804D01*
X127457Y-6800799D01*
X131622Y-6806285D01*
X136347Y-6811264D01*
X141478Y-6815734D01*
X147066Y-6819646D01*
X153060Y-6822897D01*
X159359Y-6825538D01*
X165963Y-6827520D01*
X172974Y-6829196D01*
X172821Y-6799529D01*
X172008Y-6793788D01*
X169773Y-6791299D01*
X165455Y-6790131D01*
X158851Y-6787235D01*
X153720Y-6781800D01*
X150368Y-6774129D01*
X149047Y-6764731D01*
X149250Y-6759905D01*
X149961Y-6755434D01*
X151282Y-6751320D01*
X153162Y-6747560D01*
X155600Y-6744157D01*
X158597Y-6741109D01*
X162153Y-6738467D01*
X166217Y-6736181D01*
X170891Y-6734251D01*
X176022Y-6732676D01*
X181762Y-6731558D01*
X187960Y-6730746D01*
X194513Y-6730441D01*
X200863Y-6730644D01*
X206959Y-6731355D01*
X212750Y-6732524D01*
X218084Y-6734200D01*
X222859Y-6736232D01*
X227025Y-6738721D01*
X230428Y-6741515D01*
X233476Y-6745173D01*
X235305Y-6749186D01*
X236220Y-6754469D01*
X236474Y-6761886D01*
X236220Y-6769608D01*
X235204Y-6774942D01*
X232917Y-6779209D01*
X229057Y-6783578D01*
X223316Y-6788658D01*
X219303Y-6790690D01*
X216916Y-6789572D01*
X215595Y-6783019D01*
X213360Y-6783527D01*
X208737Y-6787286D01*
X185674Y-6809892D01*
X198932Y-6823303D01*
X207670Y-6831838D01*
X212953Y-6835851D01*
X215493Y-6835698D01*
X216611Y-6829755D01*
X217932Y-6827926D01*
X220116Y-6826453D01*
X227634Y-6824014D01*
X232410Y-6821982D01*
X237286Y-6819442D01*
X242112Y-6816496D01*
X246684Y-6813296D01*
X250850Y-6809943D01*
X254406Y-6806539D01*
X257149Y-6803237D01*
X259638Y-6799173D01*
X262178Y-6794093D01*
X264464Y-6788658D01*
X266192Y-6783527D01*
X267665Y-6777126D01*
X268528Y-6770674D01*
X268732Y-6764223D01*
X268376Y-6757771D01*
X267462Y-6751421D01*
X265988Y-6745224D01*
X263956Y-6739128D01*
X261416Y-6733235D01*
X258368Y-6727596D01*
X254812Y-6722211D01*
X250850Y-6717182D01*
X246430Y-6712458D01*
X241554Y-6708089D01*
X236321Y-6704228D01*
X230632Y-6700774D01*
X224637Y-6697827D01*
X220471Y-6696354D01*
X215595Y-6695186D01*
X210210Y-6694271D01*
X204470Y-6693712D01*
X198374Y-6693408D01*
G37*
G36*
X191820Y-6922922D02*
G01*
X185877Y-6923125D01*
X179984Y-6923582D01*
X174142Y-6924294D01*
X168351Y-6925259D01*
X162661Y-6926478D01*
X151434Y-6929628D01*
X145948Y-6931507D01*
X135280Y-6936079D01*
X130098Y-6938670D01*
X120091Y-6944563D01*
X110540Y-6951319D01*
X107542Y-6953758D01*
X169773Y-6953758D01*
X169976Y-6952945D01*
X172974Y-6951980D01*
X179120Y-6951421D01*
X187960Y-6951218D01*
X206654Y-6951776D01*
X213207Y-6952183D01*
X218744Y-6952792D01*
X223520Y-6953656D01*
X227990Y-6954774D01*
X232410Y-6956247D01*
X242468Y-6960565D01*
X248208Y-6963511D01*
X253796Y-6966864D01*
X259232Y-6970522D01*
X264464Y-6974586D01*
X269494Y-6978903D01*
X274269Y-6983526D01*
X278841Y-6988454D01*
X283108Y-6993585D01*
X287070Y-6998919D01*
X290779Y-7004456D01*
X294081Y-7010196D01*
X297078Y-7016038D01*
X299720Y-7021982D01*
X301955Y-7027976D01*
X303784Y-7034072D01*
X305155Y-7040219D01*
X306832Y-7051700D01*
X307390Y-7063028D01*
X307289Y-7068566D01*
X306882Y-7074052D01*
X306222Y-7079488D01*
X305308Y-7084822D01*
X302666Y-7095286D01*
X300939Y-7100417D01*
X298958Y-7105446D01*
X296722Y-7110374D01*
X291439Y-7120026D01*
X288391Y-7124700D01*
X281584Y-7133691D01*
X277774Y-7138060D01*
X273710Y-7142327D01*
X267766Y-7147966D01*
X262636Y-7152233D01*
X258825Y-7154722D01*
X256844Y-7155078D01*
X252475Y-7146798D01*
X244754Y-7129881D01*
X234645Y-7106869D01*
X243992Y-7099046D01*
X248107Y-7095032D01*
X251663Y-7090511D01*
X254508Y-7085685D01*
X256438Y-7080808D01*
X258419Y-7074966D01*
X260553Y-7071868D01*
X263956Y-7070598D01*
X275336Y-7070191D01*
X278333Y-7069175D01*
X279501Y-7066534D01*
X279704Y-7061504D01*
X279501Y-7056424D01*
X278333Y-7053783D01*
X275336Y-7052767D01*
X263906Y-7052360D01*
X260502Y-7050836D01*
X258165Y-7046874D01*
X253898Y-7033717D01*
X249936Y-7024319D01*
X248310Y-7021575D01*
X246227Y-7019493D01*
X244043Y-7019391D01*
X240842Y-7021677D01*
X235712Y-7026656D01*
X226517Y-7036104D01*
X230784Y-7047992D01*
X233171Y-7057948D01*
X232867Y-7066330D01*
X230174Y-7072071D01*
X225247Y-7074204D01*
X224231Y-7073900D01*
X223062Y-7073036D01*
X221691Y-7071512D01*
X218236Y-7066127D01*
X213512Y-7057186D01*
X207162Y-7043928D01*
X189738Y-7005320D01*
X182524Y-6988708D01*
X176936Y-6975246D01*
X172923Y-6964934D01*
X170535Y-6957771D01*
X169773Y-6953758D01*
X107542Y-6953758D01*
X101498Y-6958990D01*
X93065Y-6967474D01*
X85242Y-6976821D01*
X76860Y-6988759D01*
X72745Y-6995109D01*
X69240Y-7001103D01*
X66294Y-7006793D01*
X63855Y-7012381D01*
X61925Y-7018020D01*
X60401Y-7023862D01*
X59232Y-7030059D01*
X58419Y-7036765D01*
X57861Y-7044131D01*
X57483Y-7066483D01*
X83058Y-7066483D01*
X83058Y-7059675D01*
X83464Y-7052818D01*
X84277Y-7045807D01*
X85344Y-7039609D01*
X86715Y-7033514D01*
X88442Y-7027621D01*
X90525Y-7021880D01*
X92964Y-7016292D01*
X95758Y-7010806D01*
X98907Y-7005421D01*
X102412Y-7000138D01*
X106375Y-6994956D01*
X110642Y-6989825D01*
X115366Y-6984746D01*
X138430Y-6962800D01*
X152400Y-6993280D01*
X157886Y-7006437D01*
X158902Y-7010400D01*
X158851Y-7013143D01*
X157835Y-7015022D01*
X155854Y-7016597D01*
X153009Y-7018121D01*
X145999Y-7022846D01*
X140157Y-7028992D01*
X135839Y-7036155D01*
X133350Y-7043978D01*
X132232Y-7048804D01*
X130403Y-7051395D01*
X126847Y-7052411D01*
X114198Y-7052767D01*
X110845Y-7053732D01*
X109626Y-7056374D01*
X109423Y-7061504D01*
X109626Y-7066584D01*
X110896Y-7069226D01*
X114300Y-7070242D01*
X127254Y-7070547D01*
X130657Y-7071410D01*
X132029Y-7073544D01*
X132283Y-7077506D01*
X132842Y-7081469D01*
X134264Y-7086396D01*
X136347Y-7091934D01*
X138836Y-7097522D01*
X141528Y-7102703D01*
X144221Y-7107021D01*
X146659Y-7109917D01*
X148539Y-7110984D01*
X150418Y-7110323D01*
X153162Y-7108494D01*
X156464Y-7105751D01*
X159918Y-7102449D01*
X168249Y-7093864D01*
X162966Y-7084059D01*
X160883Y-7079335D01*
X159308Y-7074052D01*
X158242Y-7068566D01*
X157784Y-7063181D01*
X157835Y-7058050D01*
X158496Y-7053580D01*
X159664Y-7049973D01*
X161493Y-7047534D01*
X163423Y-7046468D01*
X165862Y-7045807D01*
X168503Y-7045604D01*
X171043Y-7045959D01*
X172212Y-7046518D01*
X173532Y-7047585D01*
X175006Y-7049262D01*
X178562Y-7054799D01*
X183286Y-7063841D01*
X189636Y-7077151D01*
X206349Y-7114641D01*
X218694Y-7143292D01*
X226821Y-7162800D01*
X228854Y-7168642D01*
X227380Y-7170877D01*
X223316Y-7172807D01*
X217170Y-7174280D01*
X209499Y-7175246D01*
X200812Y-7175753D01*
X191617Y-7175652D01*
X182473Y-7174941D01*
X173888Y-7173620D01*
X162661Y-7170877D01*
X152857Y-7167575D01*
X148336Y-7165644D01*
X143967Y-7163460D01*
X139700Y-7161022D01*
X131318Y-7155129D01*
X122631Y-7147814D01*
X118008Y-7143546D01*
X113080Y-7138568D01*
X108559Y-7133386D01*
X104343Y-7128002D01*
X100533Y-7122515D01*
X97078Y-7116825D01*
X93980Y-7110984D01*
X91287Y-7105040D01*
X88950Y-7098893D01*
X87020Y-7092645D01*
X85445Y-7086295D01*
X84277Y-7079792D01*
X83464Y-7073188D01*
X83058Y-7066483D01*
X57483Y-7066483D01*
X57708Y-7078421D01*
X58115Y-7085634D01*
X58775Y-7092137D01*
X59639Y-7098131D01*
X60858Y-7103668D01*
X62433Y-7109002D01*
X64312Y-7114133D01*
X66649Y-7119315D01*
X72644Y-7130135D01*
X79756Y-7141108D01*
X87071Y-7150658D01*
X94996Y-7159599D01*
X99161Y-7163816D01*
X108000Y-7171690D01*
X117297Y-7178802D01*
X127101Y-7185152D01*
X137261Y-7190638D01*
X147777Y-7195261D01*
X152501Y-7196836D01*
X157988Y-7198207D01*
X164134Y-7199426D01*
X177647Y-7201153D01*
X184810Y-7201763D01*
X199186Y-7202170D01*
X206146Y-7202017D01*
X212801Y-7201611D01*
X218948Y-7200950D01*
X224434Y-7200036D01*
X230378Y-7198614D01*
X236220Y-7196937D01*
X242011Y-7194905D01*
X253441Y-7189978D01*
X264464Y-7183932D01*
X269798Y-7180529D01*
X280111Y-7173010D01*
X285038Y-7168946D01*
X294335Y-7160209D01*
X298754Y-7155535D01*
X306882Y-7145731D01*
X314096Y-7135317D01*
X317347Y-7129932D01*
X320294Y-7124446D01*
X322986Y-7118858D01*
X325374Y-7113219D01*
X327456Y-7107478D01*
X329234Y-7101636D01*
X330250Y-7097064D01*
X331774Y-7085279D01*
X332536Y-7071156D01*
X332638Y-7056323D01*
X331978Y-7042251D01*
X331368Y-7036003D01*
X330555Y-7030466D01*
X329590Y-7025944D01*
X327863Y-7020001D01*
X325831Y-7014108D01*
X323545Y-7008368D01*
X318160Y-6997192D01*
X311810Y-6986574D01*
X304495Y-6976465D01*
X300583Y-6971690D01*
X296418Y-6967067D01*
X287528Y-6958431D01*
X282803Y-6954367D01*
X272948Y-6946900D01*
X262483Y-6940397D01*
X257048Y-6937451D01*
X245821Y-6932422D01*
X240029Y-6930288D01*
X234188Y-6928459D01*
X228244Y-6926884D01*
X222148Y-6925564D01*
X209905Y-6923735D01*
X197815Y-6922922D01*
G37*
G36*
X194360Y-7222744D02*
G01*
X181864Y-7223150D01*
X169976Y-7224369D01*
X164287Y-7225284D01*
X153314Y-7227824D01*
X142900Y-7231176D01*
X132994Y-7235444D01*
X123494Y-7240625D01*
X114350Y-7246721D01*
X105562Y-7253833D01*
X101244Y-7257745D01*
X92862Y-7266330D01*
X88341Y-7271512D01*
X84074Y-7276795D01*
X80162Y-7282180D01*
X76555Y-7287615D01*
X73253Y-7293203D01*
X70205Y-7298893D01*
X67513Y-7304684D01*
X65074Y-7310628D01*
X62941Y-7316673D01*
X61112Y-7322820D01*
X59537Y-7329170D01*
X57302Y-7342276D01*
X56641Y-7349083D01*
X56235Y-7356043D01*
X56085Y-7363307D01*
X82702Y-7363307D01*
X82753Y-7357618D01*
X83108Y-7351928D01*
X83718Y-7346289D01*
X84632Y-7340701D01*
X85852Y-7335113D01*
X87376Y-7329576D01*
X89154Y-7324140D01*
X91236Y-7318705D01*
X93624Y-7313422D01*
X96316Y-7308189D01*
X102463Y-7297978D01*
X109778Y-7288275D01*
X113893Y-7283602D01*
X118262Y-7279081D01*
X122834Y-7274864D01*
X127660Y-7270953D01*
X132638Y-7267346D01*
X137769Y-7264044D01*
X143052Y-7261098D01*
X148488Y-7258405D01*
X154076Y-7256018D01*
X159766Y-7253986D01*
X165557Y-7252258D01*
X171450Y-7250836D01*
X177393Y-7249769D01*
X183388Y-7249007D01*
X189433Y-7248550D01*
X195529Y-7248448D01*
X201676Y-7248652D01*
X207771Y-7249210D01*
X213867Y-7250125D01*
X219964Y-7251344D01*
X226009Y-7252919D01*
X232054Y-7254798D01*
X237998Y-7257084D01*
X243840Y-7259675D01*
X249631Y-7262622D01*
X254558Y-7265517D01*
X259384Y-7268819D01*
X264109Y-7272477D01*
X268681Y-7276439D01*
X273100Y-7280706D01*
X277317Y-7285278D01*
X281330Y-7290053D01*
X285140Y-7295083D01*
X288696Y-7300264D01*
X291998Y-7305598D01*
X294995Y-7311085D01*
X297738Y-7316673D01*
X300075Y-7322362D01*
X302107Y-7328052D01*
X303784Y-7333792D01*
X305054Y-7339482D01*
X306730Y-7351064D01*
X307238Y-7362444D01*
X306628Y-7373620D01*
X305917Y-7379106D01*
X304901Y-7384542D01*
X303631Y-7389875D01*
X302107Y-7395159D01*
X298246Y-7405420D01*
X293268Y-7415275D01*
X290423Y-7420051D01*
X283921Y-7429246D01*
X280263Y-7433665D01*
X272237Y-7442098D01*
X266954Y-7446924D01*
X261620Y-7451293D01*
X256235Y-7455255D01*
X250850Y-7458811D01*
X245313Y-7461961D01*
X239674Y-7464704D01*
X233934Y-7467092D01*
X228041Y-7469073D01*
X221996Y-7470749D01*
X215747Y-7472019D01*
X209245Y-7472934D01*
X202590Y-7473543D01*
X195783Y-7473746D01*
X189077Y-7473645D01*
X182473Y-7473137D01*
X176022Y-7472273D01*
X169672Y-7471054D01*
X163423Y-7469479D01*
X157327Y-7467549D01*
X151434Y-7465314D01*
X145643Y-7462723D01*
X140055Y-7459827D01*
X134670Y-7456576D01*
X129489Y-7453020D01*
X124460Y-7449159D01*
X119684Y-7444943D01*
X115112Y-7440472D01*
X110744Y-7435697D01*
X106629Y-7430617D01*
X102819Y-7425283D01*
X99212Y-7419644D01*
X95910Y-7413752D01*
X93218Y-7408316D01*
X90830Y-7402830D01*
X87020Y-7391653D01*
X85547Y-7386015D01*
X84378Y-7380376D01*
X83515Y-7374686D01*
X82956Y-7368997D01*
X82702Y-7363307D01*
X56085Y-7363307D01*
X56540Y-7374788D01*
X57912Y-7386066D01*
X60198Y-7396988D01*
X61620Y-7402271D01*
X65125Y-7412583D01*
X69392Y-7422489D01*
X74371Y-7431887D01*
X77114Y-7436459D01*
X83108Y-7445146D01*
X89712Y-7453274D01*
X96926Y-7460894D01*
X104648Y-7467955D01*
X112877Y-7474407D01*
X121513Y-7480198D01*
X130606Y-7485380D01*
X140055Y-7489850D01*
X149809Y-7493660D01*
X159867Y-7496708D01*
X170180Y-7498994D01*
X180644Y-7500467D01*
X191262Y-7501178D01*
X202031Y-7501026D01*
X212852Y-7500010D01*
X223723Y-7498130D01*
X234543Y-7495336D01*
X245313Y-7491577D01*
X256032Y-7486853D01*
X262331Y-7483551D01*
X268376Y-7480046D01*
X274167Y-7476286D01*
X279755Y-7472273D01*
X285089Y-7468006D01*
X290220Y-7463485D01*
X295046Y-7458760D01*
X299669Y-7453782D01*
X304038Y-7448550D01*
X308152Y-7443114D01*
X312013Y-7437424D01*
X315620Y-7431481D01*
X318922Y-7425334D01*
X322021Y-7418984D01*
X324866Y-7412431D01*
X329133Y-7400493D01*
X330454Y-7395870D01*
X331419Y-7391349D01*
X332079Y-7386523D01*
X332587Y-7374686D01*
X332232Y-7357364D01*
X331368Y-7341463D01*
X330555Y-7334250D01*
X329539Y-7327442D01*
X328269Y-7320991D01*
X326694Y-7314844D01*
X324815Y-7308951D01*
X322630Y-7303262D01*
X320090Y-7297775D01*
X317144Y-7292441D01*
X313842Y-7287107D01*
X310134Y-7281875D01*
X306019Y-7276592D01*
X301447Y-7271207D01*
X296418Y-7265720D01*
X290880Y-7260081D01*
X285902Y-7255408D01*
X280873Y-7251039D01*
X275742Y-7246975D01*
X270459Y-7243267D01*
X265125Y-7239914D01*
X259588Y-7236866D01*
X253949Y-7234123D01*
X248158Y-7231684D01*
X242163Y-7229551D01*
X236016Y-7227722D01*
X229616Y-7226198D01*
X223062Y-7224928D01*
X216255Y-7223963D01*
X209194Y-7223302D01*
X201930Y-7222896D01*
G37*
G36*
X217627Y-7322058D02*
G01*
X171704Y-7323074D01*
X170078Y-7339584D01*
X104139Y-7339584D01*
X105613Y-7384034D01*
X170078Y-7385456D01*
X171704Y-7399274D01*
X215188Y-7400137D01*
X225298Y-7399781D01*
X232054Y-7399020D01*
X235508Y-7397750D01*
X237185Y-7394752D01*
X238252Y-7388453D01*
X238861Y-7377938D01*
X238963Y-7344613D01*
X238607Y-7338110D01*
X237896Y-7332980D01*
X236677Y-7329017D01*
X234797Y-7326172D01*
X232054Y-7324140D01*
X228396Y-7322921D01*
X223621Y-7322261D01*
G37*
G36*
X265176Y-7341971D02*
G01*
X256082Y-7343343D01*
X249174Y-7347203D01*
X245516Y-7353249D01*
X244246Y-7360818D01*
X245364Y-7368641D01*
X248920Y-7375448D01*
X255219Y-7379817D01*
X263601Y-7381544D01*
X272288Y-7380478D01*
X279501Y-7376617D01*
X283311Y-7370368D01*
X284784Y-7361986D01*
X283921Y-7353452D01*
X280568Y-7346746D01*
X274116Y-7343089D01*
G37*
G36*
X193040Y-7520381D02*
G01*
X187248Y-7520533D01*
X175818Y-7521549D01*
X164693Y-7523429D01*
X153873Y-7526172D01*
X148590Y-7527848D01*
X138328Y-7531862D01*
X128473Y-7536637D01*
X119075Y-7542174D01*
X110185Y-7548422D01*
X101752Y-7555433D01*
X93929Y-7563154D01*
X86664Y-7571536D01*
X80060Y-7580579D01*
X74117Y-7590231D01*
X68884Y-7600492D01*
X64414Y-7611313D01*
X60604Y-7622489D01*
X59385Y-7627416D01*
X58521Y-7632446D01*
X57912Y-7638034D01*
X57454Y-7652461D01*
X57426Y-7664297D01*
X83210Y-7664297D01*
X83210Y-7658303D01*
X83464Y-7652359D01*
X84124Y-7646416D01*
X85039Y-7640523D01*
X86258Y-7634731D01*
X87731Y-7628991D01*
X91592Y-7617764D01*
X96570Y-7606995D01*
X99466Y-7601813D01*
X102565Y-7596835D01*
X105968Y-7591958D01*
X109575Y-7587284D01*
X113385Y-7582814D01*
X117449Y-7578547D01*
X126237Y-7570622D01*
X130962Y-7567015D01*
X135839Y-7563713D01*
X140919Y-7560614D01*
X146202Y-7557820D01*
X155651Y-7553604D01*
X159867Y-7552080D01*
X164134Y-7550912D01*
X168706Y-7550048D01*
X179679Y-7548829D01*
X193497Y-7548118D01*
X204622Y-7548118D01*
X209397Y-7548473D01*
X218490Y-7549946D01*
X228498Y-7552639D01*
X234492Y-7554671D01*
X240385Y-7557058D01*
X246075Y-7559751D01*
X251612Y-7562799D01*
X256997Y-7566152D01*
X262128Y-7569860D01*
X267055Y-7573822D01*
X271780Y-7578039D01*
X276250Y-7582560D01*
X280517Y-7587284D01*
X284480Y-7592314D01*
X288137Y-7597546D01*
X291541Y-7602981D01*
X294640Y-7608620D01*
X297434Y-7614462D01*
X299872Y-7620508D01*
X301447Y-7625130D01*
X302818Y-7630210D01*
X304952Y-7641081D01*
X306171Y-7652562D01*
X306527Y-7664094D01*
X305917Y-7675118D01*
X305257Y-7680248D01*
X302920Y-7690408D01*
X301244Y-7695742D01*
X299313Y-7700975D01*
X294640Y-7711033D01*
X291947Y-7715859D01*
X289001Y-7720584D01*
X282498Y-7729524D01*
X275132Y-7737805D01*
X267004Y-7745374D01*
X262636Y-7748879D01*
X253441Y-7755229D01*
X248666Y-7758074D01*
X238556Y-7763154D01*
X227990Y-7767218D01*
X222504Y-7768894D01*
X211277Y-7771434D01*
X205841Y-7772196D01*
X200406Y-7772653D01*
X194970Y-7772806D01*
X189534Y-7772653D01*
X184150Y-7772247D01*
X173482Y-7770520D01*
X162966Y-7767675D01*
X152806Y-7763814D01*
X143002Y-7758988D01*
X138277Y-7756245D01*
X129235Y-7750048D01*
X120700Y-7743088D01*
X112877Y-7735316D01*
X109220Y-7731201D01*
X102565Y-7722412D01*
X99517Y-7717790D01*
X94132Y-7708138D01*
X89763Y-7697978D01*
X87934Y-7692694D01*
X86410Y-7687309D01*
X85191Y-7681874D01*
X84226Y-7676286D01*
X83566Y-7670292D01*
X83210Y-7664297D01*
X57426Y-7664297D01*
X57658Y-7679639D01*
X58013Y-7685989D01*
X58572Y-7691323D01*
X59436Y-7695996D01*
X60655Y-7700365D01*
X62230Y-7704886D01*
X67157Y-7716266D01*
X70256Y-7722463D01*
X73609Y-7728458D01*
X81026Y-7739888D01*
X85039Y-7745323D01*
X89255Y-7750505D01*
X93675Y-7755483D01*
X98298Y-7760258D01*
X108102Y-7769047D01*
X113233Y-7773060D01*
X118516Y-7776819D01*
X124002Y-7780324D01*
X129590Y-7783575D01*
X135331Y-7786573D01*
X141173Y-7789214D01*
X147167Y-7791602D01*
X153263Y-7793685D01*
X159461Y-7795463D01*
X164439Y-7796580D01*
X175768Y-7798206D01*
X188214Y-7799019D01*
X201117Y-7799019D01*
X207467Y-7798714D01*
X219506Y-7797444D01*
X224993Y-7796530D01*
X230022Y-7795361D01*
X235762Y-7793736D01*
X241452Y-7791754D01*
X252679Y-7786928D01*
X263601Y-7780985D01*
X274116Y-7774076D01*
X284124Y-7766253D01*
X293471Y-7757668D01*
X297891Y-7753146D01*
X306120Y-7743596D01*
X313385Y-7733588D01*
X316687Y-7728407D01*
X319684Y-7723174D01*
X322427Y-7717840D01*
X324815Y-7712506D01*
X326948Y-7707071D01*
X328726Y-7701635D01*
X330200Y-7696200D01*
X331216Y-7691018D01*
X331978Y-7685074D01*
X332841Y-7671562D01*
X332841Y-7656830D01*
X331978Y-7642301D01*
X331266Y-7635443D01*
X330352Y-7629093D01*
X329285Y-7623454D01*
X327964Y-7618577D01*
X325983Y-7612634D01*
X323799Y-7606893D01*
X321360Y-7601254D01*
X315823Y-7590434D01*
X312775Y-7585252D01*
X306019Y-7575397D01*
X298551Y-7566253D01*
X290372Y-7557820D01*
X286054Y-7553858D01*
X276910Y-7546594D01*
X267157Y-7540142D01*
X256844Y-7534554D01*
X251510Y-7532065D01*
X240436Y-7527798D01*
X228955Y-7524445D01*
X223062Y-7523124D01*
X210972Y-7521295D01*
X198882Y-7520431D01*
G37*
G36*
X172821Y-7580833D02*
G01*
X168300Y-7582814D01*
X162864Y-7587894D01*
X157683Y-7594803D01*
X153822Y-7602372D01*
X152044Y-7607909D01*
X150977Y-7613345D01*
X150571Y-7618628D01*
X150825Y-7623809D01*
X151688Y-7628737D01*
X153162Y-7633462D01*
X155143Y-7637932D01*
X157734Y-7642098D01*
X160782Y-7645857D01*
X164338Y-7649311D01*
X168351Y-7652258D01*
X172770Y-7654798D01*
X177647Y-7656830D01*
X182829Y-7658353D01*
X188417Y-7659268D01*
X194310Y-7659573D01*
X201422Y-7659217D01*
X208076Y-7657998D01*
X214121Y-7656068D01*
X219659Y-7653375D01*
X224536Y-7649972D01*
X228854Y-7645806D01*
X232511Y-7640980D01*
X235458Y-7635443D01*
X237845Y-7627670D01*
X238810Y-7618831D01*
X238302Y-7609941D01*
X236321Y-7601966D01*
X232816Y-7595514D01*
X227533Y-7588605D01*
X222148Y-7583119D01*
X218186Y-7580833D01*
X217068Y-7581544D01*
X215493Y-7583373D01*
X211988Y-7589418D01*
X209804Y-7594396D01*
X209296Y-7597851D01*
X210515Y-7601203D01*
X213614Y-7605725D01*
X216662Y-7610906D01*
X218084Y-7615732D01*
X217932Y-7620203D01*
X216255Y-7624114D01*
X213156Y-7627366D01*
X208737Y-7629855D01*
X202996Y-7631480D01*
X196088Y-7632090D01*
X186994Y-7631684D01*
X180492Y-7630007D01*
X176072Y-7626756D01*
X173024Y-7621625D01*
X171551Y-7616037D01*
X172059Y-7610906D01*
X174548Y-7606030D01*
X180949Y-7599476D01*
X181508Y-7597292D01*
X180797Y-7594244D01*
X176987Y-7586167D01*
X173837Y-7581544D01*
G37*
G36*
X173431Y-7658303D02*
G01*
X163271Y-7668971D01*
X159410Y-7673543D01*
X156260Y-7678420D01*
X153873Y-7683449D01*
X152146Y-7688630D01*
X151130Y-7693914D01*
X150774Y-7699146D01*
X151079Y-7704378D01*
X152044Y-7709458D01*
X153619Y-7714335D01*
X155752Y-7719009D01*
X158546Y-7723378D01*
X161899Y-7727391D01*
X165811Y-7730896D01*
X170230Y-7733995D01*
X175209Y-7736484D01*
X180695Y-7738364D01*
X186944Y-7739634D01*
X193090Y-7740142D01*
X199186Y-7739989D01*
X205079Y-7739075D01*
X210769Y-7737551D01*
X216103Y-7735417D01*
X221030Y-7732725D01*
X225501Y-7729474D01*
X229463Y-7725664D01*
X232765Y-7721447D01*
X235407Y-7716723D01*
X237286Y-7711643D01*
X238201Y-7706969D01*
X238506Y-7701686D01*
X238252Y-7696047D01*
X237439Y-7690256D01*
X236220Y-7684617D01*
X234594Y-7679334D01*
X232562Y-7674660D01*
X230174Y-7670850D01*
X224485Y-7664653D01*
X219862Y-7662570D01*
X215747Y-7664703D01*
X211836Y-7671003D01*
X209550Y-7676134D01*
X208940Y-7679436D01*
X210108Y-7682280D01*
X213156Y-7685786D01*
X216611Y-7690561D01*
X218084Y-7695336D01*
X217830Y-7699908D01*
X215849Y-7704074D01*
X212394Y-7707680D01*
X207517Y-7710474D01*
X201371Y-7712252D01*
X194106Y-7712913D01*
X186791Y-7712100D01*
X180746Y-7709814D01*
X176022Y-7706359D01*
X172872Y-7702092D01*
X171348Y-7697165D01*
X171653Y-7691983D01*
X173888Y-7686802D01*
X178257Y-7681925D01*
X181152Y-7679283D01*
X182118Y-7676946D01*
X181203Y-7673594D01*
G37*
G36*
X554786Y-6966915D02*
G01*
X539496Y-6967016D01*
X529234Y-6967372D01*
X523189Y-6967981D01*
X520750Y-6968947D01*
X519785Y-6971741D01*
X518312Y-6977786D01*
X514705Y-6996226D01*
X511860Y-7013041D01*
X509625Y-7023912D01*
X508304Y-7027672D01*
X506730Y-7030567D01*
X504647Y-7032904D01*
X501904Y-7034834D01*
X498449Y-7036562D01*
X456082Y-7053072D01*
X402996Y-7016699D01*
X370281Y-7049516D01*
X362762Y-7057440D01*
X357733Y-7063181D01*
X355854Y-7065822D01*
X357124Y-7068464D01*
X360527Y-7074103D01*
X371856Y-7091121D01*
X389077Y-7116368D01*
X389077Y-7118146D01*
X388061Y-7121347D01*
X386181Y-7125716D01*
X381101Y-7135825D01*
X379222Y-7140041D01*
X378206Y-7143089D01*
X378155Y-7144562D01*
X381558Y-7146239D01*
X432714Y-7167880D01*
X463397Y-7180529D01*
X484174Y-7188809D01*
X487730Y-7190028D01*
X488543Y-7189673D01*
X489610Y-7188606D01*
X493572Y-7182459D01*
X496417Y-7178700D01*
X504037Y-7169962D01*
X508355Y-7165695D01*
X512927Y-7161885D01*
X517702Y-7158532D01*
X522630Y-7155637D01*
X527710Y-7153198D01*
X532942Y-7151217D01*
X538226Y-7149693D01*
X543560Y-7148626D01*
X548944Y-7147966D01*
X554380Y-7147763D01*
X559765Y-7148017D01*
X565099Y-7148626D01*
X570433Y-7149744D01*
X575614Y-7151217D01*
X580694Y-7153148D01*
X585673Y-7155484D01*
X590448Y-7158228D01*
X595020Y-7161326D01*
X599389Y-7164882D01*
X603554Y-7168794D01*
X607364Y-7173112D01*
X610920Y-7177836D01*
X614172Y-7182916D01*
X617067Y-7188403D01*
X619861Y-7194651D01*
X621385Y-7200087D01*
X621995Y-7206792D01*
X622147Y-7216902D01*
X621995Y-7227011D01*
X621385Y-7233767D01*
X619810Y-7239203D01*
X617016Y-7245603D01*
X614324Y-7250785D01*
X611327Y-7255662D01*
X607974Y-7260234D01*
X604367Y-7264450D01*
X600506Y-7268311D01*
X596442Y-7271816D01*
X592124Y-7275017D01*
X587603Y-7277811D01*
X582879Y-7280249D01*
X578053Y-7282332D01*
X573074Y-7284008D01*
X567944Y-7285278D01*
X562762Y-7286142D01*
X557479Y-7286599D01*
X552196Y-7286650D01*
X546811Y-7286294D01*
X541477Y-7285481D01*
X536092Y-7284212D01*
X530758Y-7282535D01*
X525475Y-7280351D01*
X521106Y-7278217D01*
X517093Y-7275931D01*
X513334Y-7273391D01*
X509778Y-7270597D01*
X506323Y-7267448D01*
X502920Y-7263892D01*
X491439Y-7249312D01*
X488391Y-7246112D01*
X486156Y-7244943D01*
X484022Y-7245350D01*
X432866Y-7266482D01*
X377545Y-7289901D01*
X377748Y-7291273D01*
X380949Y-7298588D01*
X390398Y-7316520D01*
X366420Y-7351471D01*
X360934Y-7359954D01*
X357225Y-7366101D01*
X355854Y-7369048D01*
X356717Y-7370622D01*
X362762Y-7377785D01*
X372567Y-7388199D01*
X383844Y-7399528D01*
X398221Y-7413142D01*
X401218Y-7415530D01*
X402742Y-7416393D01*
X405587Y-7415072D01*
X420065Y-7405979D01*
X439724Y-7392670D01*
X453898Y-7383576D01*
X456539Y-7382205D01*
X459435Y-7383018D01*
X473201Y-7388047D01*
X490778Y-7395057D01*
X504139Y-7400848D01*
X506730Y-7402271D01*
X507847Y-7405268D01*
X511556Y-7421473D01*
X519684Y-7464044D01*
X521106Y-7465618D01*
X525830Y-7466431D01*
X536143Y-7466838D01*
X588518Y-7466888D01*
X598017Y-7416850D01*
X599795Y-7408976D01*
X601319Y-7403287D01*
X602386Y-7400696D01*
X604926Y-7399172D01*
X617474Y-7393381D01*
X633831Y-7386370D01*
X646684Y-7381341D01*
X649528Y-7380579D01*
X652373Y-7382002D01*
X667308Y-7391552D01*
X687882Y-7405471D01*
X696620Y-7411161D01*
X703021Y-7415022D01*
X705967Y-7416393D01*
X707542Y-7415530D01*
X714654Y-7409484D01*
X725068Y-7399680D01*
X736396Y-7388402D01*
X746302Y-7378090D01*
X752348Y-7371029D01*
X753262Y-7369505D01*
X751738Y-7366457D01*
X741680Y-7350556D01*
X715467Y-7311948D01*
X728522Y-7280402D01*
X734517Y-7267549D01*
X735939Y-7265162D01*
X738987Y-7264196D01*
X745845Y-7262571D01*
X788873Y-7254240D01*
X800100Y-7251700D01*
X803808Y-7250328D01*
X802894Y-7182815D01*
X756513Y-7174026D01*
X738174Y-7170115D01*
X735126Y-7169150D01*
X731723Y-7161784D01*
X724916Y-7145629D01*
X720547Y-7134707D01*
X717956Y-7127341D01*
X716940Y-7122769D01*
X717296Y-7120229D01*
X723442Y-7110780D01*
X748182Y-7074103D01*
X751890Y-7068210D01*
X753262Y-7065568D01*
X752348Y-7064197D01*
X746048Y-7057186D01*
X724357Y-7034885D01*
X713841Y-7024624D01*
X706882Y-7018324D01*
X705561Y-7017410D01*
X703580Y-7018426D01*
X693166Y-7025233D01*
X663651Y-7045604D01*
X649732Y-7054799D01*
X618236Y-7041286D01*
X605129Y-7035038D01*
X602538Y-7033412D01*
X601370Y-7030313D01*
X599592Y-7023506D01*
X591210Y-6981545D01*
X588670Y-6970572D01*
X587248Y-6968490D01*
X583184Y-6967372D01*
X573430Y-6966966D01*
G37*
D32*
X1725907Y-7398166D02*
G01*
X1630451Y-7398166D01*
X1725907Y-7429985D02*
G01*
X1725907Y-7366347D01*
X1725907Y-7336348D02*
G01*
X1630451Y-7336348D01*
X1675907Y-7336348D02*
G01*
X1689544Y-7322713D01*
X1694088Y-7313622D01*
X1694088Y-7299985D01*
X1689544Y-7290894D01*
X1675907Y-7286348D01*
X1630451Y-7286348D01*
X1725907Y-7256348D02*
G01*
X1721360Y-7251804D01*
X1725907Y-7247257D01*
X1730453Y-7251804D01*
X1725907Y-7256348D01*
X1694088Y-7251804D02*
G01*
X1630451Y-7251804D01*
X1680451Y-7167257D02*
G01*
X1689544Y-7171804D01*
X1694088Y-7185439D01*
X1694088Y-7199076D01*
X1689544Y-7212713D01*
X1680451Y-7217257D01*
X1671360Y-7212713D01*
X1666816Y-7203620D01*
X1662269Y-7180894D01*
X1657725Y-7171804D01*
X1648635Y-7167257D01*
X1644088Y-7167257D01*
X1634997Y-7171804D01*
X1630451Y-7185439D01*
X1630451Y-7199076D01*
X1634997Y-7212713D01*
X1644088Y-7217257D01*
X1712269Y-7003620D02*
G01*
X1721360Y-7012711D01*
X1725907Y-7026348D01*
X1725907Y-7044529D01*
X1721360Y-7058167D01*
X1712269Y-7067257D01*
X1703179Y-7067257D01*
X1694088Y-7062711D01*
X1689544Y-7058167D01*
X1684997Y-7049076D01*
X1675907Y-7021802D01*
X1671360Y-7012711D01*
X1666816Y-7008167D01*
X1657725Y-7003620D01*
X1644088Y-7003620D01*
X1634997Y-7012711D01*
X1630451Y-7026348D01*
X1630451Y-7044529D01*
X1634997Y-7058167D01*
X1644088Y-7067257D01*
X1725907Y-6973620D02*
G01*
X1721360Y-6969076D01*
X1725907Y-6964530D01*
X1730453Y-6969076D01*
X1725907Y-6973620D01*
X1694088Y-6969076D02*
G01*
X1630451Y-6969076D01*
X1725907Y-6879986D02*
G01*
X1630451Y-6879986D01*
X1680451Y-6879986D02*
G01*
X1689544Y-6889076D01*
X1694088Y-6898167D01*
X1694088Y-6911802D01*
X1689544Y-6920895D01*
X1680451Y-6929986D01*
X1666816Y-6934530D01*
X1657725Y-6934530D01*
X1644088Y-6929986D01*
X1634997Y-6920895D01*
X1630451Y-6911802D01*
X1630451Y-6898167D01*
X1634997Y-6889076D01*
X1644088Y-6879986D01*
X1666816Y-6849986D02*
G01*
X1666816Y-6795439D01*
X1675907Y-6795439D01*
X1684997Y-6799986D01*
X1689544Y-6804530D01*
X1694088Y-6813621D01*
X1694088Y-6827258D01*
X1689544Y-6836349D01*
X1680451Y-6845439D01*
X1666816Y-6849986D01*
X1657725Y-6849986D01*
X1644088Y-6845439D01*
X1634997Y-6836349D01*
X1630451Y-6827258D01*
X1630451Y-6813621D01*
X1634997Y-6804530D01*
X1644088Y-6795439D01*
X1712269Y-6695439D02*
G01*
X1671360Y-6622712D01*
X1630451Y-6695439D01*
X1455907Y-7034987D02*
G01*
X1360451Y-7034987D01*
X1455907Y-7034987D02*
G01*
X1360451Y-6998616D01*
X1455907Y-6962256D02*
G01*
X1360451Y-6998616D01*
X1455907Y-6962256D02*
G01*
X1360451Y-6962256D01*
X1455907Y-6932261D02*
G01*
X1360451Y-6932261D01*
X1455907Y-6902259D02*
G01*
X1360451Y-6902259D01*
X1455907Y-6902259D02*
G01*
X1455907Y-6870440D01*
X1451358Y-6856803D01*
X1442267Y-6847712D01*
X1433179Y-6843161D01*
X1419539Y-6838622D01*
X1396822Y-6838622D01*
X1383179Y-6843161D01*
X1374089Y-6847712D01*
X1364998Y-6856803D01*
X1360451Y-6870440D01*
X1360451Y-6902259D01*
X1455907Y-6808622D02*
G01*
X1360451Y-6808622D01*
X1455907Y-6672259D02*
G01*
X1360451Y-6708617D01*
X1455907Y-6672259D02*
G01*
X1360451Y-6635899D01*
X1392270Y-6694987D02*
G01*
X1392270Y-6649532D01*
X1440906Y-5799988D02*
G01*
X1345450Y-5799988D01*
X1440906Y-5799988D02*
G01*
X1345450Y-5763625D01*
X1440906Y-5727260D02*
G01*
X1345450Y-5763625D01*
X1440906Y-5727260D02*
G01*
X1345450Y-5727260D01*
X1440906Y-5697260D02*
G01*
X1345450Y-5697260D01*
X1440906Y-5667260D02*
G01*
X1345450Y-5667260D01*
X1440906Y-5667260D02*
G01*
X1440906Y-5635442D01*
X1436359Y-5621807D01*
X1427269Y-5612716D01*
X1418178Y-5608170D01*
X1404543Y-5603623D01*
X1381815Y-5603623D01*
X1368178Y-5608170D01*
X1359087Y-5612716D01*
X1349997Y-5621807D01*
X1345450Y-5635442D01*
X1345450Y-5667260D01*
X1440906Y-5573623D02*
G01*
X1345450Y-5573623D01*
X1440906Y-5473623D02*
G01*
X1345450Y-5473623D01*
X1440906Y-5473623D02*
G01*
X1440906Y-5432714D01*
X1436359Y-5419079D01*
X1431815Y-5414533D01*
X1422725Y-5409989D01*
X1413634Y-5409989D01*
X1404543Y-5414533D01*
X1399997Y-5419079D01*
X1395450Y-5432714D01*
X1395450Y-5473623D02*
G01*
X1395450Y-5432714D01*
X1390906Y-5419079D01*
X1386359Y-5414533D01*
X1377269Y-5409989D01*
X1363634Y-5409989D01*
X1354543Y-5414533D01*
X1349997Y-5419079D01*
X1345450Y-5432714D01*
X1345450Y-5473623D01*
X1222903Y-7244684D02*
G01*
X1049881Y-7325367D01*
X1126807Y-7189188D02*
G01*
X1082837Y-7310000D01*
X1100424Y-7261674D02*
G01*
X1007618Y-7234735D01*
X1097610Y-7126569D02*
G01*
X939998Y-7089726D01*
X1055347Y-7035939D02*
G01*
X982261Y-7180359D01*
X1029990Y-6981560D02*
G01*
X914641Y-7035347D01*
X997033Y-6996927D02*
G01*
X1010224Y-6960684D01*
X1010780Y-6940364D01*
X999253Y-6915647D01*
X983330Y-6903011D01*
X954770Y-6906298D01*
X872380Y-6944718D01*
X954770Y-6906298D02*
G01*
X967963Y-6870054D01*
X968517Y-6849734D01*
X956993Y-6825018D01*
X941070Y-6812381D01*
X912510Y-6815668D01*
X830117Y-6854088D01*
X920109Y-6745919D02*
G01*
X762500Y-6709077D01*
X877846Y-6655290D02*
G01*
X804760Y-6799709D01*
X679467Y-6681594D02*
G01*
X610313Y-6533288D01*
X815652Y-6371333D02*
G01*
X642630Y-6452016D01*
X733259Y-6409753D02*
G01*
X742053Y-6385593D01*
X742609Y-6365273D01*
X731083Y-6340553D01*
X715159Y-6327917D01*
X690999Y-6319123D01*
X662439Y-6322410D01*
X645960Y-6330094D01*
X625086Y-6349860D01*
X616290Y-6374020D01*
X615736Y-6394343D01*
X627260Y-6419060D01*
X643183Y-6431696D01*
X667346Y-6440490D01*
X744192Y-6218085D02*
G01*
X571169Y-6298768D01*
X661159Y-6190602D02*
G01*
X578766Y-6229022D01*
X550209Y-6232309D01*
X534286Y-6219672D01*
X522759Y-6194953D01*
X523313Y-6174633D01*
X536506Y-6138390D01*
X618898Y-6099970D02*
G01*
X503549Y-6153759D01*
X544106Y-6068644D02*
G01*
X498002Y-5969774D01*
X514479Y-5962091D01*
X534799Y-5962644D01*
X546882Y-5967041D01*
X562805Y-5979678D01*
X574332Y-6004397D01*
X573775Y-6024717D01*
X564982Y-6048877D01*
X544106Y-6068644D01*
X527626Y-6076327D01*
X499066Y-6079614D01*
X474906Y-6070820D01*
X458983Y-6058184D01*
X447456Y-6033467D01*
X448012Y-6013147D01*
X456806Y-5988984D01*
X522079Y-5892342D02*
G01*
X406732Y-5946132D01*
X489122Y-5907712D02*
G01*
X502315Y-5871469D01*
X502869Y-5851149D01*
X491345Y-5826429D01*
X475421Y-5813793D01*
X446862Y-5817080D01*
X364469Y-5855500D01*
X446862Y-5817080D02*
G01*
X460052Y-5780836D01*
X460608Y-5760516D01*
X449082Y-5735800D01*
X433158Y-5723163D01*
X404599Y-5726450D01*
X322209Y-5764870D01*
X341378Y-5569358D02*
G01*
X365539Y-5578154D01*
X381462Y-5590791D01*
X392988Y-5615508D01*
X392435Y-5635828D01*
X383639Y-5659991D01*
X362765Y-5679754D01*
X346285Y-5687440D01*
X317726Y-5690727D01*
X293563Y-5681931D01*
X277639Y-5669295D01*
X266115Y-5644578D01*
X266669Y-5624258D01*
X275465Y-5600095D01*
X398411Y-5476562D02*
G01*
X225389Y-5557243D01*
X307781Y-5518823D02*
G01*
X320972Y-5482579D01*
X321528Y-5462259D01*
X310001Y-5437543D01*
X294078Y-5424906D01*
X265518Y-5428193D01*
X183128Y-5466613D01*
X223685Y-5381497D02*
G01*
X177581Y-5282628D01*
X194058Y-5274945D01*
X214378Y-5275498D01*
X226461Y-5279895D01*
X242384Y-5292531D01*
X253908Y-5317251D01*
X253354Y-5337571D01*
X244558Y-5361734D01*
X223685Y-5381497D01*
X207205Y-5389181D01*
X178645Y-5392468D01*
X154485Y-5383674D01*
X138562Y-5371038D01*
X127035Y-5346321D01*
X127589Y-5326001D01*
X136385Y-5301838D01*
X201658Y-5205196D02*
G01*
X86309Y-5258986D01*
X168701Y-5220566D02*
G01*
X181894Y-5184322D01*
X182448Y-5164002D01*
X170921Y-5139283D01*
X154998Y-5126647D01*
X126441Y-5129933D01*
X44048Y-5168353D01*
X1732099Y-10559369D02*
G01*
X1732099Y-10629369D01*
X1732099Y-10589369D02*
G01*
X1727098Y-10574367D01*
X1717098Y-10564368D01*
X1707098Y-10559369D01*
X1692099Y-10559369D01*
X1659100Y-10589369D02*
G01*
X1599100Y-10589369D01*
X1599100Y-10579369D01*
X1604098Y-10569369D01*
X1609100Y-10564368D01*
X1619100Y-10559369D01*
X1634098Y-10559369D01*
X1644098Y-10564368D01*
X1654098Y-10574367D01*
X1659100Y-10589369D01*
X1659100Y-10599369D01*
X1654098Y-10614367D01*
X1644098Y-10624367D01*
X1634098Y-10629369D01*
X1619100Y-10629369D01*
X1609100Y-10624367D01*
X1599100Y-10614367D01*
X1506100Y-10524368D02*
G01*
X1506100Y-10629369D01*
X1506100Y-10574367D02*
G01*
X1516100Y-10564368D01*
X1526100Y-10559369D01*
X1541099Y-10559369D01*
X1551099Y-10564368D01*
X1561099Y-10574367D01*
X1566100Y-10589369D01*
X1566100Y-10599369D01*
X1561099Y-10614367D01*
X1551099Y-10624367D01*
X1541099Y-10629369D01*
X1526100Y-10629369D01*
X1516100Y-10624367D01*
X1506100Y-10614367D01*
X1341099Y-10574367D02*
G01*
X1346098Y-10564368D01*
X1361099Y-10559369D01*
X1376100Y-10559369D01*
X1391099Y-10564368D01*
X1396100Y-10574367D01*
X1391099Y-10584367D01*
X1381099Y-10589369D01*
X1356100Y-10594367D01*
X1346098Y-10599369D01*
X1341099Y-10609369D01*
X1341099Y-10614367D01*
X1346098Y-10624367D01*
X1361099Y-10629369D01*
X1376100Y-10629369D01*
X1391099Y-10624367D01*
X1396100Y-10614367D01*
X1293098Y-10524368D02*
G01*
X1293098Y-10609369D01*
X1288100Y-10624367D01*
X1278100Y-10629369D01*
X1268100Y-10629369D01*
X1308100Y-10559369D02*
G01*
X1273098Y-10559369D01*
X1235100Y-10559369D02*
G01*
X1235100Y-10629369D01*
X1235100Y-10589369D02*
G01*
X1230099Y-10574367D01*
X1220099Y-10564368D01*
X1210099Y-10559369D01*
X1195100Y-10559369D01*
X1162100Y-10524368D02*
G01*
X1157099Y-10529369D01*
X1152100Y-10524368D01*
X1157099Y-10519369D01*
X1162100Y-10524368D01*
X1157099Y-10559369D02*
G01*
X1157099Y-10629369D01*
X1119098Y-10559369D02*
G01*
X1119098Y-10664367D01*
X1119098Y-10574367D02*
G01*
X1109098Y-10564368D01*
X1099098Y-10559369D01*
X1084099Y-10559369D01*
X1074099Y-10564368D01*
X1064099Y-10574367D01*
X1059098Y-10589369D01*
X1059098Y-10599369D01*
X1064099Y-10614367D01*
X1074099Y-10624367D01*
X1084099Y-10629369D01*
X1099098Y-10629369D01*
X1109098Y-10624367D01*
X1119098Y-10614367D01*
X1026099Y-10589369D02*
G01*
X966099Y-10589369D01*
X966099Y-10579369D01*
X971100Y-10569369D01*
X976099Y-10564368D01*
X986099Y-10559369D01*
X1001100Y-10559369D01*
X1011100Y-10564368D01*
X1021100Y-10574367D01*
X1026099Y-10589369D01*
X1026099Y-10599369D01*
X1021100Y-10614367D01*
X1011100Y-10624367D01*
X1001100Y-10629369D01*
X986099Y-10629369D01*
X976099Y-10624367D01*
X966099Y-10614367D01*
X353100Y-4961498D02*
G01*
X363100Y-4966500D01*
X368099Y-4981498D01*
X368099Y-4996500D01*
X363100Y-5011498D01*
X353100Y-5016500D01*
X343100Y-5011498D01*
X338099Y-5001498D01*
X333100Y-4976500D01*
X328099Y-4966500D01*
X318099Y-4961498D01*
X313100Y-4961498D01*
X303100Y-4966500D01*
X298099Y-4981498D01*
X298099Y-4996500D01*
X303100Y-5011498D01*
X313100Y-5016500D01*
X403100Y-4913500D02*
G01*
X318099Y-4913500D01*
X303100Y-4908499D01*
X298099Y-4898499D01*
X298099Y-4888499D01*
X368099Y-4928499D02*
G01*
X368099Y-4893500D01*
X368099Y-4795499D02*
G01*
X298099Y-4795499D01*
X353100Y-4795499D02*
G01*
X363100Y-4805499D01*
X368099Y-4815499D01*
X368099Y-4830500D01*
X363100Y-4840500D01*
X353100Y-4850500D01*
X338099Y-4855499D01*
X328099Y-4855499D01*
X313100Y-4850500D01*
X303100Y-4840500D01*
X298099Y-4830500D01*
X298099Y-4815499D01*
X303100Y-4805499D01*
X313100Y-4795499D01*
X353100Y-4702500D02*
G01*
X363100Y-4712500D01*
X368099Y-4722500D01*
X368099Y-4737498D01*
X363100Y-4747498D01*
X353100Y-4757498D01*
X338099Y-4762500D01*
X328099Y-4762500D01*
X313100Y-4757498D01*
X303100Y-4747498D01*
X298099Y-4737498D01*
X298099Y-4722500D01*
X303100Y-4712500D01*
X313100Y-4702500D01*
X403100Y-4669500D02*
G01*
X298099Y-4669500D01*
X368099Y-4619500D02*
G01*
X318099Y-4669500D01*
X338099Y-4649500D02*
G01*
X298099Y-4614499D01*
X368099Y-4521499D02*
G01*
X298099Y-4521499D01*
X353100Y-4521499D02*
G01*
X363100Y-4531499D01*
X368099Y-4541499D01*
X368099Y-4556500D01*
X363100Y-4566500D01*
X353100Y-4576500D01*
X338099Y-4581499D01*
X328099Y-4581499D01*
X313100Y-4576500D01*
X303100Y-4566500D01*
X298099Y-4556500D01*
X298099Y-4541499D01*
X303100Y-4531499D01*
X313100Y-4521499D01*
X403100Y-4488500D02*
G01*
X298099Y-4488500D01*
X353100Y-4488500D02*
G01*
X363100Y-4478500D01*
X368099Y-4468500D01*
X368099Y-4453498D01*
X363100Y-4443498D01*
X353100Y-4433498D01*
X338099Y-4428500D01*
X328099Y-4428500D01*
X313100Y-4433498D01*
X303100Y-4443498D01*
X298099Y-4453498D01*
X298099Y-4468500D01*
X303100Y-4478500D01*
X313100Y-4488500D01*
X403100Y-4395500D02*
G01*
X298099Y-4395500D01*
X338099Y-4362500D02*
G01*
X338099Y-4302500D01*
X348099Y-4302500D01*
X358099Y-4307499D01*
X363100Y-4312500D01*
X368099Y-4322500D01*
X368099Y-4337499D01*
X363100Y-4347499D01*
X353100Y-4357499D01*
X338099Y-4362500D01*
X328099Y-4362500D01*
X313100Y-4357499D01*
X303100Y-4347499D01*
X298099Y-4337499D01*
X298099Y-4322500D01*
X303100Y-4312500D01*
X313100Y-4302500D01*
X403100Y-4192501D02*
G01*
X298099Y-4192501D01*
X348099Y-4192501D02*
G01*
X363100Y-4177499D01*
X368099Y-4167499D01*
X368099Y-4152501D01*
X363100Y-4142501D01*
X348099Y-4137499D01*
X298099Y-4137499D01*
X338099Y-4104500D02*
G01*
X338099Y-4044500D01*
X348099Y-4044500D01*
X358099Y-4049499D01*
X363100Y-4054500D01*
X368099Y-4064500D01*
X368099Y-4079499D01*
X363100Y-4089499D01*
X353100Y-4099499D01*
X338099Y-4104500D01*
X328099Y-4104500D01*
X313100Y-4099499D01*
X303100Y-4089499D01*
X298099Y-4079499D01*
X298099Y-4064500D01*
X303100Y-4054500D01*
X313100Y-4044500D01*
X368099Y-3951500D02*
G01*
X298099Y-3951500D01*
X353100Y-3951500D02*
G01*
X363100Y-3961500D01*
X368099Y-3971500D01*
X368099Y-3986499D01*
X363100Y-3996499D01*
X353100Y-4006499D01*
X338099Y-4011500D01*
X328099Y-4011500D01*
X313100Y-4006499D01*
X303100Y-3996499D01*
X298099Y-3986499D01*
X298099Y-3971500D01*
X303100Y-3961500D01*
X313100Y-3951500D01*
X403100Y-3858498D02*
G01*
X298099Y-3858498D01*
X353100Y-3858498D02*
G01*
X363100Y-3868498D01*
X368099Y-3878501D01*
X368099Y-3893499D01*
X363100Y-3903499D01*
X353100Y-3913499D01*
X338099Y-3918501D01*
X328099Y-3918501D01*
X313100Y-3913499D01*
X303100Y-3903499D01*
X298099Y-3893499D01*
X298099Y-3878501D01*
X303100Y-3868498D01*
X313100Y-3858498D01*
X338099Y-3825499D02*
G01*
X338099Y-3765499D01*
X348099Y-3765499D01*
X358099Y-3770500D01*
X363100Y-3775499D01*
X368099Y-3785499D01*
X368099Y-3800500D01*
X363100Y-3810500D01*
X353100Y-3820500D01*
X338099Y-3825499D01*
X328099Y-3825499D01*
X313100Y-3820500D01*
X303100Y-3810500D01*
X298099Y-3800500D01*
X298099Y-3785499D01*
X303100Y-3775499D01*
X313100Y-3765499D01*
X368099Y-3732499D02*
G01*
X298099Y-3732499D01*
X338099Y-3732499D02*
G01*
X353100Y-3727500D01*
X363100Y-3717500D01*
X368099Y-3707500D01*
X368099Y-3692499D01*
X353100Y-3604498D02*
G01*
X363100Y-3609500D01*
X368099Y-3624501D01*
X368099Y-3639499D01*
X363100Y-3654501D01*
X353100Y-3659499D01*
X343100Y-3654501D01*
X338099Y-3644501D01*
X333100Y-3619500D01*
X328099Y-3609500D01*
X318099Y-3604498D01*
X313100Y-3604498D01*
X303100Y-3609500D01*
X298099Y-3624501D01*
X298099Y-3639499D01*
X303100Y-3654501D01*
X313100Y-3659499D01*
X403100Y-3479500D02*
G01*
X318099Y-3479500D01*
X303100Y-3474499D01*
X298099Y-3464499D01*
X298099Y-3454499D01*
X368099Y-3494498D02*
G01*
X368099Y-3459500D01*
X403100Y-3421499D02*
G01*
X298099Y-3421499D01*
X348099Y-3421499D02*
G01*
X363100Y-3406500D01*
X368099Y-3396500D01*
X368099Y-3381499D01*
X363100Y-3371499D01*
X348099Y-3366500D01*
X298099Y-3366500D01*
X403100Y-3333501D02*
G01*
X398099Y-3328499D01*
X403100Y-3323501D01*
X408099Y-3328499D01*
X403100Y-3333501D01*
X368099Y-3328499D02*
G01*
X298099Y-3328499D01*
X353100Y-3235500D02*
G01*
X363100Y-3240498D01*
X368099Y-3255500D01*
X368099Y-3270498D01*
X363100Y-3285500D01*
X353100Y-3290498D01*
X343100Y-3285500D01*
X338099Y-3275500D01*
X333100Y-3250498D01*
X328099Y-3240498D01*
X318099Y-3235500D01*
X313100Y-3235500D01*
X303100Y-3240498D01*
X298099Y-3255500D01*
X298099Y-3270498D01*
X303100Y-3285500D01*
X313100Y-3290498D01*
X353100Y-3070499D02*
G01*
X363100Y-3075500D01*
X368099Y-3090499D01*
X368099Y-3105500D01*
X363100Y-3120499D01*
X353100Y-3125500D01*
X343100Y-3120499D01*
X338099Y-3110499D01*
X333100Y-3085500D01*
X328099Y-3075500D01*
X318099Y-3070499D01*
X313100Y-3070499D01*
X303100Y-3075500D01*
X298099Y-3090499D01*
X298099Y-3105500D01*
X303100Y-3120499D01*
X313100Y-3125500D01*
X403100Y-3037499D02*
G01*
X398099Y-3032500D01*
X403100Y-3027499D01*
X408099Y-3032500D01*
X403100Y-3037499D01*
X368099Y-3032500D02*
G01*
X298099Y-3032500D01*
X403100Y-2934500D02*
G01*
X298099Y-2934500D01*
X353100Y-2934500D02*
G01*
X363100Y-2944500D01*
X368099Y-2954500D01*
X368099Y-2969498D01*
X363100Y-2979498D01*
X353100Y-2989501D01*
X338099Y-2994499D01*
X328099Y-2994499D01*
X313100Y-2989501D01*
X303100Y-2979498D01*
X298099Y-2969498D01*
X298099Y-2954500D01*
X303100Y-2944500D01*
X313100Y-2934500D01*
X338099Y-2901500D02*
G01*
X338099Y-2841500D01*
X348099Y-2841500D01*
X358099Y-2846499D01*
X363100Y-2851500D01*
X368099Y-2861500D01*
X368099Y-2876499D01*
X363100Y-2886499D01*
X353100Y-2896499D01*
X338099Y-2901500D01*
X328099Y-2901500D01*
X313100Y-2896499D01*
X303100Y-2886499D01*
X298099Y-2876499D01*
X298099Y-2861500D01*
X303100Y-2851500D01*
X313100Y-2841500D01*
X1445300Y-4961498D02*
G01*
X1455300Y-4966500D01*
X1460299Y-4981498D01*
X1460299Y-4996500D01*
X1455300Y-5011498D01*
X1445300Y-5016500D01*
X1435300Y-5011498D01*
X1430299Y-5001498D01*
X1425300Y-4976500D01*
X1420299Y-4966500D01*
X1410299Y-4961498D01*
X1405300Y-4961498D01*
X1395300Y-4966500D01*
X1390299Y-4981498D01*
X1390299Y-4996500D01*
X1395300Y-5011498D01*
X1405300Y-5016500D01*
X1495300Y-4913500D02*
G01*
X1410299Y-4913500D01*
X1395300Y-4908499D01*
X1390299Y-4898499D01*
X1390299Y-4888499D01*
X1460299Y-4928499D02*
G01*
X1460299Y-4893500D01*
X1460299Y-4795499D02*
G01*
X1390299Y-4795499D01*
X1445300Y-4795499D02*
G01*
X1455300Y-4805499D01*
X1460299Y-4815499D01*
X1460299Y-4830500D01*
X1455300Y-4840500D01*
X1445300Y-4850500D01*
X1430299Y-4855499D01*
X1420299Y-4855499D01*
X1405300Y-4850500D01*
X1395300Y-4840500D01*
X1390299Y-4830500D01*
X1390299Y-4815499D01*
X1395300Y-4805499D01*
X1405300Y-4795499D01*
X1445300Y-4702500D02*
G01*
X1455300Y-4712500D01*
X1460299Y-4722500D01*
X1460299Y-4737498D01*
X1455300Y-4747498D01*
X1445300Y-4757498D01*
X1430299Y-4762500D01*
X1420299Y-4762500D01*
X1405300Y-4757498D01*
X1395300Y-4747498D01*
X1390299Y-4737498D01*
X1390299Y-4722500D01*
X1395300Y-4712500D01*
X1405300Y-4702500D01*
X1495300Y-4669500D02*
G01*
X1390299Y-4669500D01*
X1460299Y-4619500D02*
G01*
X1410299Y-4669500D01*
X1430299Y-4649500D02*
G01*
X1390299Y-4614499D01*
X1460299Y-4521499D02*
G01*
X1390299Y-4521499D01*
X1445300Y-4521499D02*
G01*
X1455300Y-4531499D01*
X1460299Y-4541499D01*
X1460299Y-4556500D01*
X1455300Y-4566500D01*
X1445300Y-4576500D01*
X1430299Y-4581499D01*
X1420299Y-4581499D01*
X1405300Y-4576500D01*
X1395300Y-4566500D01*
X1390299Y-4556500D01*
X1390299Y-4541499D01*
X1395300Y-4531499D01*
X1405300Y-4521499D01*
X1495300Y-4488500D02*
G01*
X1390299Y-4488500D01*
X1445300Y-4488500D02*
G01*
X1455300Y-4478500D01*
X1460299Y-4468500D01*
X1460299Y-4453498D01*
X1455300Y-4443498D01*
X1445300Y-4433498D01*
X1430299Y-4428500D01*
X1420299Y-4428500D01*
X1405300Y-4433498D01*
X1395300Y-4443498D01*
X1390299Y-4453498D01*
X1390299Y-4468500D01*
X1395300Y-4478500D01*
X1405300Y-4488500D01*
X1495300Y-4395500D02*
G01*
X1390299Y-4395500D01*
X1430299Y-4362500D02*
G01*
X1430299Y-4302500D01*
X1440299Y-4302500D01*
X1450299Y-4307499D01*
X1455300Y-4312500D01*
X1460299Y-4322500D01*
X1460299Y-4337499D01*
X1455300Y-4347499D01*
X1445300Y-4357499D01*
X1430299Y-4362500D01*
X1420299Y-4362500D01*
X1405300Y-4357499D01*
X1395300Y-4347499D01*
X1390299Y-4337499D01*
X1390299Y-4322500D01*
X1395300Y-4312500D01*
X1405300Y-4302500D01*
X1495300Y-4192501D02*
G01*
X1390299Y-4192501D01*
X1440299Y-4192501D02*
G01*
X1455300Y-4177499D01*
X1460299Y-4167499D01*
X1460299Y-4152501D01*
X1455300Y-4142501D01*
X1440299Y-4137499D01*
X1390299Y-4137499D01*
X1430299Y-4104500D02*
G01*
X1430299Y-4044500D01*
X1440299Y-4044500D01*
X1450299Y-4049499D01*
X1455300Y-4054500D01*
X1460299Y-4064500D01*
X1460299Y-4079499D01*
X1455300Y-4089499D01*
X1445300Y-4099499D01*
X1430299Y-4104500D01*
X1420299Y-4104500D01*
X1405300Y-4099499D01*
X1395300Y-4089499D01*
X1390299Y-4079499D01*
X1390299Y-4064500D01*
X1395300Y-4054500D01*
X1405300Y-4044500D01*
X1460299Y-3951500D02*
G01*
X1390299Y-3951500D01*
X1445300Y-3951500D02*
G01*
X1455300Y-3961500D01*
X1460299Y-3971500D01*
X1460299Y-3986499D01*
X1455300Y-3996499D01*
X1445300Y-4006499D01*
X1430299Y-4011500D01*
X1420299Y-4011500D01*
X1405300Y-4006499D01*
X1395300Y-3996499D01*
X1390299Y-3986499D01*
X1390299Y-3971500D01*
X1395300Y-3961500D01*
X1405300Y-3951500D01*
X1495300Y-3858498D02*
G01*
X1390299Y-3858498D01*
X1445300Y-3858498D02*
G01*
X1455300Y-3868498D01*
X1460299Y-3878501D01*
X1460299Y-3893499D01*
X1455300Y-3903499D01*
X1445300Y-3913499D01*
X1430299Y-3918501D01*
X1420299Y-3918501D01*
X1405300Y-3913499D01*
X1395300Y-3903499D01*
X1390299Y-3893499D01*
X1390299Y-3878501D01*
X1395300Y-3868498D01*
X1405300Y-3858498D01*
X1430299Y-3825499D02*
G01*
X1430299Y-3765499D01*
X1440299Y-3765499D01*
X1450299Y-3770500D01*
X1455300Y-3775499D01*
X1460299Y-3785499D01*
X1460299Y-3800500D01*
X1455300Y-3810500D01*
X1445300Y-3820500D01*
X1430299Y-3825499D01*
X1420299Y-3825499D01*
X1405300Y-3820500D01*
X1395300Y-3810500D01*
X1390299Y-3800500D01*
X1390299Y-3785499D01*
X1395300Y-3775499D01*
X1405300Y-3765499D01*
X1460299Y-3732499D02*
G01*
X1390299Y-3732499D01*
X1430299Y-3732499D02*
G01*
X1445300Y-3727500D01*
X1455300Y-3717500D01*
X1460299Y-3707500D01*
X1460299Y-3692499D01*
X1445300Y-3604498D02*
G01*
X1455300Y-3609500D01*
X1460299Y-3624501D01*
X1460299Y-3639499D01*
X1455300Y-3654501D01*
X1445300Y-3659499D01*
X1435300Y-3654501D01*
X1430299Y-3644501D01*
X1425300Y-3619500D01*
X1420299Y-3609500D01*
X1410299Y-3604498D01*
X1405300Y-3604498D01*
X1395300Y-3609500D01*
X1390299Y-3624501D01*
X1390299Y-3639499D01*
X1395300Y-3654501D01*
X1405300Y-3659499D01*
X1495300Y-3479500D02*
G01*
X1410299Y-3479500D01*
X1395300Y-3474499D01*
X1390299Y-3464499D01*
X1390299Y-3454499D01*
X1460299Y-3494498D02*
G01*
X1460299Y-3459500D01*
X1495300Y-3421499D02*
G01*
X1390299Y-3421499D01*
X1440299Y-3421499D02*
G01*
X1455300Y-3406500D01*
X1460299Y-3396500D01*
X1460299Y-3381499D01*
X1455300Y-3371499D01*
X1440299Y-3366500D01*
X1390299Y-3366500D01*
X1495300Y-3333501D02*
G01*
X1490299Y-3328499D01*
X1495300Y-3323501D01*
X1500299Y-3328499D01*
X1495300Y-3333501D01*
X1460299Y-3328499D02*
G01*
X1390299Y-3328499D01*
X1445300Y-3235500D02*
G01*
X1455300Y-3240498D01*
X1460299Y-3255500D01*
X1460299Y-3270498D01*
X1455300Y-3285500D01*
X1445300Y-3290498D01*
X1435300Y-3285500D01*
X1430299Y-3275500D01*
X1425300Y-3250498D01*
X1420299Y-3240498D01*
X1410299Y-3235500D01*
X1405300Y-3235500D01*
X1395300Y-3240498D01*
X1390299Y-3255500D01*
X1390299Y-3270498D01*
X1395300Y-3285500D01*
X1405300Y-3290498D01*
X1445300Y-3070499D02*
G01*
X1455300Y-3075500D01*
X1460299Y-3090499D01*
X1460299Y-3105500D01*
X1455300Y-3120499D01*
X1445300Y-3125500D01*
X1435300Y-3120499D01*
X1430299Y-3110499D01*
X1425300Y-3085500D01*
X1420299Y-3075500D01*
X1410299Y-3070499D01*
X1405300Y-3070499D01*
X1395300Y-3075500D01*
X1390299Y-3090499D01*
X1390299Y-3105500D01*
X1395300Y-3120499D01*
X1405300Y-3125500D01*
X1495300Y-3037499D02*
G01*
X1490299Y-3032500D01*
X1495300Y-3027499D01*
X1500299Y-3032500D01*
X1495300Y-3037499D01*
X1460299Y-3032500D02*
G01*
X1390299Y-3032500D01*
X1495300Y-2934500D02*
G01*
X1390299Y-2934500D01*
X1445300Y-2934500D02*
G01*
X1455300Y-2944500D01*
X1460299Y-2954500D01*
X1460299Y-2969498D01*
X1455300Y-2979498D01*
X1445300Y-2989501D01*
X1430299Y-2994499D01*
X1420299Y-2994499D01*
X1405300Y-2989501D01*
X1395300Y-2979498D01*
X1390299Y-2969498D01*
X1390299Y-2954500D01*
X1395300Y-2944500D01*
X1405300Y-2934500D01*
X1430299Y-2901500D02*
G01*
X1430299Y-2841500D01*
X1440299Y-2841500D01*
X1450299Y-2846499D01*
X1455300Y-2851500D01*
X1460299Y-2861500D01*
X1460299Y-2876499D01*
X1455300Y-2886499D01*
X1445300Y-2896499D01*
X1430299Y-2901500D01*
X1420299Y-2901500D01*
X1405300Y-2896499D01*
X1395300Y-2886499D01*
X1390299Y-2876499D01*
X1390299Y-2861500D01*
X1395300Y-2851500D01*
X1405300Y-2841500D01*
X648865Y-6722866D02*
G01*
X585424Y-6752450D01*
X621675Y-6735544D02*
G01*
X633158Y-6724672D01*
X637994Y-6711383D01*
X638299Y-6700207D01*
X631959Y-6686613D01*
X590824Y-6669384D02*
G01*
X565467Y-6615005D01*
X574530Y-6610779D01*
X585706Y-6611084D01*
X592350Y-6613504D01*
X601108Y-6620454D01*
X607448Y-6634048D01*
X607143Y-6645224D01*
X602307Y-6658513D01*
X590824Y-6669384D01*
X581761Y-6673611D01*
X566054Y-6675417D01*
X552764Y-6670581D01*
X544007Y-6663631D01*
X537667Y-6650037D01*
X537974Y-6638861D01*
X542810Y-6625572D01*
X578711Y-6572420D02*
G01*
X502589Y-6574812D01*
X553354Y-6518041D02*
G01*
X502589Y-6574812D01*
X571129Y-6473342D02*
G01*
X564484Y-6470921D01*
X566902Y-6464277D01*
X573547Y-6466697D01*
X571129Y-6473342D01*
X537293Y-6483601D02*
G01*
X473852Y-6513184D01*
X484395Y-6405653D02*
G01*
X495571Y-6405958D01*
X506442Y-6417442D01*
X512782Y-6431036D01*
X514591Y-6446743D01*
X507639Y-6455501D01*
X496463Y-6455196D01*
X487705Y-6448244D01*
X472610Y-6427701D01*
X463852Y-6420751D01*
X452676Y-6420446D01*
X448144Y-6422560D01*
X441192Y-6431315D01*
X443001Y-6447025D01*
X449341Y-6460619D01*
X460212Y-6472100D01*
X471388Y-6472405D01*
X515764Y-6354615D02*
G01*
X509120Y-6352197D01*
X511538Y-6345552D01*
X518182Y-6347970D01*
X515764Y-6354615D01*
X481931Y-6364874D02*
G01*
X418490Y-6394457D01*
X455307Y-6307777D02*
G01*
X455000Y-6318953D01*
X450164Y-6332242D01*
X438683Y-6343114D01*
X429620Y-6347340D01*
X413913Y-6349149D01*
X400624Y-6344310D01*
X391866Y-6337360D01*
X385526Y-6323766D01*
X385831Y-6312590D01*
X390667Y-6299301D01*
X402150Y-6288430D01*
X411213Y-6284203D01*
X426920Y-6282397D01*
X440209Y-6287234D01*
X448967Y-6294183D01*
X455307Y-6307777D01*
X424454Y-6241618D02*
G01*
X361015Y-6271201D01*
X406328Y-6250071D02*
G01*
X413585Y-6230137D01*
X413890Y-6218961D01*
X407550Y-6205364D01*
X398792Y-6198415D01*
X383085Y-6200223D01*
X337769Y-6221354D01*
X382219Y-6068222D02*
G01*
X358973Y-6018375D01*
X335399Y-6062469D01*
X329062Y-6048875D01*
X320304Y-6041925D01*
X313659Y-6039507D01*
X297952Y-6041313D01*
X288889Y-6045540D01*
X277406Y-6056411D01*
X272569Y-6069700D01*
X274378Y-6085408D01*
X280715Y-6099002D01*
X291586Y-6110485D01*
X298231Y-6112903D01*
X309407Y-6113208D01*
X1308100Y-54099D02*
G01*
X1308100Y-159100D01*
X1308100Y-54099D02*
G01*
X1273098Y-54099D01*
X1258100Y-59100D01*
X1248100Y-69100D01*
X1243098Y-79100D01*
X1238100Y-94099D01*
X1238100Y-119100D01*
X1243098Y-134099D01*
X1248100Y-144099D01*
X1258100Y-154099D01*
X1273098Y-159100D01*
X1308100Y-159100D01*
X1145100Y-89100D02*
G01*
X1145100Y-159100D01*
X1145100Y-104099D02*
G01*
X1155100Y-94099D01*
X1165100Y-89100D01*
X1180099Y-89100D01*
X1190099Y-94099D01*
X1200099Y-104099D01*
X1205100Y-119100D01*
X1205100Y-129100D01*
X1200099Y-144099D01*
X1190099Y-154099D01*
X1180099Y-159100D01*
X1165100Y-159100D01*
X1155100Y-154099D01*
X1145100Y-144099D01*
X1112100Y-54099D02*
G01*
X1107099Y-59100D01*
X1102100Y-54099D01*
X1107099Y-49100D01*
X1112100Y-54099D01*
X1107099Y-89100D02*
G01*
X1107099Y-159100D01*
X1014100Y-104099D02*
G01*
X1019098Y-94099D01*
X1034100Y-89100D01*
X1049098Y-89100D01*
X1064099Y-94099D01*
X1069101Y-104099D01*
X1064099Y-114099D01*
X1054100Y-119100D01*
X1029098Y-124099D01*
X1019098Y-129100D01*
X1014100Y-139100D01*
X1014100Y-144099D01*
X1019098Y-154099D01*
X1034100Y-159100D01*
X1049098Y-159100D01*
X1064099Y-154099D01*
X1069101Y-144099D01*
X976099Y-89100D02*
G01*
X946099Y-159100D01*
X916099Y-89100D02*
G01*
X946099Y-159100D01*
X956099Y-179100D01*
X966099Y-189100D01*
X976099Y-194099D01*
X981100Y-194099D01*
X736099Y-69100D02*
G01*
X746099Y-59100D01*
X761100Y-54099D01*
X781100Y-54099D01*
X796099Y-59100D01*
X806099Y-69100D01*
X806099Y-79100D01*
X801100Y-89100D01*
X796099Y-94099D01*
X786099Y-99100D01*
X756099Y-109100D01*
X746099Y-114099D01*
X741100Y-119100D01*
X736099Y-129100D01*
X736099Y-144099D01*
X746099Y-154099D01*
X761100Y-159100D01*
X781100Y-159100D01*
X796099Y-154099D01*
X806099Y-144099D01*
X703099Y-119100D02*
G01*
X643100Y-119100D01*
X643100Y-109100D01*
X648098Y-99100D01*
X653100Y-94099D01*
X663100Y-89100D01*
X678101Y-89100D01*
X688101Y-94099D01*
X698101Y-104099D01*
X703099Y-119100D01*
X703099Y-129100D01*
X698101Y-144099D01*
X688101Y-154099D01*
X678101Y-159100D01*
X663100Y-159100D01*
X653100Y-154099D01*
X643100Y-144099D01*
X610100Y-119100D02*
G01*
X550100Y-119100D01*
X550100Y-109100D01*
X555099Y-99100D01*
X560100Y-94099D01*
X570100Y-89100D01*
X585099Y-89100D01*
X595099Y-94099D01*
X605099Y-104099D01*
X610100Y-119100D01*
X610100Y-129100D01*
X605099Y-144099D01*
X595099Y-154099D01*
X585099Y-159100D01*
X570100Y-159100D01*
X560100Y-154099D01*
X550100Y-144099D01*
X457100Y-54099D02*
G01*
X457100Y-159100D01*
X457100Y-104099D02*
G01*
X467100Y-94099D01*
X477100Y-89100D01*
X492099Y-89100D01*
X502099Y-94099D01*
X512099Y-104099D01*
X517100Y-119100D01*
X517100Y-129100D01*
X512099Y-144099D01*
X502099Y-154099D01*
X492099Y-159100D01*
X477100Y-159100D01*
X467100Y-154099D01*
X457100Y-144099D01*
D33*
X1173634Y-6369260D02*
G01*
X1173634Y-6427442D01*
X1177269Y-6438351D01*
X1180906Y-6441986D01*
X1188178Y-6445623D01*
X1195451Y-6445623D01*
X1202725Y-6441986D01*
X1206360Y-6438351D01*
X1209997Y-6427442D01*
X1209997Y-6420170D01*
X1145997Y-6387442D02*
G01*
X1145997Y-6383804D01*
X1142362Y-6376532D01*
X1138725Y-6372895D01*
X1131453Y-6369260D01*
X1116906Y-6369260D01*
X1109634Y-6372895D01*
X1105997Y-6376532D01*
X1102360Y-6383804D01*
X1102360Y-6391076D01*
X1105997Y-6398351D01*
X1113269Y-6409260D01*
X1149634Y-6445623D01*
X1098725Y-6445623D01*
X945448Y-7562438D02*
G01*
X949086Y-7555166D01*
X956358Y-7547891D01*
X963632Y-7544257D01*
X978176Y-7544257D01*
X985448Y-7547891D01*
X992723Y-7555166D01*
X996358Y-7562438D01*
X999995Y-7573347D01*
X999995Y-7591529D01*
X996358Y-7602438D01*
X992723Y-7609710D01*
X985448Y-7616982D01*
X978176Y-7620619D01*
X963632Y-7620619D01*
X956358Y-7616982D01*
X949086Y-7609710D01*
X945448Y-7602438D01*
X874176Y-7569710D02*
G01*
X877813Y-7580619D01*
X885085Y-7587891D01*
X895995Y-7591529D01*
X899632Y-7591529D01*
X910541Y-7587891D01*
X917813Y-7580619D01*
X921451Y-7569710D01*
X921451Y-7566073D01*
X917813Y-7555166D01*
X910541Y-7547891D01*
X899632Y-7544257D01*
X895995Y-7544257D01*
X885085Y-7547891D01*
X877813Y-7555166D01*
X874176Y-7569710D01*
X874176Y-7587891D01*
X877813Y-7606073D01*
X885085Y-7616982D01*
X895995Y-7620619D01*
X903267Y-7620619D01*
X914176Y-7616982D01*
X917813Y-7609710D01*
X1695348Y-9667206D02*
G01*
X1698985Y-9659934D01*
X1706257Y-9652660D01*
X1713532Y-9649025D01*
X1728076Y-9649025D01*
X1735348Y-9652660D01*
X1742622Y-9659934D01*
X1746257Y-9667206D01*
X1749894Y-9678116D01*
X1749894Y-9696297D01*
X1746257Y-9707206D01*
X1742622Y-9714478D01*
X1735348Y-9721750D01*
X1728076Y-9725388D01*
X1713532Y-9725388D01*
X1706257Y-9721750D01*
X1698985Y-9714478D01*
X1695348Y-9707206D01*
X1671350Y-9663569D02*
G01*
X1664075Y-9659934D01*
X1653166Y-9649025D01*
X1653166Y-9725388D01*
X1610984Y-9649025D02*
G01*
X1621894Y-9652660D01*
X1625531Y-9659934D01*
X1625531Y-9667206D01*
X1621894Y-9674479D01*
X1614622Y-9678116D01*
X1600075Y-9681751D01*
X1589168Y-9685388D01*
X1581894Y-9692660D01*
X1578259Y-9699934D01*
X1578259Y-9710841D01*
X1581894Y-9718116D01*
X1585531Y-9721750D01*
X1596440Y-9725388D01*
X1610984Y-9725388D01*
X1621894Y-9721750D01*
X1625531Y-9718116D01*
X1629168Y-9710841D01*
X1629168Y-9699934D01*
X1625531Y-9692660D01*
X1618259Y-9685388D01*
X1607350Y-9681751D01*
X1592803Y-9678116D01*
X1585531Y-9674479D01*
X1581894Y-9667206D01*
X1581894Y-9659934D01*
X1585531Y-9652660D01*
X1596440Y-9649025D01*
X1610984Y-9649025D01*
X435000Y-2239680D02*
G01*
X435000Y-2348646D01*
X362356Y-2239680D02*
G01*
X362356Y-2348646D01*
X435000Y-2291496D02*
G01*
X362356Y-2291496D01*
X328066Y-2260508D02*
G01*
X317652Y-2255174D01*
X301904Y-2239680D01*
X301904Y-2348646D01*
X1479997Y-2229680D02*
G01*
X1479997Y-2338646D01*
X1407353Y-2229680D02*
G01*
X1407353Y-2338646D01*
X1479997Y-2281496D02*
G01*
X1407353Y-2281496D01*
X1367729Y-2255588D02*
G01*
X1367729Y-2250508D01*
X1362649Y-2240094D01*
X1357315Y-2234760D01*
X1346901Y-2229680D01*
X1326327Y-2229680D01*
X1315913Y-2234760D01*
X1310579Y-2240094D01*
X1305499Y-2250508D01*
X1305499Y-2260922D01*
X1310579Y-2271336D01*
X1320993Y-2286830D01*
X1373063Y-2338646D01*
X1300165Y-2338646D01*
X495541Y-7712664D02*
G01*
X495541Y-7785392D01*
X500085Y-7799026D01*
X504631Y-7803573D01*
X513722Y-7808120D01*
X522813Y-7808120D01*
X531903Y-7803573D01*
X536447Y-7799026D01*
X540994Y-7785392D01*
X540994Y-7776301D01*
X465538Y-7730845D02*
G01*
X456448Y-7726301D01*
X442813Y-7712664D01*
X442813Y-7808120D01*
X1122408Y-8914432D02*
G01*
X1122408Y-8968976D01*
X1118770Y-8979885D01*
X1111498Y-8987157D01*
X1100589Y-8990794D01*
X1093317Y-8990794D01*
X1082408Y-8987157D01*
X1075136Y-8979885D01*
X1071498Y-8968976D01*
X1071498Y-8914432D01*
X1040226Y-8914432D02*
G01*
X1000226Y-8914432D01*
X1022045Y-8943522D01*
X1011135Y-8943522D01*
X1003863Y-8947157D01*
X1000226Y-8950794D01*
X996589Y-8961704D01*
X996589Y-8968976D01*
X1000226Y-8979885D01*
X1007498Y-8987157D01*
X1018407Y-8990794D01*
X1029317Y-8990794D01*
X1040226Y-8987157D01*
X1043863Y-8983522D01*
X1047498Y-8976248D01*
G36*
X1049985Y-8154974D02*
G01*
X1063955Y-8167725D01*
X1078484Y-8179866D01*
X1093520Y-8191347D01*
X1109065Y-8202168D01*
X1125016Y-8212277D01*
X1141425Y-8221725D01*
X1158189Y-8230412D01*
X1175359Y-8238388D01*
X1192834Y-8245602D01*
X1210614Y-8252053D01*
X1228648Y-8257743D01*
X1246936Y-8262620D01*
X1265428Y-8266684D01*
X1284020Y-8269935D01*
X1302816Y-8272424D01*
X1321663Y-8274050D01*
X1340561Y-8274862D01*
X1359458Y-8274862D01*
X1378356Y-8274050D01*
X1397203Y-8272424D01*
X1406601Y-8271306D01*
X1425295Y-8268411D01*
X1443837Y-8264753D01*
X1462227Y-8260283D01*
X1480362Y-8255000D01*
X1498295Y-8248903D01*
X1515922Y-8242096D01*
X1533245Y-8234476D01*
X1550212Y-8226145D01*
X1566824Y-8217103D01*
X1583029Y-8207298D01*
X1598777Y-8196834D01*
X1614068Y-8185658D01*
X1628851Y-8173872D01*
X1643075Y-8161426D01*
X1649984Y-8154974D01*
G37*
G36*
X1354988Y-9704984D02*
G01*
X1336090Y-9705390D01*
X1317193Y-9706610D01*
X1298397Y-9708692D01*
X1279702Y-9711537D01*
X1270406Y-9713264D01*
X1251966Y-9717379D01*
X1233678Y-9722256D01*
X1215644Y-9727895D01*
X1197864Y-9734346D01*
X1180338Y-9741560D01*
X1163218Y-9749536D01*
X1146403Y-9758273D01*
X1129995Y-9767671D01*
X1114044Y-9777831D01*
X1106220Y-9783114D01*
X1090930Y-9794290D01*
X1076147Y-9806076D01*
X1061923Y-9818522D01*
X1055014Y-9824974D01*
X1655013Y-9824974D01*
X1641043Y-9812223D01*
X1626514Y-9800132D01*
X1611477Y-9788652D01*
X1603756Y-9783114D01*
X1588008Y-9772650D01*
X1571853Y-9762896D01*
X1555242Y-9753803D01*
X1538274Y-9745472D01*
X1520952Y-9737852D01*
X1503273Y-9731044D01*
X1494383Y-9727895D01*
X1476349Y-9722256D01*
X1458061Y-9717379D01*
X1439570Y-9713264D01*
X1420926Y-9710013D01*
X1402181Y-9707524D01*
X1383334Y-9705898D01*
X1364437Y-9705086D01*
G37*
D10*
X1521968Y-6606031D02*
G01*
X1519681Y-6098031D01*
X698500Y-5092700D02*
G01*
X698500Y-5143500D01*
X1092454Y-5143245D01*
X1092454Y-5080000D01*
X266700Y-5080000D02*
G01*
X1524000Y-5080000D01*
D32*
X1773996Y-6605988D02*
G01*
X1265996Y-6605988D01*
X1265996Y-5843988D01*
X1773996Y-5843988D01*
X1773996Y-6605988D01*
X1773996Y-6119147D01*
X1519755Y-5843988D02*
G01*
X1519755Y-6097988D01*
X1773996Y-6097988D01*
D10*
X1276337Y-7598305D02*
G01*
X1141717Y-7598305D01*
X1207757Y-7661805D02*
G01*
X1207757Y-7537345D01*
X1428658Y-10381663D02*
G01*
X1563278Y-10381663D01*
X1497238Y-10318163D02*
G01*
X1497238Y-10442623D01*
D32*
X254000Y0D02*
G01*
X266700Y0D01*
X266700Y-5080000D01*
X0Y-5080000D01*
X0Y0D01*
X254000Y0D01*
X1778000Y0D02*
G01*
X1790700Y0D01*
X1790700Y-5080000D01*
X1524000Y-5080000D01*
X1524000Y0D01*
X1778000Y0D01*
D34*
X35560Y-10641584D02*
G01*
X929639Y-10641584D01*
X929639Y-7849615D01*
X35560Y-7849615D01*
X35560Y-10641584D01*
X35560Y-9468104D02*
G01*
X165607Y-9468104D01*
X165607Y-10521695D01*
X799592Y-10521695D01*
X799592Y-7969504D01*
X165607Y-7969504D01*
X165607Y-9023095D01*
X35560Y-9023095D01*
X929639Y-9270492D02*
G01*
X949705Y-9270492D01*
X949705Y-9220708D01*
X929639Y-9220708D01*
X939545Y-9270492D02*
G01*
X939545Y-9220708D01*
X929639Y-8141715D02*
G01*
X949705Y-8141715D01*
X949705Y-8091678D01*
X929639Y-8091678D01*
X939545Y-8141715D02*
G01*
X939545Y-8091678D01*
X929639Y-10399521D02*
G01*
X949705Y-10399521D01*
X949705Y-10349484D01*
X929639Y-10349484D01*
X939545Y-10399521D02*
G01*
X939545Y-10349484D01*
X295655Y-10354563D02*
G01*
X415544Y-10354563D01*
X355600Y-10294620D01*
X295655Y-10354563D01*
D10*
X1755000Y-8398982D02*
G01*
X1755000Y-9558746D01*
X1155001Y-9559991D02*
G01*
X1755000Y-9559991D01*
X1155001Y-8398982D02*
G01*
X1754949Y-8398982D01*
X1155001Y-8398982D02*
G01*
X1155001Y-9558746D01*
G75*
G01*
X949947Y-7880241D02*
G02*
X949947Y-7887353I399984J-3556D01*
G75*
G01*
X1755049Y-10099728D02*
G02*
X1755049Y-10092616I-399985J3556D01*
G75*
G01
X1756105Y-8440496D02*
G03X1756105Y-8440496I-34163J0D01*
G36*
X1185011Y-5834989D02*
G01*
X1785010Y-5834989D01*
X1785010Y-6229985D01*
X1185011Y-6229985D01*
G37*
M02*
