G04 Layer: BottomSolderMaskLayer*
G04 EasyEDA v6.4.19.5, 2021-06-09T13:24:33+02:00*
G04 4d0a35ba0e1948c19c820806b4e2a2d6,fb9c11b3819f4bbabdc06984e21ef5f2,10*
G04 Gerber Generator version 0.2*
G04 Scale: 100 percent, Rotated: No, Reflected: No *
G04 Dimensions in millimeters *
G04 leading zeros omitted , absolute positions ,4 integer and 5 decimal *
%FSLAX45Y45*%
%MOMM*%

%ADD38C,2.0032*%
%ADD46C,1.8032*%
%ADD48C,1.9032*%
%ADD50C,1.7272*%

%LPD*%
G36*
X27939Y-10895076D02*
G01*
X27939Y-10694924D01*
X228092Y-10694924D01*
X228092Y-10895076D01*
G37*
D38*
G01*
X381990Y-10794974D03*
G01*
X635990Y-10794974D03*
G01*
X889990Y-10794974D03*
G01*
X1143990Y-10794974D03*
G01*
X1397990Y-10794974D03*
G01*
X1651990Y-10794974D03*
G01*
X1393012Y-6479006D03*
G01*
X1647012Y-6479006D03*
G01*
X1393012Y-6225006D03*
G01*
X1647012Y-6225006D03*
G01*
X1393012Y-5971006D03*
G36*
X1546860Y-6071107D02*
G01*
X1546860Y-5870955D01*
X1747265Y-5870955D01*
X1747265Y-6071107D01*
G37*
G01*
X1651000Y-5727700D03*
G36*
X1550923Y-5573776D02*
G01*
X1550923Y-5373623D01*
X1751076Y-5373623D01*
X1751076Y-5573776D01*
G37*
D46*
G01*
X1350010Y-8055000D03*
G01*
X1350010Y-7704988D03*
G01*
X1354988Y-9924973D03*
G01*
X1354988Y-10274985D03*
D38*
G01*
X127000Y-127000D03*
G01*
X127000Y-381000D03*
G01*
X127000Y-635000D03*
G01*
X127000Y-889000D03*
G01*
X127000Y-1143000D03*
G01*
X127000Y-1397000D03*
G01*
X127000Y-1651000D03*
G01*
X127000Y-1905000D03*
G01*
X127000Y-2159000D03*
G01*
X127000Y-2413000D03*
G01*
X127000Y-2667000D03*
G01*
X127000Y-2921000D03*
G01*
X127000Y-3175000D03*
G01*
X127000Y-3429000D03*
G01*
X127000Y-3683000D03*
G01*
X127000Y-3937000D03*
G01*
X127000Y-4191000D03*
G01*
X127000Y-4445000D03*
G01*
X127000Y-4699000D03*
G36*
X26923Y-5053076D02*
G01*
X26923Y-4852923D01*
X227076Y-4852923D01*
X227076Y-5053076D01*
G37*
G01*
X1651000Y-127000D03*
G01*
X1651000Y-381000D03*
G01*
X1651000Y-635000D03*
G01*
X1651000Y-889000D03*
G01*
X1651000Y-1143000D03*
G01*
X1651000Y-1397000D03*
G01*
X1651000Y-1651000D03*
G01*
X1651000Y-1905000D03*
G01*
X1651000Y-2159000D03*
G01*
X1651000Y-2413000D03*
G01*
X1651000Y-2667000D03*
G01*
X1651000Y-2921000D03*
G01*
X1651000Y-3175000D03*
G01*
X1651000Y-3429000D03*
G01*
X1651000Y-3683000D03*
G01*
X1651000Y-3937000D03*
G01*
X1651000Y-4191000D03*
G01*
X1651000Y-4445000D03*
G01*
X1651000Y-4699000D03*
G36*
X1550923Y-5053076D02*
G01*
X1550923Y-4852923D01*
X1751076Y-4852923D01*
X1751076Y-5053076D01*
G37*
G36*
X260350Y-10229850D02*
G01*
X260350Y-10039350D01*
X450850Y-10039350D01*
X450850Y-10229850D01*
G37*
D48*
G01*
X609600Y-10134600D03*
G01*
X355600Y-9880600D03*
G01*
X609600Y-9880600D03*
G01*
X355600Y-9626600D03*
G01*
X609600Y-9626600D03*
G01*
X355600Y-9372600D03*
G01*
X609600Y-9372600D03*
G01*
X355600Y-9118600D03*
G01*
X609600Y-9118600D03*
G01*
X355600Y-8864600D03*
G01*
X609600Y-8864600D03*
G01*
X355600Y-8610600D03*
G01*
X609600Y-8610600D03*
G01*
X355600Y-8356600D03*
G01*
X609600Y-8356600D03*
G36*
X1563623Y-8685276D02*
G01*
X1563623Y-8512555D01*
X1736344Y-8512555D01*
X1736344Y-8685276D01*
G37*
D50*
G01*
X1650009Y-8852992D03*
G01*
X1650009Y-9106992D03*
G01*
X1650009Y-9360992D03*
M02*
