M48
METRIC,LZ,000.000
;FILE_FORMAT=3:3
;TYPE=PLATED
;Layer: Drill PTH
;EasyEDA v6.4.19.5, 2021-06-09T13:24:33+02:00
;4d0a35ba0e1948c19c820806b4e2a2d6,fb9c11b3819f4bbabdc06984e21ef5f2,10
;Gerber Generator version 0.2
;Holesize 1 = 0.305 mm
T01C0.305
;Holesize 2 = 0.915 mm
T02C0.915
;Holesize 3 = 1.000 mm
T03C1.000
;Holesize 4 = 1.050 mm
T04C1.050
;Holesize 5 = 1.200 mm
T05C1.200
%
G05
G90
T01
X005550Y-057250
X007200Y-053550
X010650Y-057700
X011350Y-058150
X008750Y-055750
X010250Y-055750
X008763Y-008880
X007300Y-008900
X010450Y-008900
X010450Y-007600
X007350Y-007600
X002370Y-004910
X013120Y-009144
X013208Y-004953
X010580Y-013581
X007239Y-013589
X007200Y-017864
X010541Y-017907
X008763Y-011521
X007239Y-011430
X008763Y-019966
X010541Y-019939
X007300Y-023900
X008763Y-023865
X007350Y-022600
X010450Y-023900
X010450Y-022600
X010541Y-015748
X007200Y-015750
X004064Y-012319
X008763Y-026745
X007239Y-026670
X010580Y-028669
X007239Y-028702
X008763Y-030875
X010541Y-030861
X008763Y-038419
X010668Y-038354
X007239Y-038354
X007350Y-040950
X011430Y-030861
X007239Y-030861
X013500Y-019050
X014100Y-013350
X014100Y-032600
X014859Y-006858
X004500Y-014650
X007200Y-046850
X012050Y-047050
X002950Y-034700
X004699Y-029718
X015113Y-016764
X012300Y-038750
X003000Y-106450
X003550Y-105800
X013950Y-106600
X011400Y-106100
X004050Y-104400
X006450Y-105550
X007800Y-089700
X009800Y-090100
X010350Y-092200
X007200Y-047650
X003200Y-002050
X011392Y-000889
X007200Y-002873
X010550Y-002873
X013700Y-050800
X013650Y-048300
X012900Y-050800
X012900Y-048300
X012050Y-050800
X012050Y-048300
X009750Y-048250
X009750Y-050800
X008750Y-007620
X008763Y-022585
X008763Y-049530
X007000Y-049530
X003050Y-049550
X005100Y-036750
X010350Y-040950
X008100Y-093050
X011800Y-092100
X015400Y-084800
X012300Y-088550
X007800Y-077050
X008763Y-081361
T02
X016500Y-085990
X016500Y-088530
X016500Y-091070
X016500Y-093610
T03
X013500Y-080550
X013500Y-077050
X013550Y-099250
X013550Y-102750
X003556Y-101343G85X003556Y-101349
X006096Y-101343G85X006096Y-101349
X003556Y-098803G85X003556Y-098809
X006096Y-098803G85X006096Y-098809
X003556Y-096263G85X003556Y-096269
X006096Y-096263G85X006096Y-096269
X003556Y-093723G85X003556Y-093729
X006096Y-093723G85X006096Y-093729
X003556Y-091183G85X003556Y-091189
X006096Y-091183G85X006096Y-091189
X003556Y-088643G85X003556Y-088649
X006096Y-088643G85X006096Y-088649
X003556Y-086109G85X003556Y-086103
X006096Y-086109G85X006096Y-086103
X003556Y-083569G85X003556Y-083563
X006096Y-083569G85X006096Y-083563
T04
X013930Y-064790
X016470Y-064790
X013930Y-062250
X016470Y-062250
X013930Y-059710
X016470Y-059710
T05
X001280Y-107950
X003820Y-107950
X006360Y-107950
X008900Y-107950
X011440Y-107950
X013980Y-107950
X016520Y-107950
X016510Y-057277
X016510Y-054737
X001270Y-001270
X001270Y-003810
X001270Y-006350
X001270Y-008890
X001270Y-011430
X001270Y-013970
X001270Y-016510
X001270Y-019050
X001270Y-021590
X001270Y-024130
X001270Y-026670
X001270Y-029210
X001270Y-031750
X001270Y-034290
X001270Y-036830
X001270Y-039370
X001270Y-041910
X001270Y-044450
X001270Y-046990
X001270Y-049530
X016510Y-001270
X016510Y-003810
X016510Y-006350
X016510Y-008890
X016510Y-011430
X016510Y-013970
X016510Y-016510
X016510Y-019050
X016510Y-021590
X016510Y-024130
X016510Y-026670
X016510Y-029210
X016510Y-031750
X016510Y-034290
X016510Y-036830
X016510Y-039370
X016510Y-041910
X016510Y-044450
X016510Y-046990
X016510Y-049530
M30
