G04 Layer: TopSilkLayer*
G04 EasyEDA v6.4.19.5, 2021-06-09T13:24:33+02:00*
G04 4d0a35ba0e1948c19c820806b4e2a2d6,fb9c11b3819f4bbabdc06984e21ef5f2,10*
G04 Gerber Generator version 0.2*
G04 Scale: 100 percent, Rotated: No, Reflected: No *
G04 Dimensions in millimeters *
G04 leading zeros omitted , absolute positions ,4 integer and 5 decimal *
%FSLAX45Y45*%
%MOMM*%

%ADD10C,0.2540*%
%ADD30C,0.1530*%
%ADD31C,0.4000*%
%ADD32C,0.2032*%
%ADD33C,0.1524*%

%LPD*%
D32*
X80103Y-10523931D02*
G01*
X80103Y-10629087D01*
X45051Y-10523931D02*
G01*
X114901Y-10523931D01*
X147921Y-10523931D02*
G01*
X147921Y-10629087D01*
X147921Y-10579049D02*
G01*
X162907Y-10564063D01*
X173067Y-10558983D01*
X188053Y-10558983D01*
X197959Y-10564063D01*
X203039Y-10579049D01*
X203039Y-10629087D01*
X236059Y-10523931D02*
G01*
X240885Y-10529011D01*
X245965Y-10523931D01*
X240885Y-10519105D01*
X236059Y-10523931D01*
X240885Y-10558983D02*
G01*
X240885Y-10629087D01*
X334103Y-10573969D02*
G01*
X329023Y-10564063D01*
X314037Y-10558983D01*
X299051Y-10558983D01*
X284065Y-10564063D01*
X278985Y-10573969D01*
X284065Y-10583875D01*
X293971Y-10588955D01*
X319117Y-10594035D01*
X329023Y-10598861D01*
X334103Y-10609021D01*
X334103Y-10614101D01*
X329023Y-10624007D01*
X314037Y-10629087D01*
X299051Y-10629087D01*
X284065Y-10624007D01*
X278985Y-10614101D01*
X513935Y-10538917D02*
G01*
X504029Y-10529011D01*
X489043Y-10523931D01*
X468977Y-10523931D01*
X453991Y-10529011D01*
X444085Y-10538917D01*
X444085Y-10549077D01*
X448911Y-10558983D01*
X453991Y-10564063D01*
X463897Y-10568889D01*
X494123Y-10579049D01*
X504029Y-10583875D01*
X509109Y-10588955D01*
X513935Y-10598861D01*
X513935Y-10614101D01*
X504029Y-10624007D01*
X489043Y-10629087D01*
X468977Y-10629087D01*
X453991Y-10624007D01*
X444085Y-10614101D01*
X546955Y-10523931D02*
G01*
X552035Y-10529011D01*
X557115Y-10523931D01*
X552035Y-10519105D01*
X546955Y-10523931D01*
X552035Y-10558983D02*
G01*
X552035Y-10629087D01*
X650079Y-10523931D02*
G01*
X650079Y-10629087D01*
X650079Y-10573969D02*
G01*
X639919Y-10564063D01*
X630013Y-10558983D01*
X615027Y-10558983D01*
X605121Y-10564063D01*
X594961Y-10573969D01*
X589881Y-10588955D01*
X589881Y-10598861D01*
X594961Y-10614101D01*
X605121Y-10624007D01*
X615027Y-10629087D01*
X630013Y-10629087D01*
X639919Y-10624007D01*
X650079Y-10614101D01*
X683099Y-10588955D02*
G01*
X743043Y-10588955D01*
X743043Y-10579049D01*
X737963Y-10568889D01*
X732883Y-10564063D01*
X722977Y-10558983D01*
X707991Y-10558983D01*
X698085Y-10564063D01*
X687925Y-10573969D01*
X683099Y-10588955D01*
X683099Y-10598861D01*
X687925Y-10614101D01*
X698085Y-10624007D01*
X707991Y-10629087D01*
X722977Y-10629087D01*
X732883Y-10624007D01*
X743043Y-10614101D01*
X630026Y-5734042D02*
G01*
X630026Y-5838944D01*
X594974Y-5734042D02*
G01*
X665078Y-5734042D01*
X698098Y-5734042D02*
G01*
X698098Y-5838944D01*
X698098Y-5788906D02*
G01*
X713087Y-5773920D01*
X722990Y-5769094D01*
X737976Y-5769094D01*
X747882Y-5773920D01*
X752962Y-5788906D01*
X752962Y-5838944D01*
X785982Y-5734042D02*
G01*
X791062Y-5738865D01*
X795888Y-5734042D01*
X791062Y-5728962D01*
X785982Y-5734042D01*
X791062Y-5769094D02*
G01*
X791065Y-5838944D01*
X884026Y-5784080D02*
G01*
X878946Y-5773920D01*
X863960Y-5769094D01*
X848974Y-5769094D01*
X833988Y-5773922D01*
X828908Y-5784080D01*
X833988Y-5793986D01*
X843894Y-5799066D01*
X869040Y-5803892D01*
X878946Y-5808972D01*
X884026Y-5818878D01*
X884026Y-5823958D01*
X878946Y-5833864D01*
X863960Y-5838944D01*
X848974Y-5838944D01*
X833988Y-5833864D01*
X828908Y-5823958D01*
X1064112Y-5749028D02*
G01*
X1053952Y-5738868D01*
X1038966Y-5734042D01*
X1018900Y-5734042D01*
X1003912Y-5738868D01*
X994008Y-5749028D01*
X994008Y-5758934D01*
X999088Y-5769094D01*
X1003914Y-5773922D01*
X1014077Y-5779000D01*
X1044046Y-5788906D01*
X1053952Y-5793986D01*
X1059032Y-5799066D01*
X1064112Y-5808972D01*
X1064112Y-5823958D01*
X1053952Y-5833864D01*
X1038966Y-5838944D01*
X1018900Y-5838944D01*
X1003914Y-5833864D01*
X994008Y-5823958D01*
X1096878Y-5734042D02*
G01*
X1101958Y-5738868D01*
X1107038Y-5734042D01*
X1101958Y-5728962D01*
X1096878Y-5734042D01*
X1101958Y-5769094D02*
G01*
X1101958Y-5838944D01*
X1200002Y-5734042D02*
G01*
X1200002Y-5838944D01*
X1200002Y-5784080D02*
G01*
X1190096Y-5773920D01*
X1179936Y-5769094D01*
X1164950Y-5769094D01*
X1155044Y-5773920D01*
X1144884Y-5784080D01*
X1140058Y-5799066D01*
X1140058Y-5808972D01*
X1144884Y-5823958D01*
X1155044Y-5833864D01*
X1164950Y-5838944D01*
X1179936Y-5838944D01*
X1190096Y-5833864D01*
X1200002Y-5823958D01*
X1233022Y-5799066D02*
G01*
X1292966Y-5799066D01*
X1292966Y-5788906D01*
X1287886Y-5779000D01*
X1283063Y-5773920D01*
X1272900Y-5769094D01*
X1257914Y-5769094D01*
X1248008Y-5773922D01*
X1238102Y-5784080D01*
X1233022Y-5799066D01*
X1233022Y-5808972D01*
X1238102Y-5823958D01*
X1248008Y-5833864D01*
X1257914Y-5838944D01*
X1272900Y-5838944D01*
X1283060Y-5833864D01*
X1292966Y-5823958D01*
X1402948Y-5749028D02*
G01*
X1482958Y-5793986D01*
X1402948Y-5838944D01*
D33*
X880110Y-10539155D02*
G01*
X880110Y-10634405D01*
X943610Y-10539155D02*
G01*
X943610Y-10634405D01*
X880110Y-10584621D02*
G01*
X943610Y-10584621D01*
X1019047Y-10539155D02*
G01*
X973581Y-10602655D01*
X1041907Y-10602655D01*
X1019047Y-10539155D02*
G01*
X1019047Y-10634405D01*
X530075Y-5089217D02*
G01*
X530075Y-5165671D01*
X530075Y-5089217D02*
G01*
X562841Y-5089217D01*
X573509Y-5092773D01*
X577319Y-5096583D01*
X580875Y-5103695D01*
X580875Y-5111061D01*
X577319Y-5118427D01*
X573509Y-5121983D01*
X562841Y-5125539D01*
X530075Y-5125539D01*
X555475Y-5125539D02*
G01*
X580875Y-5165671D01*
X608561Y-5107505D02*
G01*
X608561Y-5103695D01*
X612117Y-5096583D01*
X615927Y-5092773D01*
X623039Y-5089217D01*
X637517Y-5089217D01*
X644883Y-5092773D01*
X648439Y-5096583D01*
X652249Y-5103695D01*
X652249Y-5111061D01*
X648439Y-5118427D01*
X641327Y-5129349D01*
X605005Y-5165671D01*
X655805Y-5165671D01*
X727179Y-5114617D02*
G01*
X723369Y-5125539D01*
X716257Y-5132905D01*
X705335Y-5136461D01*
X701525Y-5136461D01*
X690603Y-5132905D01*
X683491Y-5125539D01*
X679935Y-5114617D01*
X679935Y-5111061D01*
X683491Y-5100139D01*
X690603Y-5092773D01*
X701525Y-5089217D01*
X705335Y-5089217D01*
X716257Y-5092773D01*
X723369Y-5100139D01*
X727179Y-5114617D01*
X727179Y-5132905D01*
X723369Y-5151193D01*
X716257Y-5162115D01*
X705335Y-5165671D01*
X697969Y-5165671D01*
X687047Y-5162115D01*
X683491Y-5154749D01*
X294909Y-5229171D02*
G01*
X294909Y-5305625D01*
X294909Y-5229171D02*
G01*
X320563Y-5229171D01*
X331485Y-5232981D01*
X338597Y-5240093D01*
X342153Y-5247459D01*
X345963Y-5258381D01*
X345963Y-5276415D01*
X342153Y-5287337D01*
X338597Y-5294703D01*
X331485Y-5302069D01*
X320563Y-5305625D01*
X294909Y-5305625D01*
X369839Y-5243903D02*
G01*
X377205Y-5240093D01*
X388127Y-5229171D01*
X388127Y-5305625D01*
X1394470Y-4537499D02*
G01*
X1390914Y-4530133D01*
X1383548Y-4523021D01*
X1376436Y-4519211D01*
X1361704Y-4519211D01*
X1354592Y-4523021D01*
X1347226Y-4530133D01*
X1343670Y-4537499D01*
X1340114Y-4548421D01*
X1340114Y-4566455D01*
X1343670Y-4577377D01*
X1347226Y-4584743D01*
X1354592Y-4592109D01*
X1361704Y-4595665D01*
X1376436Y-4595665D01*
X1383548Y-4592109D01*
X1390914Y-4584743D01*
X1394470Y-4577377D01*
X1422156Y-4537499D02*
G01*
X1422156Y-4533689D01*
X1425712Y-4526577D01*
X1429522Y-4523021D01*
X1436634Y-4519211D01*
X1451366Y-4519211D01*
X1458478Y-4523021D01*
X1462288Y-4526577D01*
X1465844Y-4533689D01*
X1465844Y-4541055D01*
X1462288Y-4548421D01*
X1454922Y-4559343D01*
X1418600Y-4595665D01*
X1469400Y-4595665D01*
X1493530Y-4533689D02*
G01*
X1500642Y-4530133D01*
X1511564Y-4519211D01*
X1511564Y-4595665D01*
X919916Y-9204284D02*
G01*
X919916Y-9280484D01*
X919916Y-9204284D02*
G01*
X945570Y-9204284D01*
X956238Y-9207840D01*
X963604Y-9215206D01*
X967160Y-9222318D01*
X970970Y-9233240D01*
X970970Y-9251528D01*
X967160Y-9262450D01*
X963604Y-9269816D01*
X956238Y-9276928D01*
X945570Y-9280484D01*
X919916Y-9280484D01*
X998656Y-9222318D02*
G01*
X998656Y-9218762D01*
X1002212Y-9211396D01*
X1005768Y-9207840D01*
X1013134Y-9204284D01*
X1027612Y-9204284D01*
X1034978Y-9207840D01*
X1038534Y-9211396D01*
X1042090Y-9218762D01*
X1042090Y-9226128D01*
X1038534Y-9233240D01*
X1031168Y-9244162D01*
X994846Y-9280484D01*
X1045900Y-9280484D01*
X904887Y-10139205D02*
G01*
X904887Y-10215659D01*
X904887Y-10139205D02*
G01*
X930541Y-10139205D01*
X941463Y-10143015D01*
X948575Y-10150127D01*
X952385Y-10157493D01*
X955941Y-10168415D01*
X955941Y-10186449D01*
X952385Y-10197371D01*
X948575Y-10204737D01*
X941463Y-10212103D01*
X930541Y-10215659D01*
X904887Y-10215659D01*
X987183Y-10139205D02*
G01*
X1027061Y-10139205D01*
X1005471Y-10168415D01*
X1016393Y-10168415D01*
X1023505Y-10171971D01*
X1027061Y-10175527D01*
X1030871Y-10186449D01*
X1030871Y-10193815D01*
X1027061Y-10204737D01*
X1019949Y-10212103D01*
X1009027Y-10215659D01*
X998105Y-10215659D01*
X987183Y-10212103D01*
X983627Y-10208293D01*
X979817Y-10201181D01*
X275064Y-4684219D02*
G01*
X275064Y-4760673D01*
X275064Y-4684219D02*
G01*
X307830Y-4684219D01*
X318752Y-4687775D01*
X322308Y-4691585D01*
X325864Y-4698697D01*
X325864Y-4706063D01*
X322308Y-4713429D01*
X318752Y-4716985D01*
X307830Y-4720541D01*
X275064Y-4720541D01*
X300464Y-4720541D02*
G01*
X325864Y-4760673D01*
X357106Y-4684219D02*
G01*
X397238Y-4684219D01*
X375394Y-4713429D01*
X386316Y-4713429D01*
X393428Y-4716985D01*
X397238Y-4720541D01*
X400794Y-4731463D01*
X400794Y-4738829D01*
X397238Y-4749751D01*
X389872Y-4757117D01*
X378950Y-4760673D01*
X368028Y-4760673D01*
X357106Y-4757117D01*
X353550Y-4753307D01*
X349994Y-4746195D01*
X446514Y-4684219D02*
G01*
X435846Y-4687775D01*
X428480Y-4698697D01*
X424924Y-4716985D01*
X424924Y-4727907D01*
X428480Y-4746195D01*
X435846Y-4757117D01*
X446514Y-4760673D01*
X453880Y-4760673D01*
X464802Y-4757117D01*
X472168Y-4746195D01*
X475724Y-4727907D01*
X475724Y-4716985D01*
X472168Y-4698697D01*
X464802Y-4687775D01*
X453880Y-4684219D01*
X446514Y-4684219D01*
X290065Y-4484220D02*
G01*
X290065Y-4560674D01*
X290065Y-4484220D02*
G01*
X322831Y-4484220D01*
X333753Y-4487776D01*
X337309Y-4491586D01*
X340865Y-4498698D01*
X340865Y-4506064D01*
X337309Y-4513430D01*
X333753Y-4516986D01*
X322831Y-4520542D01*
X290065Y-4520542D01*
X315465Y-4520542D02*
G01*
X340865Y-4560674D01*
X372107Y-4484220D02*
G01*
X412239Y-4484220D01*
X390395Y-4513430D01*
X401317Y-4513430D01*
X408429Y-4516986D01*
X412239Y-4520542D01*
X415795Y-4531464D01*
X415795Y-4538830D01*
X412239Y-4549752D01*
X404873Y-4557118D01*
X393951Y-4560674D01*
X383029Y-4560674D01*
X372107Y-4557118D01*
X368551Y-4553308D01*
X364995Y-4546196D01*
X439925Y-4498698D02*
G01*
X447037Y-4495142D01*
X457959Y-4484220D01*
X457959Y-4560674D01*
X280065Y-4274220D02*
G01*
X280065Y-4350674D01*
X280065Y-4274220D02*
G01*
X312831Y-4274220D01*
X323753Y-4277776D01*
X327309Y-4281586D01*
X330865Y-4288698D01*
X330865Y-4296064D01*
X327309Y-4303430D01*
X323753Y-4306986D01*
X312831Y-4310542D01*
X280065Y-4310542D01*
X305465Y-4310542D02*
G01*
X330865Y-4350674D01*
X362107Y-4274220D02*
G01*
X402239Y-4274220D01*
X380395Y-4303430D01*
X391317Y-4303430D01*
X398429Y-4306986D01*
X402239Y-4310542D01*
X405795Y-4321464D01*
X405795Y-4328830D01*
X402239Y-4339752D01*
X394873Y-4347118D01*
X383951Y-4350674D01*
X373029Y-4350674D01*
X362107Y-4347118D01*
X358551Y-4343308D01*
X354995Y-4336196D01*
X433481Y-4292508D02*
G01*
X433481Y-4288698D01*
X437037Y-4281586D01*
X440847Y-4277776D01*
X447959Y-4274220D01*
X462437Y-4274220D01*
X469803Y-4277776D01*
X473359Y-4281586D01*
X477169Y-4288698D01*
X477169Y-4296064D01*
X473359Y-4303430D01*
X466247Y-4314352D01*
X429925Y-4350674D01*
X480725Y-4350674D01*
X280065Y-4064220D02*
G01*
X280065Y-4140674D01*
X280065Y-4064220D02*
G01*
X312831Y-4064220D01*
X323753Y-4067776D01*
X327309Y-4071586D01*
X330865Y-4078698D01*
X330865Y-4086064D01*
X327309Y-4093430D01*
X323753Y-4096986D01*
X312831Y-4100542D01*
X280065Y-4100542D01*
X305465Y-4100542D02*
G01*
X330865Y-4140674D01*
X362107Y-4064220D02*
G01*
X402239Y-4064220D01*
X380395Y-4093430D01*
X391317Y-4093430D01*
X398429Y-4096986D01*
X402239Y-4100542D01*
X405795Y-4111464D01*
X405795Y-4118830D01*
X402239Y-4129752D01*
X394873Y-4137118D01*
X383951Y-4140674D01*
X373029Y-4140674D01*
X362107Y-4137118D01*
X358551Y-4133308D01*
X354995Y-4126196D01*
X437037Y-4064220D02*
G01*
X477169Y-4064220D01*
X455325Y-4093430D01*
X466247Y-4093430D01*
X473359Y-4096986D01*
X477169Y-4100542D01*
X480725Y-4111464D01*
X480725Y-4118830D01*
X477169Y-4129752D01*
X469803Y-4137118D01*
X458881Y-4140674D01*
X447959Y-4140674D01*
X437037Y-4137118D01*
X433481Y-4133308D01*
X429925Y-4126196D01*
X278465Y-3850721D02*
G01*
X278465Y-3927175D01*
X278465Y-3850721D02*
G01*
X311231Y-3850721D01*
X322153Y-3854277D01*
X325709Y-3858087D01*
X329265Y-3865199D01*
X329265Y-3872565D01*
X325709Y-3879931D01*
X322153Y-3883487D01*
X311231Y-3887043D01*
X278465Y-3887043D01*
X303865Y-3887043D02*
G01*
X329265Y-3927175D01*
X360507Y-3850721D02*
G01*
X400639Y-3850721D01*
X378795Y-3879931D01*
X389717Y-3879931D01*
X396829Y-3883487D01*
X400639Y-3887043D01*
X404195Y-3897965D01*
X404195Y-3905331D01*
X400639Y-3916253D01*
X393273Y-3923619D01*
X382351Y-3927175D01*
X371429Y-3927175D01*
X360507Y-3923619D01*
X356951Y-3919809D01*
X353395Y-3912697D01*
X464647Y-3850721D02*
G01*
X428325Y-3901775D01*
X482681Y-3901775D01*
X464647Y-3850721D02*
G01*
X464647Y-3927175D01*
X1355064Y-8714211D02*
G01*
X1355064Y-8790665D01*
X1355064Y-8790665D02*
G01*
X1398752Y-8790665D01*
X1422628Y-8728689D02*
G01*
X1429994Y-8725133D01*
X1440916Y-8714211D01*
X1440916Y-8790665D01*
X1350063Y-8459210D02*
G01*
X1350063Y-8535664D01*
X1350063Y-8535664D02*
G01*
X1393751Y-8535664D01*
X1421183Y-8477498D02*
G01*
X1421183Y-8473688D01*
X1424993Y-8466576D01*
X1428549Y-8462766D01*
X1435915Y-8459210D01*
X1450393Y-8459210D01*
X1457759Y-8462766D01*
X1461315Y-8466576D01*
X1464871Y-8473688D01*
X1464871Y-8481054D01*
X1461315Y-8488420D01*
X1453949Y-8499342D01*
X1417627Y-8535664D01*
X1468427Y-8535664D01*
X1089451Y-4277517D02*
G01*
X1085895Y-4270151D01*
X1078529Y-4262785D01*
X1071417Y-4259229D01*
X1056939Y-4259229D01*
X1049573Y-4262785D01*
X1042207Y-4270151D01*
X1038651Y-4277517D01*
X1035095Y-4288439D01*
X1035095Y-4306473D01*
X1038651Y-4317395D01*
X1042207Y-4324761D01*
X1049573Y-4332127D01*
X1056939Y-4335683D01*
X1071417Y-4335683D01*
X1078529Y-4332127D01*
X1085895Y-4324761D01*
X1089451Y-4317395D01*
X1131615Y-4259229D02*
G01*
X1120947Y-4262785D01*
X1117137Y-4270151D01*
X1117137Y-4277517D01*
X1120947Y-4284629D01*
X1128059Y-4288439D01*
X1142537Y-4291995D01*
X1153459Y-4295551D01*
X1160825Y-4302917D01*
X1164381Y-4310283D01*
X1164381Y-4321205D01*
X1160825Y-4328317D01*
X1157269Y-4332127D01*
X1146347Y-4335683D01*
X1131615Y-4335683D01*
X1120947Y-4332127D01*
X1117137Y-4328317D01*
X1113581Y-4321205D01*
X1113581Y-4310283D01*
X1117137Y-4302917D01*
X1124503Y-4295551D01*
X1135425Y-4291995D01*
X1149903Y-4288439D01*
X1157269Y-4284629D01*
X1160825Y-4277517D01*
X1160825Y-4270151D01*
X1157269Y-4262785D01*
X1146347Y-4259229D01*
X1131615Y-4259229D01*
X909419Y-9857496D02*
G01*
X905863Y-9850130D01*
X898751Y-9842764D01*
X891385Y-9839208D01*
X876907Y-9839208D01*
X869541Y-9842764D01*
X862175Y-9850130D01*
X858619Y-9857496D01*
X855063Y-9868418D01*
X855063Y-9886452D01*
X858619Y-9897374D01*
X862175Y-9904740D01*
X869541Y-9912106D01*
X876907Y-9915662D01*
X891385Y-9915662D01*
X898751Y-9912106D01*
X905863Y-9904740D01*
X909419Y-9897374D01*
X937105Y-9857496D02*
G01*
X937105Y-9853686D01*
X940915Y-9846574D01*
X944471Y-9842764D01*
X951837Y-9839208D01*
X966315Y-9839208D01*
X973427Y-9842764D01*
X977237Y-9846574D01*
X980793Y-9853686D01*
X980793Y-9861052D01*
X977237Y-9868418D01*
X969871Y-9879340D01*
X933549Y-9915662D01*
X984349Y-9915662D01*
X1015845Y-9839208D02*
G01*
X1055723Y-9839208D01*
X1033879Y-9868418D01*
X1044801Y-9868418D01*
X1052167Y-9871974D01*
X1055723Y-9875530D01*
X1059279Y-9886452D01*
X1059279Y-9893818D01*
X1055723Y-9904740D01*
X1048357Y-9912106D01*
X1037435Y-9915662D01*
X1026513Y-9915662D01*
X1015845Y-9912106D01*
X1012035Y-9908296D01*
X1008479Y-9901184D01*
X1339608Y-9552434D02*
G01*
X1335798Y-9545068D01*
X1328686Y-9537956D01*
X1321320Y-9534146D01*
X1306842Y-9534146D01*
X1299476Y-9537956D01*
X1292364Y-9545068D01*
X1288554Y-9552434D01*
X1284998Y-9563356D01*
X1284998Y-9581644D01*
X1288554Y-9592312D01*
X1292364Y-9599678D01*
X1299476Y-9607044D01*
X1306842Y-9610600D01*
X1321320Y-9610600D01*
X1328686Y-9607044D01*
X1335798Y-9599678D01*
X1339608Y-9592312D01*
X1367294Y-9552434D02*
G01*
X1367294Y-9548878D01*
X1370850Y-9541512D01*
X1374406Y-9537956D01*
X1381772Y-9534146D01*
X1396250Y-9534146D01*
X1403616Y-9537956D01*
X1407172Y-9541512D01*
X1410728Y-9548878D01*
X1410728Y-9555990D01*
X1407172Y-9563356D01*
X1399806Y-9574278D01*
X1363484Y-9610600D01*
X1414538Y-9610600D01*
X1474736Y-9534146D02*
G01*
X1438414Y-9585200D01*
X1493024Y-9585200D01*
X1474736Y-9534146D02*
G01*
X1474736Y-9610600D01*
X1539417Y-8177502D02*
G01*
X1535861Y-8170136D01*
X1528749Y-8162770D01*
X1521383Y-8159214D01*
X1506905Y-8159214D01*
X1499539Y-8162770D01*
X1492173Y-8170136D01*
X1488617Y-8177502D01*
X1485061Y-8188424D01*
X1485061Y-8206458D01*
X1488617Y-8217380D01*
X1492173Y-8224746D01*
X1499539Y-8232112D01*
X1506905Y-8235668D01*
X1521383Y-8235668D01*
X1528749Y-8232112D01*
X1535861Y-8224746D01*
X1539417Y-8217380D01*
X1614347Y-8159214D02*
G01*
X1578025Y-8235668D01*
X1563547Y-8159214D02*
G01*
X1614347Y-8159214D01*
X923008Y-9553196D02*
G01*
X919198Y-9545830D01*
X912086Y-9538464D01*
X904720Y-9534908D01*
X890242Y-9534908D01*
X882876Y-9538464D01*
X875764Y-9545830D01*
X871954Y-9553196D01*
X868398Y-9564118D01*
X868398Y-9582152D01*
X871954Y-9593074D01*
X875764Y-9600440D01*
X882876Y-9607806D01*
X890242Y-9611362D01*
X904720Y-9611362D01*
X912086Y-9607806D01*
X919198Y-9600440D01*
X923008Y-9593074D01*
X950694Y-9553196D02*
G01*
X950694Y-9549386D01*
X954250Y-9542274D01*
X957806Y-9538464D01*
X965172Y-9534908D01*
X979650Y-9534908D01*
X987016Y-9538464D01*
X990572Y-9542274D01*
X994128Y-9549386D01*
X994128Y-9556752D01*
X990572Y-9564118D01*
X983206Y-9575040D01*
X946884Y-9611362D01*
X997938Y-9611362D01*
X1043658Y-9534908D02*
G01*
X1032736Y-9538464D01*
X1025370Y-9549386D01*
X1021814Y-9567674D01*
X1021814Y-9578596D01*
X1025370Y-9596884D01*
X1032736Y-9607806D01*
X1043658Y-9611362D01*
X1051024Y-9611362D01*
X1061946Y-9607806D01*
X1069058Y-9596884D01*
X1072868Y-9578596D01*
X1072868Y-9567674D01*
X1069058Y-9549386D01*
X1061946Y-9538464D01*
X1051024Y-9534908D01*
X1043658Y-9534908D01*
X638632Y-1766315D02*
G01*
X635076Y-1758950D01*
X627710Y-1751584D01*
X620598Y-1748028D01*
X606120Y-1748028D01*
X598754Y-1751584D01*
X591388Y-1758950D01*
X587832Y-1766315D01*
X584276Y-1777237D01*
X584276Y-1795271D01*
X587832Y-1806194D01*
X591388Y-1813560D01*
X598754Y-1820926D01*
X606120Y-1824481D01*
X620598Y-1824481D01*
X627710Y-1820926D01*
X635076Y-1813560D01*
X638632Y-1806194D01*
X662762Y-1762505D02*
G01*
X670128Y-1758950D01*
X680796Y-1748028D01*
X680796Y-1824481D01*
X371932Y-2198115D02*
G01*
X368376Y-2190750D01*
X361010Y-2183384D01*
X353898Y-2179828D01*
X339420Y-2179828D01*
X332054Y-2183384D01*
X324688Y-2190750D01*
X321132Y-2198115D01*
X317576Y-2209037D01*
X317576Y-2227071D01*
X321132Y-2237994D01*
X324688Y-2245360D01*
X332054Y-2252726D01*
X339420Y-2256281D01*
X353898Y-2256281D01*
X361010Y-2252726D01*
X368376Y-2245360D01*
X371932Y-2237994D01*
X399618Y-2198115D02*
G01*
X399618Y-2194305D01*
X403428Y-2187194D01*
X406984Y-2183384D01*
X414096Y-2179828D01*
X428828Y-2179828D01*
X435940Y-2183384D01*
X439750Y-2187194D01*
X443306Y-2194305D01*
X443306Y-2201671D01*
X439750Y-2209037D01*
X432384Y-2219960D01*
X396062Y-2256281D01*
X446862Y-2256281D01*
X1133932Y-2629915D02*
G01*
X1130376Y-2622550D01*
X1123010Y-2615184D01*
X1115898Y-2611628D01*
X1101420Y-2611628D01*
X1094054Y-2615184D01*
X1086688Y-2622550D01*
X1083132Y-2629915D01*
X1079576Y-2640837D01*
X1079576Y-2658871D01*
X1083132Y-2669794D01*
X1086688Y-2677160D01*
X1094054Y-2684526D01*
X1101420Y-2688081D01*
X1115898Y-2688081D01*
X1123010Y-2684526D01*
X1130376Y-2677160D01*
X1133932Y-2669794D01*
X1201750Y-2611628D02*
G01*
X1165428Y-2611628D01*
X1161618Y-2644394D01*
X1165428Y-2640837D01*
X1176096Y-2637028D01*
X1187018Y-2637028D01*
X1197940Y-2640837D01*
X1205306Y-2647950D01*
X1208862Y-2658871D01*
X1208862Y-2666237D01*
X1205306Y-2677160D01*
X1197940Y-2684526D01*
X1187018Y-2688081D01*
X1176096Y-2688081D01*
X1165428Y-2684526D01*
X1161618Y-2680715D01*
X1158062Y-2673604D01*
X1387932Y-2198115D02*
G01*
X1384376Y-2190750D01*
X1377010Y-2183384D01*
X1369898Y-2179828D01*
X1355420Y-2179828D01*
X1348054Y-2183384D01*
X1340688Y-2190750D01*
X1337132Y-2198115D01*
X1333576Y-2209037D01*
X1333576Y-2227071D01*
X1337132Y-2237994D01*
X1340688Y-2245360D01*
X1348054Y-2252726D01*
X1355420Y-2256281D01*
X1369898Y-2256281D01*
X1377010Y-2252726D01*
X1384376Y-2245360D01*
X1387932Y-2237994D01*
X1455750Y-2190750D02*
G01*
X1451940Y-2183384D01*
X1441018Y-2179828D01*
X1433906Y-2179828D01*
X1422984Y-2183384D01*
X1415618Y-2194305D01*
X1412062Y-2212594D01*
X1412062Y-2230881D01*
X1415618Y-2245360D01*
X1422984Y-2252726D01*
X1433906Y-2256281D01*
X1437462Y-2256281D01*
X1448384Y-2252726D01*
X1455750Y-2245360D01*
X1459306Y-2234437D01*
X1459306Y-2230881D01*
X1455750Y-2219960D01*
X1448384Y-2212594D01*
X1437462Y-2209037D01*
X1433906Y-2209037D01*
X1422984Y-2212594D01*
X1415618Y-2219960D01*
X1412062Y-2230881D01*
X600532Y-267715D02*
G01*
X596976Y-260350D01*
X589610Y-252984D01*
X582498Y-249428D01*
X568020Y-249428D01*
X560654Y-252984D01*
X553288Y-260350D01*
X549732Y-267715D01*
X546176Y-278637D01*
X546176Y-296671D01*
X549732Y-307594D01*
X553288Y-314960D01*
X560654Y-322326D01*
X568020Y-325881D01*
X582498Y-325881D01*
X589610Y-322326D01*
X596976Y-314960D01*
X600532Y-307594D01*
X624662Y-263905D02*
G01*
X632028Y-260350D01*
X642696Y-249428D01*
X642696Y-325881D01*
X688670Y-249428D02*
G01*
X677748Y-252984D01*
X670382Y-263905D01*
X666826Y-282194D01*
X666826Y-293115D01*
X670382Y-311404D01*
X677748Y-322326D01*
X688670Y-325881D01*
X695782Y-325881D01*
X706704Y-322326D01*
X714070Y-311404D01*
X717626Y-293115D01*
X717626Y-282194D01*
X714070Y-263905D01*
X706704Y-252984D01*
X695782Y-249428D01*
X688670Y-249428D01*
X359232Y-699515D02*
G01*
X355676Y-692150D01*
X348310Y-684784D01*
X341198Y-681228D01*
X326720Y-681228D01*
X319354Y-684784D01*
X311988Y-692150D01*
X308432Y-699515D01*
X304876Y-710437D01*
X304876Y-728471D01*
X308432Y-739394D01*
X311988Y-746760D01*
X319354Y-754126D01*
X326720Y-757681D01*
X341198Y-757681D01*
X348310Y-754126D01*
X355676Y-746760D01*
X359232Y-739394D01*
X383362Y-695705D02*
G01*
X390728Y-692150D01*
X401396Y-681228D01*
X401396Y-757681D01*
X425526Y-695705D02*
G01*
X432892Y-692150D01*
X443814Y-681228D01*
X443814Y-757681D01*
X1121232Y-1118615D02*
G01*
X1117676Y-1111250D01*
X1110310Y-1103884D01*
X1103198Y-1100328D01*
X1088720Y-1100328D01*
X1081354Y-1103884D01*
X1073988Y-1111250D01*
X1070432Y-1118615D01*
X1066876Y-1129537D01*
X1066876Y-1147571D01*
X1070432Y-1158494D01*
X1073988Y-1165860D01*
X1081354Y-1173226D01*
X1088720Y-1176781D01*
X1103198Y-1176781D01*
X1110310Y-1173226D01*
X1117676Y-1165860D01*
X1121232Y-1158494D01*
X1145362Y-1114805D02*
G01*
X1152728Y-1111250D01*
X1163396Y-1100328D01*
X1163396Y-1176781D01*
X1231214Y-1111250D02*
G01*
X1227404Y-1103884D01*
X1216482Y-1100328D01*
X1209370Y-1100328D01*
X1198448Y-1103884D01*
X1191082Y-1114805D01*
X1187526Y-1133094D01*
X1187526Y-1151381D01*
X1191082Y-1165860D01*
X1198448Y-1173226D01*
X1209370Y-1176781D01*
X1212926Y-1176781D01*
X1223848Y-1173226D01*
X1231214Y-1165860D01*
X1234770Y-1154937D01*
X1234770Y-1151381D01*
X1231214Y-1140460D01*
X1223848Y-1133094D01*
X1212926Y-1129537D01*
X1209370Y-1129537D01*
X1198448Y-1133094D01*
X1191082Y-1140460D01*
X1187526Y-1151381D01*
X1362532Y-686815D02*
G01*
X1358976Y-679450D01*
X1351610Y-672084D01*
X1344498Y-668528D01*
X1330020Y-668528D01*
X1322654Y-672084D01*
X1315288Y-679450D01*
X1311732Y-686815D01*
X1308176Y-697737D01*
X1308176Y-715771D01*
X1311732Y-726694D01*
X1315288Y-734060D01*
X1322654Y-741426D01*
X1330020Y-744981D01*
X1344498Y-744981D01*
X1351610Y-741426D01*
X1358976Y-734060D01*
X1362532Y-726694D01*
X1386662Y-683005D02*
G01*
X1394028Y-679450D01*
X1404696Y-668528D01*
X1404696Y-744981D01*
X1479626Y-668528D02*
G01*
X1443304Y-744981D01*
X1428826Y-668528D02*
G01*
X1479626Y-668528D01*
X1080005Y-5099222D02*
G01*
X1080005Y-5175676D01*
X1080005Y-5099222D02*
G01*
X1112771Y-5099222D01*
X1123693Y-5102778D01*
X1127249Y-5106588D01*
X1130805Y-5113700D01*
X1130805Y-5121066D01*
X1127249Y-5128432D01*
X1123693Y-5131988D01*
X1112771Y-5135544D01*
X1080005Y-5135544D01*
X1105405Y-5135544D02*
G01*
X1130805Y-5175676D01*
X1158491Y-5117510D02*
G01*
X1158491Y-5113700D01*
X1162301Y-5106588D01*
X1165857Y-5102778D01*
X1172969Y-5099222D01*
X1187701Y-5099222D01*
X1194813Y-5102778D01*
X1198623Y-5106588D01*
X1202179Y-5113700D01*
X1202179Y-5121066D01*
X1198623Y-5128432D01*
X1191257Y-5139354D01*
X1154935Y-5175676D01*
X1205735Y-5175676D01*
X1247899Y-5099222D02*
G01*
X1236977Y-5102778D01*
X1233421Y-5110144D01*
X1233421Y-5117510D01*
X1236977Y-5124622D01*
X1244343Y-5128432D01*
X1258821Y-5131988D01*
X1269743Y-5135544D01*
X1277109Y-5142910D01*
X1280665Y-5150276D01*
X1280665Y-5161198D01*
X1277109Y-5168310D01*
X1273553Y-5172120D01*
X1262631Y-5175676D01*
X1247899Y-5175676D01*
X1236977Y-5172120D01*
X1233421Y-5168310D01*
X1229865Y-5161198D01*
X1229865Y-5150276D01*
X1233421Y-5142910D01*
X1240787Y-5135544D01*
X1251709Y-5131988D01*
X1266187Y-5128432D01*
X1273553Y-5124622D01*
X1277109Y-5117510D01*
X1277109Y-5110144D01*
X1273553Y-5102778D01*
X1262631Y-5099222D01*
X1247899Y-5099222D01*
X1569958Y-5209204D02*
G01*
X1569958Y-5304454D01*
X1633712Y-5209204D02*
G01*
X1633712Y-5304454D01*
X1569958Y-5254416D02*
G01*
X1633712Y-5254416D01*
X1672828Y-5209204D02*
G01*
X1722612Y-5209204D01*
X1695434Y-5245526D01*
X1709150Y-5245526D01*
X1718294Y-5250098D01*
X1722612Y-5254416D01*
X1727184Y-5268132D01*
X1727184Y-5277276D01*
X1722612Y-5290992D01*
X1713722Y-5299882D01*
X1700006Y-5304454D01*
X1686290Y-5304454D01*
X1672828Y-5299882D01*
X1668256Y-5295564D01*
X1663684Y-5286420D01*
X790897Y-5223573D02*
G01*
X790897Y-5278183D01*
X794453Y-5289105D01*
X801819Y-5296471D01*
X812741Y-5300027D01*
X820107Y-5300027D01*
X830775Y-5296471D01*
X838141Y-5289105D01*
X841697Y-5278183D01*
X841697Y-5223573D01*
X883861Y-5223573D02*
G01*
X873193Y-5227129D01*
X869383Y-5234495D01*
X869383Y-5241861D01*
X873193Y-5248973D01*
X880305Y-5252783D01*
X894783Y-5256339D01*
X905705Y-5259895D01*
X913071Y-5267261D01*
X916627Y-5274627D01*
X916627Y-5285549D01*
X913071Y-5292661D01*
X909515Y-5296471D01*
X898593Y-5300027D01*
X883861Y-5300027D01*
X873193Y-5296471D01*
X869383Y-5292661D01*
X865827Y-5285549D01*
X865827Y-5274627D01*
X869383Y-5267261D01*
X876749Y-5259895D01*
X887671Y-5256339D01*
X902149Y-5252783D01*
X909515Y-5248973D01*
X913071Y-5241861D01*
X913071Y-5234495D01*
X909515Y-5227129D01*
X898593Y-5223573D01*
X883861Y-5223573D01*
X1295476Y-3653028D02*
G01*
X1295476Y-3729481D01*
X1295476Y-3653028D02*
G01*
X1328242Y-3653028D01*
X1339164Y-3656584D01*
X1342720Y-3660394D01*
X1346276Y-3667505D01*
X1346276Y-3674871D01*
X1342720Y-3682237D01*
X1339164Y-3685794D01*
X1328242Y-3689350D01*
X1295476Y-3689350D01*
X1320876Y-3689350D02*
G01*
X1346276Y-3729481D01*
X1373962Y-3671315D02*
G01*
X1373962Y-3667505D01*
X1377518Y-3660394D01*
X1381328Y-3656584D01*
X1388440Y-3653028D01*
X1403172Y-3653028D01*
X1410284Y-3656584D01*
X1413840Y-3660394D01*
X1417650Y-3667505D01*
X1417650Y-3674871D01*
X1413840Y-3682237D01*
X1406728Y-3693160D01*
X1370406Y-3729481D01*
X1421206Y-3729481D01*
X1466926Y-3653028D02*
G01*
X1456258Y-3656584D01*
X1448892Y-3667505D01*
X1445336Y-3685794D01*
X1445336Y-3696715D01*
X1448892Y-3715004D01*
X1456258Y-3725926D01*
X1466926Y-3729481D01*
X1474292Y-3729481D01*
X1485214Y-3725926D01*
X1492580Y-3715004D01*
X1496136Y-3696715D01*
X1496136Y-3685794D01*
X1492580Y-3667505D01*
X1485214Y-3656584D01*
X1474292Y-3653028D01*
X1466926Y-3653028D01*
X292176Y-3424428D02*
G01*
X292176Y-3500881D01*
X292176Y-3424428D02*
G01*
X324942Y-3424428D01*
X335864Y-3427984D01*
X339420Y-3431794D01*
X342976Y-3438905D01*
X342976Y-3446271D01*
X339420Y-3453637D01*
X335864Y-3457194D01*
X324942Y-3460750D01*
X292176Y-3460750D01*
X317576Y-3460750D02*
G01*
X342976Y-3500881D01*
X367106Y-3438905D02*
G01*
X374218Y-3435350D01*
X385140Y-3424428D01*
X385140Y-3500881D01*
X452958Y-3435350D02*
G01*
X449148Y-3427984D01*
X438226Y-3424428D01*
X431114Y-3424428D01*
X420192Y-3427984D01*
X412826Y-3438905D01*
X409270Y-3457194D01*
X409270Y-3475481D01*
X412826Y-3489960D01*
X420192Y-3497326D01*
X431114Y-3500881D01*
X434670Y-3500881D01*
X445592Y-3497326D01*
X452958Y-3489960D01*
X456514Y-3479037D01*
X456514Y-3475481D01*
X452958Y-3464560D01*
X445592Y-3457194D01*
X434670Y-3453637D01*
X431114Y-3453637D01*
X420192Y-3457194D01*
X412826Y-3464560D01*
X409270Y-3475481D01*
X1092276Y-1532128D02*
G01*
X1092276Y-1608581D01*
X1092276Y-1532128D02*
G01*
X1125042Y-1532128D01*
X1135964Y-1535684D01*
X1139520Y-1539494D01*
X1143076Y-1546605D01*
X1143076Y-1553971D01*
X1139520Y-1561337D01*
X1135964Y-1564894D01*
X1125042Y-1568450D01*
X1092276Y-1568450D01*
X1117676Y-1568450D02*
G01*
X1143076Y-1608581D01*
X1174318Y-1532128D02*
G01*
X1214450Y-1532128D01*
X1192606Y-1561337D01*
X1203528Y-1561337D01*
X1210640Y-1564894D01*
X1214450Y-1568450D01*
X1218006Y-1579371D01*
X1218006Y-1586737D01*
X1214450Y-1597660D01*
X1207084Y-1605026D01*
X1196162Y-1608581D01*
X1185240Y-1608581D01*
X1174318Y-1605026D01*
X1170762Y-1601215D01*
X1167206Y-1594104D01*
X571576Y-2827528D02*
G01*
X571576Y-2903981D01*
X571576Y-2827528D02*
G01*
X604342Y-2827528D01*
X615264Y-2831084D01*
X618820Y-2834894D01*
X622376Y-2842005D01*
X622376Y-2849371D01*
X618820Y-2856737D01*
X615264Y-2860294D01*
X604342Y-2863850D01*
X571576Y-2863850D01*
X596976Y-2863850D02*
G01*
X622376Y-2903981D01*
X664540Y-2827528D02*
G01*
X653618Y-2831084D01*
X650062Y-2838450D01*
X650062Y-2845815D01*
X653618Y-2852928D01*
X660984Y-2856737D01*
X675462Y-2860294D01*
X686384Y-2863850D01*
X693750Y-2871215D01*
X697306Y-2878581D01*
X697306Y-2889504D01*
X693750Y-2896615D01*
X689940Y-2900426D01*
X679272Y-2903981D01*
X664540Y-2903981D01*
X653618Y-2900426D01*
X650062Y-2896615D01*
X646506Y-2889504D01*
X646506Y-2878581D01*
X650062Y-2871215D01*
X657428Y-2863850D01*
X668350Y-2860294D01*
X682828Y-2856737D01*
X689940Y-2852928D01*
X693750Y-2845815D01*
X693750Y-2838450D01*
X689940Y-2831084D01*
X679272Y-2827528D01*
X664540Y-2827528D01*
X317576Y-1748028D02*
G01*
X317576Y-1824481D01*
X317576Y-1748028D02*
G01*
X350342Y-1748028D01*
X361264Y-1751584D01*
X364820Y-1755394D01*
X368376Y-1762505D01*
X368376Y-1769871D01*
X364820Y-1777237D01*
X361264Y-1780794D01*
X350342Y-1784350D01*
X317576Y-1784350D01*
X342976Y-1784350D02*
G01*
X368376Y-1824481D01*
X428828Y-1748028D02*
G01*
X392506Y-1799081D01*
X446862Y-1799081D01*
X428828Y-1748028D02*
G01*
X428828Y-1824481D01*
X1346276Y-2611628D02*
G01*
X1346276Y-2688081D01*
X1346276Y-2611628D02*
G01*
X1379042Y-2611628D01*
X1389964Y-2615184D01*
X1393520Y-2618994D01*
X1397076Y-2626105D01*
X1397076Y-2633471D01*
X1393520Y-2640837D01*
X1389964Y-2644394D01*
X1379042Y-2647950D01*
X1346276Y-2647950D01*
X1371676Y-2647950D02*
G01*
X1397076Y-2688081D01*
X1468450Y-2637028D02*
G01*
X1464640Y-2647950D01*
X1457528Y-2655315D01*
X1446606Y-2658871D01*
X1443050Y-2658871D01*
X1432128Y-2655315D01*
X1424762Y-2647950D01*
X1421206Y-2637028D01*
X1421206Y-2633471D01*
X1424762Y-2622550D01*
X1432128Y-2615184D01*
X1443050Y-2611628D01*
X1446606Y-2611628D01*
X1457528Y-2615184D01*
X1464640Y-2622550D01*
X1468450Y-2637028D01*
X1468450Y-2655315D01*
X1464640Y-2673604D01*
X1457528Y-2684526D01*
X1446606Y-2688081D01*
X1439240Y-2688081D01*
X1428318Y-2684526D01*
X1424762Y-2677160D01*
X584276Y-1532128D02*
G01*
X584276Y-1608581D01*
X584276Y-1532128D02*
G01*
X617042Y-1532128D01*
X627964Y-1535684D01*
X631520Y-1539494D01*
X635076Y-1546605D01*
X635076Y-1553971D01*
X631520Y-1561337D01*
X627964Y-1564894D01*
X617042Y-1568450D01*
X584276Y-1568450D01*
X609676Y-1568450D02*
G01*
X635076Y-1608581D01*
X659206Y-1546605D02*
G01*
X666318Y-1543050D01*
X677240Y-1532128D01*
X677240Y-1608581D01*
X1092276Y-2827528D02*
G01*
X1092276Y-2903981D01*
X1092276Y-2827528D02*
G01*
X1125042Y-2827528D01*
X1135964Y-2831084D01*
X1139520Y-2834894D01*
X1143076Y-2842005D01*
X1143076Y-2849371D01*
X1139520Y-2856737D01*
X1135964Y-2860294D01*
X1125042Y-2863850D01*
X1092276Y-2863850D01*
X1117676Y-2863850D02*
G01*
X1143076Y-2903981D01*
X1210640Y-2838450D02*
G01*
X1207084Y-2831084D01*
X1196162Y-2827528D01*
X1189050Y-2827528D01*
X1178128Y-2831084D01*
X1170762Y-2842005D01*
X1167206Y-2860294D01*
X1167206Y-2878581D01*
X1170762Y-2893060D01*
X1178128Y-2900426D01*
X1189050Y-2903981D01*
X1192606Y-2903981D01*
X1203528Y-2900426D01*
X1210640Y-2893060D01*
X1214450Y-2882137D01*
X1214450Y-2878581D01*
X1210640Y-2867660D01*
X1203528Y-2860294D01*
X1192606Y-2856737D01*
X1189050Y-2856737D01*
X1178128Y-2860294D01*
X1170762Y-2867660D01*
X1167206Y-2878581D01*
X1054176Y-1316228D02*
G01*
X1054176Y-1392681D01*
X1054176Y-1316228D02*
G01*
X1086942Y-1316228D01*
X1097864Y-1319784D01*
X1101420Y-1323594D01*
X1104976Y-1330705D01*
X1104976Y-1338071D01*
X1101420Y-1345437D01*
X1097864Y-1348994D01*
X1086942Y-1352550D01*
X1054176Y-1352550D01*
X1079576Y-1352550D02*
G01*
X1104976Y-1392681D01*
X1132662Y-1334515D02*
G01*
X1132662Y-1330705D01*
X1136218Y-1323594D01*
X1140028Y-1319784D01*
X1147140Y-1316228D01*
X1161872Y-1316228D01*
X1168984Y-1319784D01*
X1172540Y-1323594D01*
X1176350Y-1330705D01*
X1176350Y-1338071D01*
X1172540Y-1345437D01*
X1165428Y-1356360D01*
X1129106Y-1392681D01*
X1179906Y-1392681D01*
X1207592Y-1334515D02*
G01*
X1207592Y-1330705D01*
X1211148Y-1323594D01*
X1214958Y-1319784D01*
X1222070Y-1316228D01*
X1236548Y-1316228D01*
X1243914Y-1319784D01*
X1247470Y-1323594D01*
X1251280Y-1330705D01*
X1251280Y-1338071D01*
X1247470Y-1345437D01*
X1240358Y-1356360D01*
X1204036Y-1392681D01*
X1254836Y-1392681D01*
X558876Y-45727D02*
G01*
X558876Y-122181D01*
X558876Y-45727D02*
G01*
X591642Y-45727D01*
X602564Y-49283D01*
X606120Y-53093D01*
X609676Y-60205D01*
X609676Y-67571D01*
X606120Y-74937D01*
X602564Y-78493D01*
X591642Y-82049D01*
X558876Y-82049D01*
X584276Y-82049D02*
G01*
X609676Y-122181D01*
X633806Y-60205D02*
G01*
X640918Y-56649D01*
X651840Y-45727D01*
X651840Y-122181D01*
X675970Y-60205D02*
G01*
X683082Y-56649D01*
X694004Y-45727D01*
X694004Y-122181D01*
X1295476Y-1100328D02*
G01*
X1295476Y-1176781D01*
X1295476Y-1100328D02*
G01*
X1328242Y-1100328D01*
X1339164Y-1103884D01*
X1342720Y-1107694D01*
X1346276Y-1114805D01*
X1346276Y-1122171D01*
X1342720Y-1129537D01*
X1339164Y-1133094D01*
X1328242Y-1136650D01*
X1295476Y-1136650D01*
X1320876Y-1136650D02*
G01*
X1346276Y-1176781D01*
X1373962Y-1118615D02*
G01*
X1373962Y-1114805D01*
X1377518Y-1107694D01*
X1381328Y-1103884D01*
X1388440Y-1100328D01*
X1403172Y-1100328D01*
X1410284Y-1103884D01*
X1413840Y-1107694D01*
X1417650Y-1114805D01*
X1417650Y-1122171D01*
X1413840Y-1129537D01*
X1406728Y-1140460D01*
X1370406Y-1176781D01*
X1421206Y-1176781D01*
X1488770Y-1111250D02*
G01*
X1485214Y-1103884D01*
X1474292Y-1100328D01*
X1466926Y-1100328D01*
X1456258Y-1103884D01*
X1448892Y-1114805D01*
X1445336Y-1133094D01*
X1445336Y-1151381D01*
X1448892Y-1165860D01*
X1456258Y-1173226D01*
X1466926Y-1176781D01*
X1470736Y-1176781D01*
X1481658Y-1173226D01*
X1488770Y-1165860D01*
X1492580Y-1154937D01*
X1492580Y-1151381D01*
X1488770Y-1140460D01*
X1481658Y-1133094D01*
X1470736Y-1129537D01*
X1466926Y-1129537D01*
X1456258Y-1133094D01*
X1448892Y-1140460D01*
X1445336Y-1151381D01*
X304876Y-249428D02*
G01*
X304876Y-325881D01*
X304876Y-249428D02*
G01*
X337642Y-249428D01*
X348564Y-252984D01*
X352120Y-256794D01*
X355676Y-263905D01*
X355676Y-271271D01*
X352120Y-278637D01*
X348564Y-282194D01*
X337642Y-285750D01*
X304876Y-285750D01*
X330276Y-285750D02*
G01*
X355676Y-325881D01*
X379806Y-263905D02*
G01*
X386918Y-260350D01*
X397840Y-249428D01*
X397840Y-325881D01*
X440004Y-249428D02*
G01*
X429082Y-252984D01*
X425526Y-260350D01*
X425526Y-267715D01*
X429082Y-274828D01*
X436448Y-278637D01*
X450926Y-282194D01*
X461848Y-285750D01*
X469214Y-293115D01*
X472770Y-300481D01*
X472770Y-311404D01*
X469214Y-318515D01*
X465658Y-322326D01*
X454736Y-325881D01*
X440004Y-325881D01*
X429082Y-322326D01*
X425526Y-318515D01*
X421970Y-311404D01*
X421970Y-300481D01*
X425526Y-293115D01*
X432892Y-285750D01*
X443814Y-282194D01*
X458292Y-278637D01*
X465658Y-274828D01*
X469214Y-267715D01*
X469214Y-260350D01*
X465658Y-252984D01*
X454736Y-249428D01*
X440004Y-249428D01*
X1295476Y-884428D02*
G01*
X1295476Y-960881D01*
X1295476Y-884428D02*
G01*
X1328242Y-884428D01*
X1339164Y-887984D01*
X1342720Y-891794D01*
X1346276Y-898905D01*
X1346276Y-906271D01*
X1342720Y-913637D01*
X1339164Y-917194D01*
X1328242Y-920750D01*
X1295476Y-920750D01*
X1320876Y-920750D02*
G01*
X1346276Y-960881D01*
X1373962Y-902715D02*
G01*
X1373962Y-898905D01*
X1377518Y-891794D01*
X1381328Y-887984D01*
X1388440Y-884428D01*
X1403172Y-884428D01*
X1410284Y-887984D01*
X1413840Y-891794D01*
X1417650Y-898905D01*
X1417650Y-906271D01*
X1413840Y-913637D01*
X1406728Y-924560D01*
X1370406Y-960881D01*
X1421206Y-960881D01*
X1481658Y-884428D02*
G01*
X1445336Y-935481D01*
X1499692Y-935481D01*
X1481658Y-884428D02*
G01*
X1481658Y-960881D01*
X304876Y-465328D02*
G01*
X304876Y-541781D01*
X304876Y-465328D02*
G01*
X337642Y-465328D01*
X348564Y-468884D01*
X352120Y-472694D01*
X355676Y-479805D01*
X355676Y-487171D01*
X352120Y-494537D01*
X348564Y-498094D01*
X337642Y-501650D01*
X304876Y-501650D01*
X330276Y-501650D02*
G01*
X355676Y-541781D01*
X379806Y-479805D02*
G01*
X386918Y-476250D01*
X397840Y-465328D01*
X397840Y-541781D01*
X458292Y-465328D02*
G01*
X421970Y-516381D01*
X476326Y-516381D01*
X458292Y-465328D02*
G01*
X458292Y-541781D01*
X1308176Y-3437128D02*
G01*
X1308176Y-3513581D01*
X1308176Y-3437128D02*
G01*
X1340942Y-3437128D01*
X1351864Y-3440684D01*
X1355420Y-3444494D01*
X1358976Y-3451605D01*
X1358976Y-3458971D01*
X1355420Y-3466337D01*
X1351864Y-3469894D01*
X1340942Y-3473450D01*
X1308176Y-3473450D01*
X1333576Y-3473450D02*
G01*
X1358976Y-3513581D01*
X1383106Y-3451605D02*
G01*
X1390218Y-3448050D01*
X1401140Y-3437128D01*
X1401140Y-3513581D01*
X1432382Y-3437128D02*
G01*
X1472514Y-3437128D01*
X1450670Y-3466337D01*
X1461592Y-3466337D01*
X1468958Y-3469894D01*
X1472514Y-3473450D01*
X1476070Y-3484371D01*
X1476070Y-3491737D01*
X1472514Y-3502660D01*
X1465148Y-3510026D01*
X1454226Y-3513581D01*
X1443304Y-3513581D01*
X1432382Y-3510026D01*
X1428826Y-3506215D01*
X1425270Y-3499104D01*
X304876Y-3640328D02*
G01*
X304876Y-3716781D01*
X304876Y-3640328D02*
G01*
X337642Y-3640328D01*
X348564Y-3643884D01*
X352120Y-3647694D01*
X355676Y-3654805D01*
X355676Y-3662171D01*
X352120Y-3669537D01*
X348564Y-3673094D01*
X337642Y-3676650D01*
X304876Y-3676650D01*
X330276Y-3676650D02*
G01*
X355676Y-3716781D01*
X379806Y-3654805D02*
G01*
X386918Y-3651250D01*
X397840Y-3640328D01*
X397840Y-3716781D01*
X425526Y-3658615D02*
G01*
X425526Y-3654805D01*
X429082Y-3647694D01*
X432892Y-3643884D01*
X440004Y-3640328D01*
X454736Y-3640328D01*
X461848Y-3643884D01*
X465658Y-3647694D01*
X469214Y-3654805D01*
X469214Y-3662171D01*
X465658Y-3669537D01*
X458292Y-3680460D01*
X421970Y-3716781D01*
X472770Y-3716781D01*
X317576Y-2395728D02*
G01*
X317576Y-2472181D01*
X317576Y-2395728D02*
G01*
X350342Y-2395728D01*
X361264Y-2399284D01*
X364820Y-2403094D01*
X368376Y-2410205D01*
X368376Y-2417571D01*
X364820Y-2424937D01*
X361264Y-2428494D01*
X350342Y-2432050D01*
X317576Y-2432050D01*
X342976Y-2432050D02*
G01*
X368376Y-2472181D01*
X435940Y-2395728D02*
G01*
X399618Y-2395728D01*
X396062Y-2428494D01*
X399618Y-2424937D01*
X410540Y-2421128D01*
X421462Y-2421128D01*
X432384Y-2424937D01*
X439750Y-2432050D01*
X443306Y-2442971D01*
X443306Y-2450337D01*
X439750Y-2461260D01*
X432384Y-2468626D01*
X421462Y-2472181D01*
X410540Y-2472181D01*
X399618Y-2468626D01*
X396062Y-2464815D01*
X392506Y-2457704D01*
X1308176Y-1963928D02*
G01*
X1308176Y-2040381D01*
X1308176Y-1963928D02*
G01*
X1340942Y-1963928D01*
X1351864Y-1967484D01*
X1355420Y-1971294D01*
X1358976Y-1978405D01*
X1358976Y-1985771D01*
X1355420Y-1993137D01*
X1351864Y-1996694D01*
X1340942Y-2000250D01*
X1308176Y-2000250D01*
X1333576Y-2000250D02*
G01*
X1358976Y-2040381D01*
X1383106Y-1978405D02*
G01*
X1390218Y-1974850D01*
X1401140Y-1963928D01*
X1401140Y-2040381D01*
X1447114Y-1963928D02*
G01*
X1436192Y-1967484D01*
X1428826Y-1978405D01*
X1425270Y-1996694D01*
X1425270Y-2007615D01*
X1428826Y-2025904D01*
X1436192Y-2036826D01*
X1447114Y-2040381D01*
X1454226Y-2040381D01*
X1465148Y-2036826D01*
X1472514Y-2025904D01*
X1476070Y-2007615D01*
X1476070Y-1996694D01*
X1472514Y-1978405D01*
X1465148Y-1967484D01*
X1454226Y-1963928D01*
X1447114Y-1963928D01*
X1295476Y-452628D02*
G01*
X1295476Y-529081D01*
X1295476Y-452628D02*
G01*
X1328242Y-452628D01*
X1339164Y-456184D01*
X1342720Y-459994D01*
X1346276Y-467105D01*
X1346276Y-474471D01*
X1342720Y-481837D01*
X1339164Y-485394D01*
X1328242Y-488950D01*
X1295476Y-488950D01*
X1320876Y-488950D02*
G01*
X1346276Y-529081D01*
X1373962Y-470915D02*
G01*
X1373962Y-467105D01*
X1377518Y-459994D01*
X1381328Y-456184D01*
X1388440Y-452628D01*
X1403172Y-452628D01*
X1410284Y-456184D01*
X1413840Y-459994D01*
X1417650Y-467105D01*
X1417650Y-474471D01*
X1413840Y-481837D01*
X1406728Y-492760D01*
X1370406Y-529081D01*
X1421206Y-529081D01*
X1496136Y-452628D02*
G01*
X1459814Y-529081D01*
X1445336Y-452628D02*
G01*
X1496136Y-452628D01*
X304876Y-897128D02*
G01*
X304876Y-973581D01*
X304876Y-897128D02*
G01*
X337642Y-897128D01*
X348564Y-900684D01*
X352120Y-904494D01*
X355676Y-911605D01*
X355676Y-918971D01*
X352120Y-926337D01*
X348564Y-929894D01*
X337642Y-933450D01*
X304876Y-933450D01*
X330276Y-933450D02*
G01*
X355676Y-973581D01*
X383362Y-915415D02*
G01*
X383362Y-911605D01*
X386918Y-904494D01*
X390728Y-900684D01*
X397840Y-897128D01*
X412572Y-897128D01*
X419684Y-900684D01*
X423240Y-904494D01*
X427050Y-911605D01*
X427050Y-918971D01*
X423240Y-926337D01*
X416128Y-937260D01*
X379806Y-973581D01*
X430606Y-973581D01*
X454736Y-911605D02*
G01*
X461848Y-908050D01*
X472770Y-897128D01*
X472770Y-973581D01*
X1403497Y-3954919D02*
G01*
X1403497Y-4009529D01*
X1407053Y-4020451D01*
X1414419Y-4027817D01*
X1425341Y-4031373D01*
X1432707Y-4031373D01*
X1443375Y-4027817D01*
X1450741Y-4020451D01*
X1454297Y-4009529D01*
X1454297Y-3954919D01*
X1529227Y-3954919D02*
G01*
X1492905Y-4031373D01*
X1478427Y-3954919D02*
G01*
X1529227Y-3954919D01*
X838200Y-3195828D02*
G01*
X838200Y-3250437D01*
X841755Y-3261360D01*
X849121Y-3268726D01*
X860044Y-3272281D01*
X867410Y-3272281D01*
X878078Y-3268726D01*
X885444Y-3261360D01*
X889000Y-3250437D01*
X889000Y-3195828D01*
X949452Y-3195828D02*
G01*
X913129Y-3246881D01*
X967739Y-3246881D01*
X949452Y-3195828D02*
G01*
X949452Y-3272281D01*
X825500Y-1976628D02*
G01*
X825500Y-2031237D01*
X829055Y-2042160D01*
X836421Y-2049526D01*
X847344Y-2053081D01*
X854710Y-2053081D01*
X865378Y-2049526D01*
X872744Y-2042160D01*
X876300Y-2031237D01*
X876300Y-1976628D01*
X903986Y-1994915D02*
G01*
X903986Y-1991105D01*
X907795Y-1983994D01*
X911352Y-1980184D01*
X918463Y-1976628D01*
X933195Y-1976628D01*
X940307Y-1980184D01*
X944118Y-1983994D01*
X947673Y-1991105D01*
X947673Y-1998471D01*
X944118Y-2005837D01*
X936752Y-2016760D01*
X900429Y-2053081D01*
X951229Y-2053081D01*
X825500Y-465328D02*
G01*
X825500Y-519937D01*
X829055Y-530860D01*
X836421Y-538226D01*
X847344Y-541781D01*
X854710Y-541781D01*
X865378Y-538226D01*
X872744Y-530860D01*
X876300Y-519937D01*
X876300Y-465328D01*
X944118Y-465328D02*
G01*
X907795Y-465328D01*
X903986Y-498094D01*
X907795Y-494537D01*
X918463Y-490728D01*
X929386Y-490728D01*
X940307Y-494537D01*
X947673Y-501650D01*
X951229Y-512571D01*
X951229Y-519937D01*
X947673Y-530860D01*
X940307Y-538226D01*
X929386Y-541781D01*
X918463Y-541781D01*
X907795Y-538226D01*
X903986Y-534415D01*
X900429Y-527304D01*
X1043873Y-3840721D02*
G01*
X1043873Y-3917175D01*
X1043873Y-3840721D02*
G01*
X1076639Y-3840721D01*
X1087561Y-3844277D01*
X1091117Y-3848087D01*
X1094673Y-3855199D01*
X1094673Y-3862565D01*
X1091117Y-3869931D01*
X1087561Y-3873487D01*
X1076639Y-3877043D01*
X1043873Y-3877043D01*
X1069273Y-3877043D02*
G01*
X1094673Y-3917175D01*
X1118803Y-3855199D02*
G01*
X1125915Y-3851643D01*
X1136837Y-3840721D01*
X1136837Y-3917175D01*
X1208211Y-3866121D02*
G01*
X1204655Y-3877043D01*
X1197289Y-3884409D01*
X1186367Y-3887965D01*
X1182811Y-3887965D01*
X1171889Y-3884409D01*
X1164523Y-3877043D01*
X1160967Y-3866121D01*
X1160967Y-3862565D01*
X1164523Y-3851643D01*
X1171889Y-3844277D01*
X1182811Y-3840721D01*
X1186367Y-3840721D01*
X1197289Y-3844277D01*
X1204655Y-3851643D01*
X1208211Y-3866121D01*
X1208211Y-3884409D01*
X1204655Y-3902697D01*
X1197289Y-3913619D01*
X1186367Y-3917175D01*
X1179001Y-3917175D01*
X1168079Y-3913619D01*
X1164523Y-3906253D01*
X573864Y-3855720D02*
G01*
X573864Y-3932173D01*
X573864Y-3855720D02*
G01*
X606630Y-3855720D01*
X617552Y-3859276D01*
X621108Y-3863086D01*
X624664Y-3870197D01*
X624664Y-3877563D01*
X621108Y-3884929D01*
X617552Y-3888486D01*
X606630Y-3892042D01*
X573864Y-3892042D01*
X599264Y-3892042D02*
G01*
X624664Y-3932173D01*
X648794Y-3870197D02*
G01*
X655906Y-3866642D01*
X666828Y-3855720D01*
X666828Y-3932173D01*
X741758Y-3855720D02*
G01*
X705436Y-3932173D01*
X690958Y-3855720D02*
G01*
X741758Y-3855720D01*
X533476Y-1316228D02*
G01*
X533476Y-1392681D01*
X533476Y-1316228D02*
G01*
X566242Y-1316228D01*
X577164Y-1319784D01*
X580720Y-1323594D01*
X584276Y-1330705D01*
X584276Y-1338071D01*
X580720Y-1345437D01*
X577164Y-1348994D01*
X566242Y-1352550D01*
X533476Y-1352550D01*
X558876Y-1352550D02*
G01*
X584276Y-1392681D01*
X611962Y-1334515D02*
G01*
X611962Y-1330705D01*
X615518Y-1323594D01*
X619328Y-1319784D01*
X626440Y-1316228D01*
X641172Y-1316228D01*
X648284Y-1319784D01*
X651840Y-1323594D01*
X655650Y-1330705D01*
X655650Y-1338071D01*
X651840Y-1345437D01*
X644728Y-1356360D01*
X608406Y-1392681D01*
X659206Y-1392681D01*
X726770Y-1316228D02*
G01*
X690448Y-1316228D01*
X686892Y-1348994D01*
X690448Y-1345437D01*
X701370Y-1341628D01*
X712292Y-1341628D01*
X723214Y-1345437D01*
X730580Y-1352550D01*
X734136Y-1363471D01*
X734136Y-1370837D01*
X730580Y-1381760D01*
X723214Y-1389126D01*
X712292Y-1392681D01*
X701370Y-1392681D01*
X690448Y-1389126D01*
X686892Y-1385315D01*
X683336Y-1378204D01*
X1054176Y-33528D02*
G01*
X1054176Y-109981D01*
X1054176Y-33528D02*
G01*
X1086942Y-33528D01*
X1097864Y-37084D01*
X1101420Y-40894D01*
X1104976Y-48005D01*
X1104976Y-55371D01*
X1101420Y-62737D01*
X1097864Y-66294D01*
X1086942Y-69850D01*
X1054176Y-69850D01*
X1079576Y-69850D02*
G01*
X1104976Y-109981D01*
X1129106Y-48005D02*
G01*
X1136218Y-44450D01*
X1147140Y-33528D01*
X1147140Y-109981D01*
X1214958Y-33528D02*
G01*
X1178382Y-33528D01*
X1174826Y-66294D01*
X1178382Y-62737D01*
X1189304Y-58928D01*
X1200226Y-58928D01*
X1211148Y-62737D01*
X1218514Y-69850D01*
X1222070Y-80771D01*
X1222070Y-88137D01*
X1218514Y-99060D01*
X1211148Y-106426D01*
X1200226Y-109981D01*
X1189304Y-109981D01*
X1178382Y-106426D01*
X1174826Y-102615D01*
X1171270Y-95504D01*
X1346276Y-2395728D02*
G01*
X1346276Y-2472181D01*
X1346276Y-2395728D02*
G01*
X1379042Y-2395728D01*
X1389964Y-2399284D01*
X1393520Y-2403094D01*
X1397076Y-2410205D01*
X1397076Y-2417571D01*
X1393520Y-2424937D01*
X1389964Y-2428494D01*
X1379042Y-2432050D01*
X1346276Y-2432050D01*
X1371676Y-2432050D02*
G01*
X1397076Y-2472181D01*
X1472006Y-2395728D02*
G01*
X1435684Y-2472181D01*
X1421206Y-2395728D02*
G01*
X1472006Y-2395728D01*
X317576Y-1963928D02*
G01*
X317576Y-2040381D01*
X317576Y-1963928D02*
G01*
X350342Y-1963928D01*
X361264Y-1967484D01*
X364820Y-1971294D01*
X368376Y-1978405D01*
X368376Y-1985771D01*
X364820Y-1993137D01*
X361264Y-1996694D01*
X350342Y-2000250D01*
X317576Y-2000250D01*
X342976Y-2000250D02*
G01*
X368376Y-2040381D01*
X396062Y-1982215D02*
G01*
X396062Y-1978405D01*
X399618Y-1971294D01*
X403428Y-1967484D01*
X410540Y-1963928D01*
X425272Y-1963928D01*
X432384Y-1967484D01*
X435940Y-1971294D01*
X439750Y-1978405D01*
X439750Y-1985771D01*
X435940Y-1993137D01*
X428828Y-2004060D01*
X392506Y-2040381D01*
X443306Y-2040381D01*
X1108544Y-3061715D02*
G01*
X1104988Y-3054350D01*
X1097622Y-3046984D01*
X1090510Y-3043428D01*
X1076032Y-3043428D01*
X1068666Y-3046984D01*
X1061300Y-3054350D01*
X1057744Y-3061715D01*
X1054188Y-3072637D01*
X1054188Y-3090671D01*
X1057744Y-3101594D01*
X1061300Y-3108960D01*
X1068666Y-3116326D01*
X1076032Y-3119881D01*
X1090510Y-3119881D01*
X1097622Y-3116326D01*
X1104988Y-3108960D01*
X1108544Y-3101594D01*
X1132674Y-3057905D02*
G01*
X1140040Y-3054350D01*
X1150708Y-3043428D01*
X1150708Y-3119881D01*
X1222082Y-3068828D02*
G01*
X1218526Y-3079750D01*
X1211160Y-3087115D01*
X1200238Y-3090671D01*
X1196682Y-3090671D01*
X1185760Y-3087115D01*
X1178394Y-3079750D01*
X1174838Y-3068828D01*
X1174838Y-3065271D01*
X1178394Y-3054350D01*
X1185760Y-3046984D01*
X1196682Y-3043428D01*
X1200238Y-3043428D01*
X1211160Y-3046984D01*
X1218526Y-3054350D01*
X1222082Y-3068828D01*
X1222082Y-3087115D01*
X1218526Y-3105404D01*
X1211160Y-3116326D01*
X1200238Y-3119881D01*
X1193126Y-3119881D01*
X1182204Y-3116326D01*
X1178394Y-3108960D01*
X1121232Y-267715D02*
G01*
X1117676Y-260350D01*
X1110310Y-252984D01*
X1103198Y-249428D01*
X1088720Y-249428D01*
X1081354Y-252984D01*
X1073988Y-260350D01*
X1070432Y-267715D01*
X1066876Y-278637D01*
X1066876Y-296671D01*
X1070432Y-307594D01*
X1073988Y-314960D01*
X1081354Y-322326D01*
X1088720Y-325881D01*
X1103198Y-325881D01*
X1110310Y-322326D01*
X1117676Y-314960D01*
X1121232Y-307594D01*
X1145362Y-263905D02*
G01*
X1152728Y-260350D01*
X1163396Y-249428D01*
X1163396Y-325881D01*
X1231214Y-249428D02*
G01*
X1194892Y-249428D01*
X1191082Y-282194D01*
X1194892Y-278637D01*
X1205814Y-274828D01*
X1216482Y-274828D01*
X1227404Y-278637D01*
X1234770Y-285750D01*
X1238326Y-296671D01*
X1238326Y-304037D01*
X1234770Y-314960D01*
X1227404Y-322326D01*
X1216482Y-325881D01*
X1205814Y-325881D01*
X1194892Y-322326D01*
X1191082Y-318515D01*
X1187526Y-311404D01*
X1362532Y-3239515D02*
G01*
X1358976Y-3232150D01*
X1351610Y-3224784D01*
X1344498Y-3221228D01*
X1330020Y-3221228D01*
X1322654Y-3224784D01*
X1315288Y-3232150D01*
X1311732Y-3239515D01*
X1308176Y-3250437D01*
X1308176Y-3268471D01*
X1311732Y-3279394D01*
X1315288Y-3286760D01*
X1322654Y-3294126D01*
X1330020Y-3297681D01*
X1344498Y-3297681D01*
X1351610Y-3294126D01*
X1358976Y-3286760D01*
X1362532Y-3279394D01*
X1386662Y-3235705D02*
G01*
X1394028Y-3232150D01*
X1404696Y-3221228D01*
X1404696Y-3297681D01*
X1465148Y-3221228D02*
G01*
X1428826Y-3272281D01*
X1483436Y-3272281D01*
X1465148Y-3221228D02*
G01*
X1465148Y-3297681D01*
X600532Y-1118615D02*
G01*
X596976Y-1111250D01*
X589610Y-1103884D01*
X582498Y-1100328D01*
X568020Y-1100328D01*
X560654Y-1103884D01*
X553288Y-1111250D01*
X549732Y-1118615D01*
X546176Y-1129537D01*
X546176Y-1147571D01*
X549732Y-1158494D01*
X553288Y-1165860D01*
X560654Y-1173226D01*
X568020Y-1176781D01*
X582498Y-1176781D01*
X589610Y-1173226D01*
X596976Y-1165860D01*
X600532Y-1158494D01*
X624662Y-1114805D02*
G01*
X632028Y-1111250D01*
X642696Y-1100328D01*
X642696Y-1176781D01*
X674192Y-1100328D02*
G01*
X714070Y-1100328D01*
X692226Y-1129537D01*
X703148Y-1129537D01*
X710514Y-1133094D01*
X714070Y-1136650D01*
X717626Y-1147571D01*
X717626Y-1154937D01*
X714070Y-1165860D01*
X706704Y-1173226D01*
X695782Y-1176781D01*
X685114Y-1176781D01*
X674192Y-1173226D01*
X670382Y-1169415D01*
X666826Y-1162304D01*
X613232Y-3061715D02*
G01*
X609676Y-3054350D01*
X602310Y-3046984D01*
X595198Y-3043428D01*
X580720Y-3043428D01*
X573354Y-3046984D01*
X565988Y-3054350D01*
X562432Y-3061715D01*
X558876Y-3072637D01*
X558876Y-3090671D01*
X562432Y-3101594D01*
X565988Y-3108960D01*
X573354Y-3116326D01*
X580720Y-3119881D01*
X595198Y-3119881D01*
X602310Y-3116326D01*
X609676Y-3108960D01*
X613232Y-3101594D01*
X637362Y-3057905D02*
G01*
X644728Y-3054350D01*
X655396Y-3043428D01*
X655396Y-3119881D01*
X683082Y-3061715D02*
G01*
X683082Y-3057905D01*
X686892Y-3050794D01*
X690448Y-3046984D01*
X697814Y-3043428D01*
X712292Y-3043428D01*
X719404Y-3046984D01*
X723214Y-3050794D01*
X726770Y-3057905D01*
X726770Y-3065271D01*
X723214Y-3072637D01*
X715848Y-3083560D01*
X679526Y-3119881D01*
X730326Y-3119881D01*
X1133932Y-1766315D02*
G01*
X1130376Y-1758950D01*
X1123010Y-1751584D01*
X1115898Y-1748028D01*
X1101420Y-1748028D01*
X1094054Y-1751584D01*
X1086688Y-1758950D01*
X1083132Y-1766315D01*
X1079576Y-1777237D01*
X1079576Y-1795271D01*
X1083132Y-1806194D01*
X1086688Y-1813560D01*
X1094054Y-1820926D01*
X1101420Y-1824481D01*
X1115898Y-1824481D01*
X1123010Y-1820926D01*
X1130376Y-1813560D01*
X1133932Y-1806194D01*
X1194384Y-1748028D02*
G01*
X1158062Y-1799081D01*
X1212672Y-1799081D01*
X1194384Y-1748028D02*
G01*
X1194384Y-1824481D01*
X625932Y-2629915D02*
G01*
X622376Y-2622550D01*
X615010Y-2615184D01*
X607898Y-2611628D01*
X593420Y-2611628D01*
X586054Y-2615184D01*
X578688Y-2622550D01*
X575132Y-2629915D01*
X571576Y-2640837D01*
X571576Y-2658871D01*
X575132Y-2669794D01*
X578688Y-2677160D01*
X586054Y-2684526D01*
X593420Y-2688081D01*
X607898Y-2688081D01*
X615010Y-2684526D01*
X622376Y-2677160D01*
X625932Y-2669794D01*
X657428Y-2611628D02*
G01*
X697306Y-2611628D01*
X675462Y-2640837D01*
X686384Y-2640837D01*
X693750Y-2644394D01*
X697306Y-2647950D01*
X700862Y-2658871D01*
X700862Y-2666237D01*
X697306Y-2677160D01*
X689940Y-2684526D01*
X679018Y-2688081D01*
X668096Y-2688081D01*
X657428Y-2684526D01*
X653618Y-2680715D01*
X650062Y-2673604D01*
X1014999Y-4469221D02*
G01*
X1014999Y-4545675D01*
X1014999Y-4469221D02*
G01*
X1047765Y-4469221D01*
X1058687Y-4472777D01*
X1062243Y-4476587D01*
X1065799Y-4483699D01*
X1065799Y-4491065D01*
X1062243Y-4498431D01*
X1058687Y-4501987D01*
X1047765Y-4505543D01*
X1014999Y-4505543D01*
X1040399Y-4505543D02*
G01*
X1065799Y-4545675D01*
X1093485Y-4487509D02*
G01*
X1093485Y-4483699D01*
X1097295Y-4476587D01*
X1100851Y-4472777D01*
X1107963Y-4469221D01*
X1122695Y-4469221D01*
X1129807Y-4472777D01*
X1133617Y-4476587D01*
X1137173Y-4483699D01*
X1137173Y-4491065D01*
X1133617Y-4498431D01*
X1126251Y-4509353D01*
X1089929Y-4545675D01*
X1140729Y-4545675D01*
X1171971Y-4469221D02*
G01*
X1212103Y-4469221D01*
X1190259Y-4498431D01*
X1201181Y-4498431D01*
X1208547Y-4501987D01*
X1212103Y-4505543D01*
X1215659Y-4516465D01*
X1215659Y-4523831D01*
X1212103Y-4534753D01*
X1204737Y-4542119D01*
X1193815Y-4545675D01*
X1182893Y-4545675D01*
X1171971Y-4542119D01*
X1168415Y-4538309D01*
X1164859Y-4531197D01*
D10*
X-23997Y-10672983D02*
G01*
X1803994Y-10672980D01*
X1804398Y-10672983D02*
G01*
X1804398Y-10916978D01*
X1803994Y-10916975D02*
G01*
X-24000Y-10916975D01*
X-23997Y-10916975D02*
G01*
X-24000Y-10672983D01*
D30*
X664999Y-5289986D02*
G01*
X605000Y-5289986D01*
X664989Y-5189987D02*
G01*
X604989Y-5189987D01*
D10*
X409999Y-5404990D02*
G01*
X409999Y-5604990D01*
X249999Y-5404990D02*
G01*
X249999Y-5604990D01*
X409999Y-5469867D02*
G01*
X249999Y-5469867D01*
D30*
X1429898Y-4825047D02*
G01*
X1429618Y-4859995D01*
X1429989Y-4760046D02*
G01*
X1429717Y-4794991D01*
X1339997Y-4759990D02*
G01*
X1339997Y-4859990D01*
X1369997Y-4794991D02*
G01*
X1489997Y-4794991D01*
X1369997Y-4824991D02*
G01*
X1489999Y-4824991D01*
X1519996Y-4759990D02*
G01*
X1519996Y-4859990D01*
D10*
X1030798Y-9409981D02*
G01*
X929198Y-9450621D01*
X929198Y-9450621D02*
G01*
X929198Y-9369341D01*
X929198Y-9369341D02*
G01*
X1030798Y-9409981D01*
X1129997Y-9509980D02*
G01*
X829998Y-9509980D01*
X1129997Y-9309981D02*
G01*
X829998Y-9309981D01*
X1030798Y-9460781D02*
G01*
X1030798Y-9359181D01*
X1056198Y-9409981D02*
G01*
X903798Y-9409981D01*
X919198Y-10339979D02*
G01*
X1020798Y-10299339D01*
X1020798Y-10299339D02*
G01*
X1020798Y-10380619D01*
X1020798Y-10380619D02*
G01*
X919198Y-10339979D01*
X819998Y-10239979D02*
G01*
X1119997Y-10239979D01*
X819998Y-10439979D02*
G01*
X1119997Y-10439979D01*
X919198Y-10289179D02*
G01*
X919198Y-10390779D01*
X893798Y-10339979D02*
G01*
X1046198Y-10339979D01*
D30*
X409999Y-4874988D02*
G01*
X349999Y-4874988D01*
X409989Y-4774989D02*
G01*
X349989Y-4774989D01*
X409999Y-4669988D02*
G01*
X349999Y-4669988D01*
X409989Y-4569988D02*
G01*
X349989Y-4569988D01*
X409999Y-4464989D02*
G01*
X349999Y-4464989D01*
X409989Y-4364989D02*
G01*
X349989Y-4364989D01*
X409999Y-4254990D02*
G01*
X349999Y-4254990D01*
X409989Y-4154990D02*
G01*
X349989Y-4154990D01*
X409999Y-4044990D02*
G01*
X349999Y-4044990D01*
X409989Y-3944990D02*
G01*
X349989Y-3944990D01*
X1369997Y-8869984D02*
G01*
X1429997Y-8869984D01*
X1369997Y-8834983D02*
G01*
X1429997Y-8834983D01*
X1379997Y-8614984D02*
G01*
X1439997Y-8614984D01*
X1379997Y-8579982D02*
G01*
X1439997Y-8579982D01*
X1149985Y-4354992D02*
G01*
X1089990Y-4354992D01*
X1134973Y-4374995D02*
G01*
X1134973Y-4434994D01*
X1104978Y-4374989D02*
G01*
X1104978Y-4434989D01*
X1149997Y-4454992D02*
G01*
X1089995Y-4454992D01*
X954940Y-10029880D02*
G01*
X919993Y-10029601D01*
X1019942Y-10029972D02*
G01*
X984996Y-10029700D01*
X1019997Y-9939980D02*
G01*
X919998Y-9939980D01*
X984996Y-9969980D02*
G01*
X984996Y-10089979D01*
X954996Y-9969980D02*
G01*
X954996Y-10089982D01*
X1019997Y-10119979D02*
G01*
X919998Y-10119979D01*
X1374940Y-9729881D02*
G01*
X1339992Y-9729602D01*
X1439941Y-9729972D02*
G01*
X1404995Y-9729701D01*
X1439997Y-9639980D02*
G01*
X1339997Y-9639980D01*
X1404995Y-9669980D02*
G01*
X1404995Y-9789980D01*
X1374995Y-9669980D02*
G01*
X1374995Y-9789982D01*
X1439997Y-9819980D02*
G01*
X1339997Y-9819980D01*
X1420055Y-8345083D02*
G01*
X1455003Y-8345363D01*
X1355054Y-8344992D02*
G01*
X1389999Y-8345263D01*
X1354998Y-8434984D02*
G01*
X1454998Y-8434984D01*
X1389999Y-8404984D02*
G01*
X1389999Y-8284984D01*
X1419999Y-8404984D02*
G01*
X1419999Y-8284982D01*
X1354998Y-8254984D02*
G01*
X1454998Y-8254984D01*
X985055Y-9730079D02*
G01*
X1020003Y-9730359D01*
X920054Y-9729988D02*
G01*
X954999Y-9730259D01*
X919998Y-9819980D02*
G01*
X1019997Y-9819980D01*
X954999Y-9789980D02*
G01*
X954999Y-9669980D01*
X984999Y-9789980D02*
G01*
X984999Y-9669978D01*
X919998Y-9639980D02*
G01*
X1019997Y-9639980D01*
X664987Y-1842300D02*
G01*
X604992Y-1842300D01*
X649975Y-1862302D02*
G01*
X649975Y-1922302D01*
X619980Y-1862297D02*
G01*
X619980Y-1922297D01*
X664999Y-1942299D02*
G01*
X604997Y-1942299D01*
X351012Y-2374099D02*
G01*
X411007Y-2374099D01*
X366024Y-2354097D02*
G01*
X366024Y-2294097D01*
X396019Y-2354102D02*
G01*
X396019Y-2294102D01*
X351000Y-2274100D02*
G01*
X411002Y-2274100D01*
X1113012Y-2805899D02*
G01*
X1173007Y-2805899D01*
X1128024Y-2785897D02*
G01*
X1128024Y-2725897D01*
X1158019Y-2785902D02*
G01*
X1158019Y-2725902D01*
X1113000Y-2705900D02*
G01*
X1173002Y-2705900D01*
X1426987Y-2274100D02*
G01*
X1366992Y-2274100D01*
X1411975Y-2294102D02*
G01*
X1411975Y-2354102D01*
X1381980Y-2294097D02*
G01*
X1381980Y-2354097D01*
X1426999Y-2374099D02*
G01*
X1366997Y-2374099D01*
X664987Y-343700D02*
G01*
X604992Y-343700D01*
X649975Y-363702D02*
G01*
X649975Y-423702D01*
X619980Y-363697D02*
G01*
X619980Y-423697D01*
X664999Y-443699D02*
G01*
X604997Y-443699D01*
X351012Y-875499D02*
G01*
X411007Y-875499D01*
X366024Y-855497D02*
G01*
X366024Y-795497D01*
X396019Y-855502D02*
G01*
X396019Y-795502D01*
X351000Y-775500D02*
G01*
X411002Y-775500D01*
X1113012Y-1294599D02*
G01*
X1173007Y-1294599D01*
X1128024Y-1274597D02*
G01*
X1128024Y-1214597D01*
X1158019Y-1274602D02*
G01*
X1158019Y-1214602D01*
X1113000Y-1194600D02*
G01*
X1173002Y-1194600D01*
X1426987Y-762800D02*
G01*
X1366992Y-762800D01*
X1411975Y-782802D02*
G01*
X1411975Y-842802D01*
X1381980Y-782797D02*
G01*
X1381980Y-842797D01*
X1426999Y-862799D02*
G01*
X1366997Y-862799D01*
X1144998Y-5194993D02*
G01*
X1204998Y-5194993D01*
X1145009Y-5294993D02*
G01*
X1205009Y-5294993D01*
D10*
X1778000Y-5346700D02*
G01*
X1778000Y-5854700D01*
X1524000Y-5854700D01*
X1524000Y-5346700D01*
X1778000Y-5346700D01*
X695022Y-5329979D02*
G01*
X695022Y-5689998D01*
X1035027Y-5689998D01*
X1035027Y-5329979D01*
X695022Y-5329979D01*
D30*
X1367010Y-3847302D02*
G01*
X1427010Y-3847302D01*
X1367000Y-3747302D02*
G01*
X1426999Y-3747302D01*
X351010Y-3618702D02*
G01*
X411010Y-3618702D01*
X351000Y-3518702D02*
G01*
X410999Y-3518702D01*
X1172989Y-1626397D02*
G01*
X1112989Y-1626397D01*
X1172999Y-1726397D02*
G01*
X1113000Y-1726397D01*
X605010Y-3021802D02*
G01*
X665010Y-3021802D01*
X605000Y-2921802D02*
G01*
X664999Y-2921802D01*
X410989Y-1842297D02*
G01*
X350989Y-1842297D01*
X410999Y-1942297D02*
G01*
X351000Y-1942297D01*
X1367010Y-2805902D02*
G01*
X1427010Y-2805902D01*
X1367000Y-2705902D02*
G01*
X1426999Y-2705902D01*
X664989Y-1626397D02*
G01*
X604989Y-1626397D01*
X664999Y-1726397D02*
G01*
X605000Y-1726397D01*
X1113010Y-3021802D02*
G01*
X1173010Y-3021802D01*
X1113000Y-2921802D02*
G01*
X1172999Y-2921802D01*
X1113010Y-1510502D02*
G01*
X1173010Y-1510502D01*
X1113000Y-1410502D02*
G01*
X1172999Y-1410502D01*
X664989Y-139997D02*
G01*
X604989Y-139997D01*
X664999Y-239996D02*
G01*
X605000Y-239996D01*
X1367010Y-1294602D02*
G01*
X1427010Y-1294602D01*
X1367000Y-1194602D02*
G01*
X1426999Y-1194602D01*
X410989Y-343697D02*
G01*
X350989Y-343697D01*
X410999Y-443697D02*
G01*
X351000Y-443697D01*
X1426989Y-978697D02*
G01*
X1366989Y-978697D01*
X1426999Y-1078697D02*
G01*
X1367000Y-1078697D01*
X351010Y-659602D02*
G01*
X411010Y-659602D01*
X351000Y-559602D02*
G01*
X410999Y-559602D01*
X1426989Y-3531397D02*
G01*
X1366989Y-3531397D01*
X1426999Y-3631397D02*
G01*
X1367000Y-3631397D01*
X410989Y-3734597D02*
G01*
X350989Y-3734597D01*
X410999Y-3834597D02*
G01*
X351000Y-3834597D01*
X410989Y-2489997D02*
G01*
X350989Y-2489997D01*
X410999Y-2589997D02*
G01*
X351000Y-2589997D01*
X1367010Y-2158202D02*
G01*
X1427010Y-2158202D01*
X1367000Y-2058202D02*
G01*
X1426999Y-2058202D01*
X1367010Y-646902D02*
G01*
X1427010Y-646902D01*
X1367000Y-546902D02*
G01*
X1426999Y-546902D01*
X410989Y-991397D02*
G01*
X350989Y-991397D01*
X410999Y-1091397D02*
G01*
X351000Y-1091397D01*
D10*
X1180000Y-4059989D02*
G01*
X1281879Y-4059989D01*
X1493111Y-4239991D02*
G01*
X1499999Y-4239991D01*
X1303119Y-4239991D02*
G01*
X1376875Y-4239991D01*
X1180000Y-4239991D02*
G01*
X1186883Y-4239991D01*
X1499999Y-4059989D02*
G01*
X1499999Y-4239991D01*
X1180000Y-4059989D02*
G01*
X1180000Y-4239991D01*
X1398115Y-4059989D02*
G01*
X1499999Y-4059989D01*
X689000Y-3306000D02*
G01*
X689000Y-3320412D01*
X689000Y-3410587D02*
G01*
X689000Y-3447412D01*
X1088999Y-3306000D02*
G01*
X1088999Y-3320412D01*
X1088999Y-3410587D02*
G01*
X1088999Y-3447412D01*
X1088999Y-3537587D02*
G01*
X1088999Y-3574412D01*
X1088999Y-3664587D02*
G01*
X1088999Y-3701412D01*
X831001Y-3306000D02*
G01*
X689000Y-3306000D01*
X689000Y-3537587D02*
G01*
X689000Y-3574412D01*
X689000Y-3664587D02*
G01*
X689000Y-3701412D01*
X689000Y-3791587D02*
G01*
X689000Y-3805999D01*
X1088999Y-3306000D02*
G01*
X948999Y-3306000D01*
X1089002Y-3805999D02*
G01*
X689000Y-3805999D01*
X1089002Y-3791587D02*
G01*
X1089002Y-3805999D01*
X728979Y-2072639D02*
G01*
X820420Y-2072639D01*
X957579Y-2072639D02*
G01*
X1049020Y-2072639D01*
X1114000Y-2074100D02*
G01*
X1114000Y-2085665D01*
X1114000Y-2562534D02*
G01*
X1114000Y-2574099D01*
X663999Y-2574099D01*
X663999Y-2562534D01*
X663999Y-2085665D02*
G01*
X663999Y-2074100D01*
X1049020Y-2072639D02*
G01*
X1114000Y-2072639D01*
X728979Y-2072639D02*
G01*
X663999Y-2072639D01*
X728979Y-574039D02*
G01*
X820420Y-574039D01*
X957579Y-574039D02*
G01*
X1049020Y-574039D01*
X1114000Y-575500D02*
G01*
X1114000Y-587065D01*
X1114000Y-1063934D02*
G01*
X1114000Y-1075499D01*
X663999Y-1075499D01*
X663999Y-1063934D01*
X663999Y-587065D02*
G01*
X663999Y-575500D01*
X1049020Y-574039D02*
G01*
X1114000Y-574039D01*
X728979Y-574039D02*
G01*
X663999Y-574039D01*
D30*
X1090007Y-4034995D02*
G01*
X1150007Y-4034995D01*
X1089997Y-3934995D02*
G01*
X1149997Y-3934995D01*
X679988Y-3949989D02*
G01*
X619988Y-3949989D01*
X679998Y-4049989D02*
G01*
X619998Y-4049989D01*
X605010Y-1510502D02*
G01*
X665010Y-1510502D01*
X605000Y-1410502D02*
G01*
X664999Y-1410502D01*
X1172989Y-127797D02*
G01*
X1112989Y-127797D01*
X1172999Y-227797D02*
G01*
X1113000Y-227797D01*
X1426989Y-2489997D02*
G01*
X1366989Y-2489997D01*
X1426999Y-2589997D02*
G01*
X1367000Y-2589997D01*
X351010Y-2158202D02*
G01*
X411010Y-2158202D01*
X351000Y-2058202D02*
G01*
X410999Y-2058202D01*
X1113012Y-3237699D02*
G01*
X1173007Y-3237699D01*
X1128024Y-3217697D02*
G01*
X1128024Y-3157697D01*
X1158019Y-3217702D02*
G01*
X1158019Y-3157702D01*
X1113000Y-3137700D02*
G01*
X1173002Y-3137700D01*
X1113012Y-443699D02*
G01*
X1173007Y-443699D01*
X1128024Y-423697D02*
G01*
X1128024Y-363697D01*
X1158019Y-423702D02*
G01*
X1158019Y-363702D01*
X1113000Y-343700D02*
G01*
X1173002Y-343700D01*
X1426987Y-3315500D02*
G01*
X1366992Y-3315500D01*
X1411975Y-3335502D02*
G01*
X1411975Y-3395502D01*
X1381980Y-3335497D02*
G01*
X1381980Y-3395497D01*
X1426999Y-3415499D02*
G01*
X1366997Y-3415499D01*
X664987Y-1194600D02*
G01*
X604992Y-1194600D01*
X649975Y-1214602D02*
G01*
X649975Y-1274602D01*
X619980Y-1214597D02*
G01*
X619980Y-1274597D01*
X664999Y-1294599D02*
G01*
X604997Y-1294599D01*
X664987Y-3137700D02*
G01*
X604992Y-3137700D01*
X649975Y-3157702D02*
G01*
X649975Y-3217702D01*
X619980Y-3157697D02*
G01*
X619980Y-3217697D01*
X664999Y-3237699D02*
G01*
X604997Y-3237699D01*
X1113012Y-1942299D02*
G01*
X1173007Y-1942299D01*
X1128024Y-1922297D02*
G01*
X1128024Y-1862297D01*
X1158019Y-1922302D02*
G01*
X1158019Y-1862302D01*
X1113000Y-1842300D02*
G01*
X1173002Y-1842300D01*
X664987Y-2705900D02*
G01*
X604992Y-2705900D01*
X649975Y-2725902D02*
G01*
X649975Y-2785902D01*
X619980Y-2725897D02*
G01*
X619980Y-2785897D01*
X664999Y-2805899D02*
G01*
X604997Y-2805899D01*
X1149997Y-4664989D02*
G01*
X1089997Y-4664989D01*
X1149987Y-4564989D02*
G01*
X1089987Y-4564989D01*
D31*
G75*
G01*
X524919Y-5275039D02*
G03*
X525173Y-5275039I127J-15001D01*
G75*
G01*
X755043Y-5375115D02*
G03*
X755297Y-5375115I127J-20000D01*
D10*
G75*
G01*
X949000Y-3307001D02*
G02*
X830999Y-3307001I-59001J-4468D01*
G75*
G01*
X957580Y-2072640D02*
G02*
X820420Y-2072640I-68580J0D01*
G75*
G01*
X957580Y-574040D02*
G02*
X820420Y-574040I-68580J0D01*
G75*
G01
X641350Y-3289300D02*
G03X641350Y-3289300I-19050J0D01*
G75*
G01
X614401Y-2049094D02*
G03X614401Y-2049094I-25400J0D01*
G75*
G01
X614401Y-550494D02*
G03X614401Y-550494I-25400J0D01*
M02*
